<?xml version="1.0" encoding="utf-8"?>
<!-- Generator: Adobe Illustrator 19.2.1, SVG Export Plug-In . SVG Version: 6.00 Build 0)  -->
<svg version="1.1" id="Calque_1" xmlns="http://www.w3.org/2000/svg" xmlns:xlink="http://www.w3.org/1999/xlink" x="0px" y="0px"
	 viewBox="0 0 159.455 124.485" enable-background="new 0 0 159.455 124.485" xml:space="preserve">
<g>
	<path fill="#FFFFFF" d="M49.617,105.485l18.624-22.421c0,0,2.187-3.906,5.605-1.627l13.561,7.414c0,0,11.39,1.706,15.46,0.362
		c4.234-1.398,14.556,0,26.851-32.005c0,0,2.531-7.775-6.329-12.476c-8.86-4.701-15.912,3.797-15.912,3.797L96.992,66.609
		c0,0-5.425,5.967-14.465,0.362s-20.252-2.712-23.325,0.542L36.598,95.901c0,0-3.074,8.318,2.17,10.487
		C38.768,106.389,43.65,110.909,49.617,105.485z"/>
	<circle fill="#FFFFFF" cx="124.566" cy="28.728" r="12.748"/>
	<path fill="#FFFFFF" d="M92.192,29.555L79.696,18.19C77.67,16.064,77,18.192,77,18.192v3.677C77,22.895,76.213,23,76.213,23h-6.318
		h-2.221c-0.022,0-0.212,0-0.721,0C65.921,23,66,23.545,66,24.706c0,2.443,0,5.503,0,5.503s0,2.811,0,5.253
		C66,36.622,65.921,38,66.954,38c0.508,0,0.699,0,0.721,0h2.221h6.318c0,0,0.787-0.728,0.787,0.298v3.677
		c0,0,0.67,2.128,2.696,0.002l12.194-11.24c0,0,0.647-0.529,0.654-0.529C92.536,30.209,92.192,29.555,92.192,29.555z"/>
	<path fill="#FFFFFF" d="M45.407,76.405L44.834,59.76c0.071-2.936-1.68-1.677-1.68-1.677l-2.6,2.6
		c-0.725,0.725-1.834-0.19-1.834-0.19l-4.467-4.467l-1.57-1.57c-0.015-0.015-0.15-0.15-0.51-0.51c-0.73-0.73-0.987-0.261-1.807,0.56
		c-1.727,1.727-3.891,3.891-3.891,3.891s-1.987,1.987-3.715,3.715c-0.821,0.821-1.546,1.333-0.816,2.063
		c0.359,0.359,0.494,0.494,0.51,0.51l1.57,1.57l4.467,4.467c0,0,1.171,0.853,0.445,1.578l-2.6,2.6c0,0-1.259,1.751,1.677,1.68
		l16.456,0.56c0,0,0.775,0.027,0.78,0.032C45.245,77.167,45.407,76.405,45.407,76.405z"/>
</g>
</svg>
