<svg id="Calque_1" data-name="Calque 1" xmlns="http://www.w3.org/2000/svg" viewBox="0 0 115.67 92.17"><defs><style>.cls-1{fill:#FFF;}</style></defs><title>Aeration direction</title><path class="cls-1" d="M46.62,111.48L65.24,89.06s2.19-3.91,5.61-1.63l13.56,7.41s11.39,1.71,15.46.36c4.23-1.4,14.56,0,26.85-32,0,0,2.53-7.78-6.33-12.48s-15.91,3.8-15.91,3.8L94,72.61s-5.42,6-14.47.36-20.25-2.71-23.33.54L33.6,101.9s-3.07,8.32,2.17,10.49C35.77,112.39,40.65,116.91,46.62,111.48Z" transform="translate(-18.64 -21.98)"/><circle class="cls-1" cx="102.92" cy="12.75" r="12.75"/><path class="cls-1" d="M89.19,35.55L76.7,24.19c-2-2.13-2.7,0-2.7,0v3.68A1,1,0,0,1,73.21,29H64c-1,0-1,.55-1,1.71V41.46c0,1.16-.08,2.54,1,2.54h9.26s0.79-.73.79,0.3V48s0.67,2.13,2.7,0L88.89,36.74l0.65-.53S89.19,35.55,89.19,35.55Z" transform="translate(-18.64 -21.98)"/><path class="cls-1" d="M42.41,82.4L41.83,65.76c0.07-2.94-1.68-1.68-1.68-1.68l-2.6,2.6c-0.73.73-1.83-.19-1.83-0.19L31.25,62l-1.57-1.57-0.51-.51c-0.73-.73-1-0.26-1.81.56L23.47,64.4l-3.71,3.71c-0.82.82-1.55,1.33-.82,2.06l0.51,0.51L21,72.25l4.47,4.47s1.17,0.85.45,1.58l-2.6,2.6S22.08,82.65,25,82.58l16.46,0.56,0.78,0S42.41,82.4,42.41,82.4Z" transform="translate(-18.64 -21.98)"/></svg>