<?xml version="1.0" encoding="utf-8"?>
<!-- Generator: Adobe Illustrator 19.2.1, SVG Export Plug-In . SVG Version: 6.00 Build 0)  -->
<svg version="1.1" id="Calque_1" xmlns="http://www.w3.org/2000/svg" xmlns:xlink="http://www.w3.org/1999/xlink" x="0px" y="0px"
	 viewBox="0 0 118.545 132.061" enable-background="new 0 0 118.545 132.061" xml:space="preserve">
<g>
	<path fill="#FFFFFF" d="M46.375,94.441l12.099-11.9c0.666-0.655,0.664-1.728-0.004-2.381L44.502,66.505
		c-0.646-0.632-1.678-0.634-2.327-0.004L30.016,78.298c-0.648,0.629-1.679,0.627-2.325-0.003L17.104,67.967
		c-1.056-1.03-2.832-0.282-2.832,1.193v39.836c0,0.921,0.746,2.935,1.667,2.935h39.866c1.471,0,2.221-2.4,1.2-3.459L46.344,97.104
		C45.709,96.446,45.723,95.082,46.375,94.441z"/>
	<path fill="#FFFFFF" d="M72.171,37.619l-12.099,11.9c-0.666,0.655-0.664,1.728,0.004,2.381l13.968,13.655
		c0.646,0.632,1.678,0.634,2.327,0.004l12.159-11.797c0.648-0.629,1.679-0.627,2.325,0.003l10.587,10.328
		c1.056,1.03,2.832,0.282,2.832-1.193V23.064c0-0.921-0.746-2.935-1.667-2.935H62.739c-1.471,0-2.221,2.4-1.2,3.459l10.662,11.369
		C72.836,35.614,72.823,36.978,72.171,37.619z"/>
</g>
</svg>
