<?xml version="1.0" encoding="utf-8"?>
<!-- Generator: Adobe Illustrator 19.2.1, SVG Export Plug-In . SVG Version: 6.00 Build 0)  -->
<svg version="1.1" id="Calque_1" xmlns="http://www.w3.org/2000/svg" xmlns:xlink="http://www.w3.org/1999/xlink" x="0px" y="0px"
	 viewBox="0 0 141.5 132.061" enable-background="new 0 0 141.5 132.061" xml:space="preserve">
<path fill="#FFFFFF" d="M116.482,112.207L116.482,112.207l-1.828,8.961c-0.647,3.171-3.437,5.449-6.674,5.449H28.987
	c-4.309,0-7.535-3.95-6.674-8.173l7.597-37.232c0.53-2.598,2.424-4.622,4.842-5.401l0,0c0.172-0.056,0.347-0.105,0.524-0.148
	c0.009-0.002,0.018-0.004,0.027-0.006c0.166-0.04,0.334-0.074,0.504-0.102c0.054-0.008,0.108-0.014,0.162-0.021
	c0.131-0.019,0.262-0.037,0.395-0.048c0.195-0.016,0.391-0.026,0.59-0.026h3.094h62.363h5.297h8.773h3.303
	c0.948,0,1.792,0.38,2.405,0.986c0.613,0.605,0.995,1.437,1.02,2.338c0.007,0.257-0.015,0.521-0.069,0.786L116.482,112.207z
	 M116.448,70.163c-0.318-3.026-2.884-5.393-5.993-5.393h-2.747v5.393H116.448z M24.72,80.153c1.031-5.055,5.087-8.898,10.032-9.792
	v-14.59H25.36c-3.899,0-7.071,3.172-7.071,7.071v48.829L24.72,80.153z M102.412,36.974v33.19H40.049v-33.19
	c0-1.639,1.334-2.974,2.974-2.974h56.416C101.078,34,102.412,35.334,102.412,36.974z M94.789,60.427
	c0-1.462-1.185-2.648-2.648-2.648H50.32c-1.462,0-2.648,1.186-2.648,2.648c0,1.462,1.186,2.648,2.648,2.648h41.821
	C93.604,63.075,94.789,61.889,94.789,60.427z M94.789,46.752c0-1.462-1.185-2.648-2.648-2.648H50.32
	c-1.462,0-2.648,1.186-2.648,2.648c0,1.462,1.186,2.648,2.648,2.648h41.821C93.604,49.4,94.789,48.214,94.789,46.752z"/>
</svg>
