<svg id="Capa_1" data-name="Capa 1" xmlns="http://www.w3.org/2000/svg" viewBox="0 0 512 512"><defs><style>.cls-1{fill:#d80509;}</style></defs><title>arrows</title><g id="Down"><path class="cls-1" d="M256,0C114.62,0,0,114.62,0,256S114.62,512,256,512,512,397.38,512,256,397.38,0,256,0Zm0,464C141.31,464,48,370.69,48,256S141.31,48,256,48s208,93.31,208,208S370.69,464,256,464Zm88-272a23.83,23.83,0,0,0-17.63,7.82l-0.06,0L256,276.48l-70.32-76.7-0.06,0A23.77,23.77,0,0,0,168,192a23.92,23.92,0,0,0-17.63,40.18l-0.06,0,88,96a24,24,0,0,0,35.38,0l88-96-0.06,0A23.91,23.91,0,0,0,344,192Z" transform="translate(0 0)"/></g></svg>