<?xml version="1.0" encoding="utf-8"?>
<!-- Generator: Adobe Illustrator 16.0.0, SVG Export Plug-In . SVG Version: 6.00 Build 0)  -->
<!DOCTYPE svg PUBLIC "-//W3C//DTD SVG 1.1//EN" "http://www.w3.org/Graphics/SVG/1.1/DTD/svg11.dtd">
<svg version="1.1" id="Calque_1" xmlns="http://www.w3.org/2000/svg" xmlns:xlink="http://www.w3.org/1999/xlink" x="0px" y="0px"
	 width="500px" height="500px" viewBox="0 0 500 500" enable-background="new 0 0 500 500" xml:space="preserve">
<linearGradient id="SVGID_1_" gradientUnits="userSpaceOnUse" x1="-103" y1="520" x2="-48" y2="520">
	<stop  offset="0" style="stop-color:#FFFFFF"/>
	<stop  offset="0.6341" style="stop-color:#F8F8F8"/>
	<stop  offset="0.9756" style="stop-color:#000000"/>
</linearGradient>
<rect x="-103" y="493" fill="url(#SVGID_1_)" width="55" height="54"/>
<path fill="none" stroke="#4D6DF4" stroke-width="6" stroke-miterlimit="10" d="M520.257,569.642c0,0,28.111-7.569,31.031-10.165
	c0,0,36.979-13.947,49.304,25.95c0,0,4.542,15.571,9.408,24.652c0,0-49.629,22.058-76.229-15.569
	C533.771,594.51,527.716,581.103,520.257,569.642z"/>
<circle fill="none" stroke="#4D6DF4" stroke-width="6" stroke-miterlimit="10" cx="568.833" cy="587.168" r="18.167"/>
<path fill="#4D6DF4" d="M567.667,570.001c0,0-14.332,18,0.334,36.333C568.001,606.334,587.333,591.668,567.667,570.001z"/>
<path fill="none" stroke="#4D6DF4" stroke-width="6" stroke-miterlimit="10" d="M610,610.079c0,0,14-40.079-14-97.079"/>
<path fill="none" d="M-1184.292-146.583c0,0,5.437,12.167,22.021,13.001c0,0,10.51,2.124,23.76-9.543c0,0,4.463-2.895,12.963-3.812
	c0,0,4.547,0.104,5.547-5.979V-163c0,0,2.915-6.832-19.918-9.999c0,0-30.166-3.248-39.749,7.585c0,0-3.5,2.916-4.583,5
	l-0.083,14.084"/>
<path fill="none" d="M-1181.083-157.416c0,0,1-8.833,14.333-11.333c0,0,22-2.834,40,3.333c0,0,8.333,2.668,0.083,5.168
	c0,0-6.167,0.751-9.25,2.584c0,0-11.75,9.002-17.75,10.585c0,0-12,3.584-23.083-4.25
	C-1176.75-151.329-1180.917-153.503-1181.083-157.416z"/>
<ellipse fill="none" cx="-1165.417" cy="-157.329" rx="5.667" ry="3.25"/>
<g id="Zfm4jS.tif">
	
		<image overflow="visible" width="488" height="447" id="Layer_0_1_" xlink:href="846637B3D0851E03.png"  transform="matrix(1 0 0 1 -931 3654)">
	</image>
</g>
<path fill="#070707" d="M-415.207,4080.957L-618,3963.992v-233.889l201.99-117.736L-211,3730.045v232.466L-415.207,4080.957z
	 M-591,3948.829l176.255,101.8L-237,3947.391v-202.146l-178.407-102.549L-591,3745.187V3948.829z"/>
<polygon fill="#070707" points="-47,3592.991 128.593,3490.598 307,3593.244 307,3795 129.255,3898.629 -47,3796.829 "/>
<path fill="#FCFCFC" d="M-1265.167,510.503c0,0,6.667-10,26.333-11.167c0,0,29.5-1.834,37.167,6.833c0,0,1.167,8.166,0.333,14.5
	c0,0-2.833,4.5-9.5,4c0,0-4.5-1-8.833,4c0,0-11,9.834-20.167,9.667c0,0-16.833,0.333-24.833-12.167
	C-1264.667,526.169-1266,523.337-1265.167,510.503z M-1261.333,517.336c4.667,7.667,20.333,8.833,20.333,8.833
	c9.833,0.333,19.833-9.5,19.833-9.5c2.167-2.667,14.5-5.666,14.5-5.666c4.5-0.833,0.833-4.5,0.833-4.5
	c-8.833-6.666-35-4.834-35-4.834c-16.833,1.666-20.667,9.834-20.667,9.834C-1262.333,513.67-1261.333,517.336-1261.333,517.336z"/>
<ellipse fill="#FCFCFC" cx="-1246.75" cy="514.336" rx="5.917" ry="2.833"/>
<path fill="#F1304E" d="M250.793,483.957L48,366.992V133.104L249.99,15.367L455,133.045v232.466L250.793,483.957z M75,351.829
	l176.255,101.8L429,350.391V148.244L250.593,45.695L75,148.187V351.829z"/>
<polygon fill="#000C2F" stroke="#1E2749" stroke-width="2" stroke-miterlimit="10" points="91,158 91,341 250.5,431 412.75,340 
	411.875,162 250.438,69 "/>
<g>
	<g>
		<path fill="#F1304E" d="M328.692,156.812c0,0-6.056,2.503-8.616,6.138c0,0-6.831,6.186-9.132,6.199
			c0,0-10.789,7.932-12.482,10.182c0,0-8.451,7.402-9.997,7.583c0,0-11.691,9.833-15.633,14.913c0,0-16.812,17.103-22.135,23.626
			c0,0-24.087,29.499-38.504,41.704c0,0-11.877,12.421-12.853,15.357c0,0-13.002,17.428-13.188,20.016
			c0,0-12.578,15.068-13.518,17.487c0,0,5.264-2.154,6.997-4.923c0,0,7.089-9.809,8.599-9.473c0,0,15.335-10.771,19.701-18.209
			c0,0,6.629-6.934,11.379-9.028c0,0,29.883-28.379,47.268-49.911c0,0,11.473-13.914,15.945-15.719c0,0,9.042-8.498,14.198-16.285
			c0,0,6.241-5.091,9.466-10.855c3.224-5.766,1.104-1.156,1.104-1.156S310.367,180.762,328.692,156.812z"/>
		<path fill="#F1304E" d="M331.467,201.905c0,0-24.967,22.161-27.452,24.761c0,0-8.977,7.592-10.673,7.212
			c0,0-8.507,6.383-9.2,10.697c0,0-12.69,13.991-16.544,16.944c0,0-31.444,29.652-32.949,31.945l-0.319,1.769l-1.809,1.175
			c0,0-8.039,10.56-7.791,12.456c0,0-5.828,6.454-7.582,6.853c0,0-10.206,11.392-12.485,13.774c0,0-5.193,8.304-4.862,9.035
			c0.33,0.731-0.331-0.731-0.331-0.731s0.758,2.799,6.519-5.379c0,0,2.829,0.631,4.486-1.102c0,0,7.981-4.396,8.976-7.592
			c0,0,4.721-1.706,10.812-9.154l1.362-1.562l2.187-2.509c0,0-5.967,8.396,3.271-0.188c0,0,18.199-13.288,21.434-20.979
			c0,0,12.706-16.879,15.081-17.927c0,0,15.896-15.906,19.157-23.984c0,0,3.246-5.19,6.629-6.933c0,0,6.173-3.223,10.979-11.482
			c0,0,5.967-8.395,6.864-7.538c0,0,6.836-7.149,5.761-8.178L331.467,201.905z"/>
		<path fill="#F1304E" d="M325.175,252.291c0,0-16.348,8.838-31.193,26.161c0,0-4.255,5.885-7.996,7.283
			c0,0-17.688,14.191-18.035,16.349c0,0-8.533,6.771-9.807,13.848c0,0-10.429,14.497-13.397,15.806c0,0-11.876,10.624-14.571,18.83
			c0,0,4.223-0.108,8.864-6.04c0,0,4.072-0.668,4.626-3.042c0,0,7.896-3.23,11.198-9.197c0,0,5.939-8.007,9.004-7.98
			c0,0,17.191-12.593,21.986-23.353c0,0,3.509-6.185,6.035-6.671c0,0,4.403,0.064,7.06-10.255c0,0,4.761,0.407,12.096-13.729
			c0,0,5.152-5.027,4.878-6.536c0,0,2.154-3.33,2.9-3.031C318.822,260.732,318.658,257.671,325.175,252.291z"/>
		<path fill="#F1304E" d="M260.989,181.655c0,0-18.631,10.387-22.534,14.948c0,0-13.258,13.865-17.546,13.083
			c0,0-25.078,21.918-28.301,27.683c0,0-12.12,19.378-16.96,19.172c0,0-10.405,13.277-9.671,17.297c0,0-11.102,8.737-9.209,14.418
			c0,0,2.749-3.593,9.432-7.708c0,0,2.277,1.209,14.025-12.993c0,0,11.453-10.062,13.992-9.846c0,0,12.261-7.077,11.159-13.107
			c0,0,2.395-4.899,5.986-8.654c0,0,16.091-10.603,18.229-19.064c0,0,13.424-12.602,13.646-15.707
			C243.238,201.177,247.604,193.739,260.989,181.655z"/>
	</g>
	<path fill="#F1304E" d="M179.839,285.434"/>
</g>
<line fill="#F1304E" stroke="#F1304E" stroke-width="25" stroke-miterlimit="10" x1="135" y1="97" x2="359" y2="413"/>
<ellipse fill="#F1304E" cx="-214.131" cy="297.098" rx="62.247" ry="55.498"/>
</svg>
