<?xml version="1.0" encoding="utf-8"?>
<!-- Generator: Adobe Illustrator 19.2.1, SVG Export Plug-In . SVG Version: 6.00 Build 0)  -->
<svg version="1.1" id="Calque_1" xmlns="http://www.w3.org/2000/svg" xmlns:xlink="http://www.w3.org/1999/xlink" x="0px" y="0px"
	 viewBox="0 0 97.9 103.3" style="enable-background:new 0 0 97.9 103.3;" xml:space="preserve">
<style type="text/css">
	.st0{opacity:0.15;fill:none;stroke:#FFFFFF;stroke-width:0.5;stroke-miterlimit:10;}
	.st1{fill:none;stroke:#30BAD5;stroke-width:5;stroke-miterlimit:10;}
	.st2{fill:#30BAD5;}
</style>
<polygon class="st0" points="49,17.8 77.3,34.2 77.3,67 49,83.3 20.6,67 20.6,34.2 "/>
<g>
	<polygon class="st1" points="14.3,30.6 14.3,70.5 49,90.5 66.6,80.4 31.3,20.8 	"/>
	<polygon class="st1" points="83.6,30.6 49,10.6 31.3,20.8 66.6,80.4 83.6,70.5 	"/>
</g>
<g>
	<path class="st2" d="M29.9,58.7c1.2-1.9,2.6-3.6,4-5.2c0.7-0.8,1.4-1.6,2.1-2.5c0.7-0.8,1.5-1.6,2.2-2.4l-0.1,0.1
		c0.6-0.9,1.2-1.8,1.8-2.7c0.6-0.9,1.2-1.8,1.9-2.6c1.3-1.7,2.7-3.4,4.2-5c-0.8,2-1.8,4-2.9,5.9c-0.5,1-1.1,1.9-1.6,2.8
		c-0.6,0.9-1.2,1.8-1.7,2.8l-0.1,0.1L39.7,50c-0.8,0.8-1.5,1.6-2.3,2.3c-0.8,0.7-1.6,1.5-2.4,2.2C33.4,56,31.7,57.4,29.9,58.7z"/>
</g>
<g>
	<path class="st2" d="M36.1,62.8c2.2-2.7,4.5-5.3,6.8-7.9c1.2-1.3,2.4-2.5,3.6-3.8c1.2-1.2,2.4-2.5,3.7-3.7l-0.1,0.1
		c1-1.4,2-2.8,3-4.2c1-1.4,2-2.8,3.1-4.2c2.1-2.8,4.3-5.5,6.6-8.1c-1.6,3.1-3.4,6-5.3,9c-0.9,1.5-1.9,2.9-2.8,4.4
		c-1,1.4-2,2.9-2.9,4.3l-0.1,0.1l-0.1,0.1c-1.2,1.2-2.5,2.4-3.7,3.6c-1.3,1.2-2.5,2.4-3.8,3.5C41.5,58.4,38.9,60.7,36.1,62.8z"/>
</g>
<g>
	<path class="st2" d="M40.8,70.1c1.8-2.3,3.7-4.4,5.6-6.5c1-1.1,2-2.1,3-3.1c1-1,2-2,3-3l-0.1,0.1c0.8-1.2,1.7-2.3,2.5-3.5
		c0.9-1.1,1.7-2.3,2.6-3.4c1.8-2.3,3.6-4.5,5.6-6.6c-1.3,2.6-2.8,5-4.4,7.5c-0.8,1.2-1.6,2.4-2.4,3.6c-0.8,1.2-1.6,2.4-2.5,3.5
		l-0.1,0.1l-0.1,0.1c-1,1-2.1,2-3.1,3c-1.1,1-2.1,1.9-3.2,2.9C45.3,66.5,43.1,68.4,40.8,70.1z"/>
</g>
<g>
	<path class="st2" d="M48.6,71.3c1-1.5,2.2-2.9,3.3-4.2c0.6-0.7,1.2-1.3,1.8-2c0.6-0.6,1.3-1.3,1.9-1.9l-0.1,0.1
		c0.5-0.7,1.1-1.4,1.6-2.1c0.6-0.7,1.1-1.4,1.7-2.1c1.2-1.3,2.4-2.7,3.8-3.8c-0.7,1.7-1.6,3.2-2.5,4.8c-0.5,0.8-1,1.5-1.4,2.2
		c-0.5,0.7-1,1.5-1.5,2.2l-0.1,0.1L57,64.7c-0.7,0.6-1.3,1.2-2,1.8c-0.7,0.6-1.3,1.2-2.1,1.7C51.6,69.3,50.2,70.4,48.6,71.3z"/>
</g>
</svg>
