<?xml version="1.0" encoding="utf-8"?>
<!-- Generator: Adobe Illustrator 19.2.1, SVG Export Plug-In . SVG Version: 6.00 Build 0)  -->
<svg version="1.1" id="Calque_1" xmlns="http://www.w3.org/2000/svg" xmlns:xlink="http://www.w3.org/1999/xlink" x="0px" y="0px"
	 viewBox="0 0 141.5 132.061" enable-background="new 0 0 141.5 132.061" xml:space="preserve">
<g>
	<g>
		<path fill="#FFFFFF" d="M105.608,93.164c0-0.443-0.017-0.89-0.165-1.333l-8.436-25.309c-0.574-1.725-2.181-2.885-3.999-2.885
			H76.135v8.436h13.832l7.032,21.091h-58.6l7.032-21.091h13.832v-8.436H42.389c-1.818,0-3.425,1.16-3.999,2.885l-8.436,25.309
			c-0.148,0.443-0.165,0.89-0.165,1.333c-0.055,0-0.055,21.091-0.055,21.091c0,2.333,1.886,4.218,4.218,4.218h67.492
			c2.333,0,4.218-1.886,4.218-4.218C105.663,114.255,105.663,93.164,105.608,93.164z"/>
		<path fill="#FFFFFF" d="M84.572,59.014c1.093,0,2.185-0.401,2.982-1.194c1.645-1.645,1.645-4.319,0-5.965L67.699,32L47.844,51.855
			c-1.645,1.645-1.645,4.319,0,5.965c0.797,0.797,1.89,1.194,2.982,1.194c1.093,0,2.185-0.397,2.982-1.194l9.672-9.672v28.144
			c0,2.328,1.89,4.218,4.218,4.218s4.218-1.89,4.218-4.218V48.147l9.672,9.672C82.387,58.617,83.479,59.014,84.572,59.014z"/>
	</g>
</g>
</svg>
