<?xml version="1.0" encoding="utf-8"?>
<!-- Generator: Adobe Illustrator 16.0.0, SVG Export Plug-In . SVG Version: 6.00 Build 0)  -->
<!DOCTYPE svg PUBLIC "-//W3C//DTD SVG 1.1//EN" "http://www.w3.org/Graphics/SVG/1.1/DTD/svg11.dtd">
<svg version="1.1" id="Calque_1" xmlns:sketch="http://www.bohemiancoding.com/sketch/ns"
	 xmlns="http://www.w3.org/2000/svg" xmlns:xlink="http://www.w3.org/1999/xlink" x="0px" y="0px" width="396px" height="871px"
	 viewBox="0 0 396 871" enable-background="new 0 0 396 871" xml:space="preserve">
<filter  width="200%" height="200%" x="-50%" y="-50%" filterUnits="objectBoundingBox" id="filter-1">
	<feGaussianBlur  stdDeviation="2" in="SourceGraphic" result="blur"></feGaussianBlur>
</filter>
<title>Car</title>
<desc>Created with Sketch.</desc>
<g id="Stroke-1" filter="url(#filter-1)">
	<path fill="none" stroke="#F1304E" stroke-width="3" d="M28.797,111.968c0,0,10.021-34.698,19.563-44.544
		c0,0,6.203-10.785,12.883-14.067c0,0,47.239-28.133,83.981-42.668c0,0,53.92-10.315,116.428,4.689c0,0,60.6,26.257,70.144,35.167
		c0,0,18.609,8.909,34.355,58.142v96.122c0,0-1.432,8.44-2.863,22.507s-0.954,369.014-0.954,369.014s8.589,26.258,8.589,33.291
		v81.117c0,0-17.178,89.089-26.721,97.06c0,0-6.203,20.631-40.56,29.071c0,0-58.691,23.444-73.482,26.257h-59.168
		c0,0-83.027-24.382-97.342-34.697c0,0-22.904-3.282-29.107-41.262c0,0-15.269-50.171-18.132-73.146v-84.399
		c0,0,6.68-30.478,7.634-35.167c0.955-4.688-1.431-366.669-1.431-366.669s-5.726-13.129-6.203-18.287
		C25.934,204.339,28.797,111.968,28.797,111.968L28.797,111.968z"/>
</g>
<g id="Group-7" transform="translate(42.990385, 21.506550)">
	<path id="Stroke-3" fill="none" stroke="#4F5A7A" stroke-width="0.75" d="M0.121,85.773c0,0,10.975-23.913,19.086-30.009
		c8.112-6.095,52.965-35.635,60.6-46.419c0,0-41.513,16.88-62.031,32.822c0,0-14.792,16.88-17.655,26.727V85.773L0.121,85.773z"/>
	<path id="Stroke-5" fill="none" stroke="#4F5A7A" stroke-width="0.75" d="M309.401,83.81c0,0-10.975-23.914-19.086-30.009
		c-8.112-6.096-52.966-35.636-60.601-46.42c0,0,41.514,16.88,62.031,32.822c0,0,14.793,16.88,17.655,26.726V83.81L309.401,83.81z"/>
</g>
<g id="Group-12" transform="translate(51.625000, 25.257642)">
	<path id="Stroke-8" fill="none" stroke="#4F5A7A" stroke-width="0.75" d="M8.188,213.779c0,0-5.119-9.892-6.68-16.411
		C-2.467,188.305,6.794,64.557,12.26,50.783C44.772,29.038,69.585,8.482,69.585,8.482S33,45.918,8.188,213.779L8.188,213.779z"/>
	<path id="Stroke-10" fill="none" stroke="#4F5A7A" stroke-width="0.75" d="M285.688,213.047c0,0,5.123-9.892,6.681-16.411
		c3.974-9.063-5.287-132.811-10.75-146.585C249.103,28.305,224.29,7.749,224.29,7.749S260.875,45.185,285.688,213.047
		L285.688,213.047z"/>
</g>
<g id="Group-17" transform="translate(60.076923, 197.807860)">
	<path id="Stroke-13" fill="none" stroke="#4F5A7A" d="M0.054,45.918c0,0,48.987-38.76,141.24-38.76
		c92.254,0,134.244,38.76,134.244,38.76v71.897l-13.361,75.645c0,0-58.718-23.133-120.883-23.133
		c-62.161,0-125.971,25.635-125.971,25.635l-12.089-72.52L0.054,45.918L0.054,45.918z"/>
	<path id="Stroke-15" fill="none" stroke="#4F5A7A" d="M15.323,195.961c0,0,16.541,308.832,19.724,366.35
		c7.634,84.403,211.861,81.279,206.134-5.623c5.089-84.399,20.995-363.229,20.995-363.229s-66.165-24.945-123.429-23.103
		C81.489,172.198,15.323,195.961,15.323,195.961L15.323,195.961z"/>
</g>
<g id="Group-36" transform="translate(51.625000, 236.318777)">
	<path id="Stroke-18" fill="none" stroke="#4F5A7A" d="M25.382,187.433c0,0,7.322-4.043,20.56-8.991
		c20.881-7.81,56.481-17.874,101.261-17.874c73.163,0,121.78,23.186,121.78,23.186"/>
	<path id="Stroke-20" fill="none" stroke="#4F5A7A" d="M38.584,433.211h216.049"/>
	<path id="Stroke-22" fill="none" stroke="#4F5A7A" d="M245.178,174.967v258.244"/>
	<path id="Stroke-24" fill="none" stroke="#4F5A7A" d="M47.95,176.862v256.35"/>
	<path id="Stroke-26" fill="none" stroke="#4F5A7A" d="M47.95,295.607H245.18"/>
	<path id="Stroke-28" fill="none" stroke="#4F5A7A" d="M138.691,281.236h15.983"/>
	<path id="Stroke-30" fill="none" stroke="#4F5A7A" d="M138.691,286.394h15.983"/>
	<path id="Stroke-32" fill="none" stroke="#4F5A7A" d="M8.506,7.407L0.543,43.042v38.76c0,0,22.594,90.027,20.052,166.923
		l1.431,343.383"/>
	<path id="Stroke-34" fill="none" stroke="#4F5A7A" d="M270.627,593.669l2.547-344.335c0,0,7.001-143.787,19.724-168.169
		l0.432-38.138l-9.341-35.62"/>
</g>
<g id="Group-45" transform="translate(0.000000, 262.576419)">
	<path id="Stroke-37" fill="none" stroke="#4F5A7A" d="M344.955,16.77c0,0,9.726-9.381,17.688-8.755"/>
	<path id="Stroke-39" fill="none" stroke="#4F5A7A" d="M52.168,16.782c0,0-9.627-10.079-19.281-8.796"/>
	<path id="Stroke-41" fill="none" stroke="#4F5A7A" d="M344.955,22.396l50.464,48.138v15.004l-37.535-15.627l-0.638-15.942h-12.723
		L344.955,22.396L344.955,22.396z"/>
	<path id="Stroke-43" fill="none" stroke="#4F5A7A" d="M51.372,23.353L0.908,71.49v15.004l37.535-15.627l0.638-15.942h12.723
		L51.372,23.353L51.372,23.353z"/>
</g>
<g id="Group-60" transform="translate(25.721154, 310.340611)">
	<path id="Stroke-46" fill="none" stroke="#4F5A7A" d="M20.261,7.403v227.882c0,0-2.542,98.113,27.668,156.26"/>
	<path id="Stroke-48" fill="none" stroke="#4F5A7A" d="M324.851,7.403v227.882c0,0,2.829,99.393-27.381,157.538"/>
	<path id="Stroke-50" fill="none" stroke="#4F5A7A" d="M8.253,157.809l11.986,6.246"/>
	<path id="Stroke-52" fill="none" stroke="#4F5A7A" d="M324.922,164.055l11.616-6.246l-21.225,182.112
		c0,0,13.028,14.806,16.846,15.428c3.817,0.623,13.04-21.884,13.04-21.884"/>
	<path id="Stroke-54" fill="none" stroke="#4F5A7A" d="M0.636,333.466c0,0,9.223,22.506,13.04,21.884
		c3.817-0.623,16.846-15.429,16.846-15.429"/>
	<path id="Stroke-56" fill="none" stroke="#4F5A7A" d="M47.308,369.105l17.178-9.918h216.048l15.998,9.918"/>
	<path id="Stroke-58" fill="none" stroke="#4F5A7A" d="M70.158,518.005L70.158,518.005c0,0,56.252,37.147,107.748,34.871
		c51.495-2.281,96.661-34.792,96.661-34.792"/>
</g>
</svg>
