<?xml version="1.0" encoding="utf-8"?>
<!-- Generator: Adobe Illustrator 19.2.1, SVG Export Plug-In . SVG Version: 6.00 Build 0)  -->
<svg version="1.1" id="Calque_1" xmlns="http://www.w3.org/2000/svg" xmlns:xlink="http://www.w3.org/1999/xlink" x="0px" y="0px"
	 viewBox="0 0 159.455 124.485" enable-background="new 0 0 159.455 124.485" xml:space="preserve">
<g>
	<path fill="#FFFFFF" d="M47.779,68.65L47.779,68.65c-0.912-1.036-2.523-1.047-3.45-0.024l-1.176,1.297c0,0-1.608,2.261-2.211-1.256
		l-3.165-14.219c0,0-1.105-5.125,2.713-2.914l12.862,6.532c0,0,3.115,1.658,0.352,2.964l-0.463,0.267
		c-1.102,0.636-1.497,2.052-0.852,3.148c1.138,1.934,2.772,5.377,3.827,10.502c0,0,1.306,5.728-1.708,9.948
		c0,0-9.697,13.616-5.477,18.339c0,0,3.768,5.426,6.331,8.139c0.436,0.462-0.402,0.904-1.357,1.909c0,0-0.65,0.85-1.566,1.485
		c-1.029,0.712-2.445,0.428-3.16-0.598c-1.673-2.403-5.292-7.677-6.227-9.679c-1.049-1.648-3.725-6.417,1.311-14.863
		c0.058-0.098,0.124-0.193,0.197-0.281c0.804-0.983,6.131-7.755,5.527-13.796c0,0-0.289-3.609-2.043-6.542
		C47.968,68.881,47.877,68.761,47.779,68.65z"/>
	<path fill="#FFFFFF" d="M77.073,68.65L77.073,68.65c-0.912-1.036-2.523-1.047-3.45-0.024l-1.176,1.297c0,0-1.608,2.261-2.211-1.256
		l-3.165-14.219c0,0-1.105-5.125,2.713-2.914l12.862,6.532c0,0,3.115,1.658,0.352,2.964l-0.463,0.267
		c-1.102,0.636-1.497,2.052-0.852,3.148c1.138,1.934,2.772,5.377,3.827,10.502c0,0,1.306,5.728-1.708,9.948
		c0,0-9.697,13.616-5.477,18.339c0,0,3.768,5.426,6.331,8.139c0.436,0.462-0.402,0.904-1.357,1.909c0,0-0.65,0.85-1.566,1.485
		c-1.029,0.712-2.445,0.428-3.16-0.598c-1.673-2.403-5.292-7.677-6.227-9.679c-1.049-1.648-3.725-6.417,1.311-14.863
		c0.058-0.098,0.124-0.193,0.197-0.281c0.804-0.983,6.131-7.755,5.527-13.796c0,0-0.289-3.609-2.043-6.542
		C77.262,68.881,77.171,68.761,77.073,68.65z"/>
	<path fill="#FFFFFF" d="M106.367,68.65L106.367,68.65c-0.912-1.036-2.523-1.047-3.45-0.024l-1.176,1.297
		c0,0-1.608,2.261-2.211-1.256l-3.165-14.219c0,0-1.105-5.125,2.713-2.914l12.862,6.532c0,0,3.115,1.658,0.352,2.964l-0.463,0.267
		c-1.102,0.636-1.497,2.052-0.852,3.148c1.138,1.934,2.772,5.377,3.827,10.502c0,0,1.306,5.728-1.708,9.948
		c0,0-9.697,13.616-5.477,18.339c0,0,3.768,5.426,6.331,8.139c0.436,0.462-0.402,0.904-1.357,1.909c0,0-0.65,0.85-1.566,1.485
		c-1.029,0.712-2.445,0.428-3.16-0.598c-1.673-2.403-5.292-7.677-6.227-9.679c-1.049-1.648-3.725-6.417,1.311-14.863
		c0.058-0.098,0.124-0.193,0.197-0.281c0.804-0.983,6.131-7.755,5.527-13.796c0,0-0.289-3.609-2.043-6.542
		C106.556,68.881,106.466,68.761,106.367,68.65z"/>
	<path fill="none" stroke="#FFFFFF" stroke-width="7" stroke-miterlimit="10" d="M134.662,99.092H24.793
		c-6.636,0-12.065-5.429-12.065-12.065V40.732c0-6.636,5.429-12.065,12.065-12.065h109.869c6.636,0,12.065,5.429,12.065,12.065
		v46.294C146.727,93.663,141.298,99.092,134.662,99.092z"/>
</g>
</svg>
