<?xml version="1.0" encoding="utf-8"?>
<!-- Generator: Adobe Illustrator 19.2.1, SVG Export Plug-In . SVG Version: 6.00 Build 0)  -->
<svg version="1.1" id="Calque_1" xmlns="http://www.w3.org/2000/svg" xmlns:xlink="http://www.w3.org/1999/xlink" x="0px" y="0px"
	 viewBox="0 0 141.5 132.061" enable-background="new 0 0 141.5 132.061" xml:space="preserve">
<g>
	<g id="c100_arrow">
		<path fill="#FFFFFF" d="M14.445,85.84c0.004,6.005,4.879,10.87,10.884,10.877L87.17,96.71l-16.716,16.72
			c-4.527,4.53-4.759,11.646-0.512,15.901c4.251,4.237,11.368,4.015,15.901-0.515l34.914-34.921
			c4.541-4.527,4.77-11.646,0.515-15.898c-0.116-0.102-0.24-0.18-0.353-0.282c-0.145-0.152-0.247-0.332-0.399-0.49L86.073,42.783
			c-4.474-4.467-11.537-4.643-15.785-0.392c-4.251,4.251-4.068,11.318,0.392,15.792l16.776,16.773H25.33
			C19.318,74.952,14.445,79.821,14.445,85.84z"/>
	</g>
	<g id="Capa_1_46_">
	</g>
</g>
</svg>
