<?xml version="1.0" encoding="utf-8"?>
<!-- Generator: Adobe Illustrator 19.2.1, SVG Export Plug-In . SVG Version: 6.00 Build 0)  -->
<svg version="1.1" id="Calque_1" xmlns="http://www.w3.org/2000/svg" xmlns:xlink="http://www.w3.org/1999/xlink" x="0px" y="0px"
	 viewBox="0 0 159.455 124.485" enable-background="new 0 0 159.455 124.485" xml:space="preserve">
<g>
	<path fill="#FFFFFF" stroke="#FFFFFF" stroke-width="4" stroke-miterlimit="10" d="M79.84,16
		c-25.482,0-46.213,20.731-46.213,46.214s20.731,46.214,46.213,46.214c25.483,0,46.214-20.731,46.214-46.214S105.323,16,79.84,16z
		 M79.84,105.172c-23.687,0-42.958-19.271-42.958-42.958s19.27-42.958,42.958-42.958s42.958,19.271,42.958,42.958
		S103.527,105.172,79.84,105.172z"/>
	<path fill="#FFFFFF" d="M92.665,51.171c-0.636-0.636-1.666-0.636-2.302,0l-9.633,9.633l-9.633-9.633
		c-0.636-0.636-1.666-0.636-2.302,0c-0.636,0.636-0.636,1.666,0,2.302l9.633,9.633l-9.633,9.633c-0.636,0.636-0.636,1.666,0,2.302
		c0.318,0.318,0.734,0.477,1.151,0.477c0.416,0,0.833-0.159,1.151-0.477l9.633-9.633l9.633,9.633
		c0.318,0.318,0.734,0.477,1.151,0.477c0.416,0,0.833-0.159,1.151-0.477c0.636-0.636,0.636-1.666,0-2.302l-9.633-9.633l9.633-9.633
		C93.3,52.837,93.3,51.807,92.665,51.171z"/>
</g>
</svg>
