<?xml version="1.0" encoding="utf-8"?>
<!-- Generator: Adobe Illustrator 19.2.1, SVG Export Plug-In . SVG Version: 6.00 Build 0)  -->
<svg version="1.1" id="Calque_1" xmlns="http://www.w3.org/2000/svg" xmlns:xlink="http://www.w3.org/1999/xlink" x="0px" y="0px"
	 viewBox="0 0 128 132.061" enable-background="new 0 0 128 132.061" xml:space="preserve">
<path fill="#FFFFFF" d="M114.141,78.649c-0.157-0.102-0.347-0.141-0.534-0.141l-5.276,0V59.724
	c0-20.832-16.888-37.719-37.719-37.719h-0.645V22c-0.064,0-0.127,0.004-0.19,0.005h-0.654c-0.01,0-0.018,0.009-0.025,0.017
	c-20.618,0.464-37.192,17.31-37.192,38.039v53.692c0,1.206,0.978,2.184,2.184,2.184h17.389c1.302,0,2.357-1.055,2.357-2.357V60.062
	c0-8.604,6.736-15.632,15.222-16.104v0.064c0-0.026,0.012-0.048,0.028-0.066c0.292-0.016,0.586-0.025,0.882-0.025V43.92h0.684
	c8.82,0,15.97,7.15,15.97,15.97v18.619l-4.224,0c-0.187,0-0.377,0.039-0.534,0.141c-0.412,0.266-0.53,0.776-0.331,1.177
	l15.652,31.666c0.155,0.311,0.471,0.508,0.818,0.508c0.348,0,0.664-0.197,0.819-0.508l15.652-31.666
	C114.671,79.425,114.553,78.915,114.141,78.649z"/>
</svg>
