<?xml version="1.0" encoding="utf-8"?>
<!-- Generator: Adobe Illustrator 19.2.1, SVG Export Plug-In . SVG Version: 6.00 Build 0)  -->
<svg version="1.1" id="Calque_1" xmlns="http://www.w3.org/2000/svg" xmlns:xlink="http://www.w3.org/1999/xlink" x="0px" y="0px"
	 viewBox="0 0 128 132.061" enable-background="new 0 0 128 132.061" xml:space="preserve">
<g>
	<g>
		<path fill="#FFFFFF" d="M94.904,20.485c-0.261-0.261-0.646-0.351-0.996-0.233L58.416,32.263c-0.45,0.152-0.744,0.623-0.635,1.132
			c0.042,0.194,0.155,0.366,0.295,0.506l4.651,4.651c-5.792,6.095-9.348,14.336-9.348,23.408v46.551c0,1.85,1.5,3.349,3.349,3.349
			h13.521c1.499,0,2.714-1.215,2.714-2.714V61.961c0-3.664,1.371-7.006,3.624-9.548l0.184,0.184l4.715,4.715
			c0.14,0.14,0.312,0.253,0.506,0.295c0.509,0.11,0.98-0.185,1.132-0.635L95.137,21.48C95.254,21.13,95.164,20.745,94.904,20.485z"
			/>
	</g>
</g>
</svg>
