<?xml version="1.0" encoding="utf-8"?>
<!-- Generator: Adobe Illustrator 19.2.1, SVG Export Plug-In . SVG Version: 6.00 Build 0)  -->
<svg version="1.1" id="Calque_1" xmlns="http://www.w3.org/2000/svg" xmlns:xlink="http://www.w3.org/1999/xlink" x="0px" y="0px"
	 viewBox="0 0 128 132.061" enable-background="new 0 0 128 132.061" xml:space="preserve">
<path fill="#FFFFFF" d="M107.964,67.296L79.03,52.994c-0.366-0.181-0.832-0.074-1.076,0.303c-0.093,0.144-0.129,0.317-0.129,0.488
	v5.744c0,0.044-0.036,0.08-0.08,0.08h-1.158c-4.447,0-8.661,0.993-12.436,2.767v-13.48h0.081l5.744,0
	c0.171,0,0.344-0.036,0.488-0.129c0.377-0.243,0.484-0.709,0.303-1.076L56.465,18.757c-0.142-0.285-0.431-0.464-0.748-0.464
	c-0.318,0-0.607,0.18-0.749,0.464L40.667,47.691c-0.181,0.366-0.074,0.833,0.303,1.076c0.144,0.093,0.317,0.129,0.488,0.129l5.477,0
	h0.347V90.09c0,0.101,0.01,0.2,0.027,0.296v18.75c0,1.164,0.943,2.107,2.107,2.107c0.046,0.003,0.091,0.007,0.138,0.007
	l-0.007-0.007h12.819c1.001,0,1.813-0.812,1.813-1.813V88.889c0-6.853,5.556-12.409,12.409-12.409h1.158
	c0.044,0,0.08,0.036,0.08,0.08v5.744c0,0.171,0.036,0.344,0.129,0.488c0.243,0.377,0.709,0.484,1.076,0.303l28.934-14.302
	c0.285-0.142,0.464-0.431,0.464-0.748C108.429,67.726,108.249,67.437,107.964,67.296z"/>
</svg>
