<?xml version="1.0" encoding="utf-8"?>
<!-- Generator: Adobe Illustrator 19.2.1, SVG Export Plug-In . SVG Version: 6.00 Build 0)  -->
<svg version="1.1" id="Calque_1" xmlns="http://www.w3.org/2000/svg" xmlns:xlink="http://www.w3.org/1999/xlink" x="0px" y="0px"
	 viewBox="0 0 128 132.061" enable-background="new 0 0 128 132.061" xml:space="preserve">
<g>
	<g>
		<path fill="#FFFFFF" d="M78.882,49.145L64.74,20.534c-0.14-0.281-0.426-0.459-0.739-0.459c-0.314,0-0.6,0.178-0.74,0.459
			l-14.142,28.61c-0.179,0.362-0.073,0.823,0.299,1.064c0.142,0.092,0.313,0.127,0.483,0.127l5.416,0h0.343v59.887
			c0,0.974,0.789,1.763,1.763,1.763h13.126c0.99,0,1.793-0.803,1.793-1.793V50.336h0.08l5.679,0c0.169,0,0.34-0.036,0.483-0.127
			C78.955,49.968,79.061,49.507,78.882,49.145z"/>
	</g>
</g>
</svg>
