<?xml version="1.0" encoding="utf-8"?>
<!-- Generator: Adobe Illustrator 19.2.1, SVG Export Plug-In . SVG Version: 6.00 Build 0)  -->
<svg version="1.1" id="Calque_1" xmlns="http://www.w3.org/2000/svg" xmlns:xlink="http://www.w3.org/1999/xlink" x="0px" y="0px"
	 viewBox="0 0 128 132.061" enable-background="new 0 0 128 132.061" xml:space="preserve">
<path fill="#FFFFFF" d="M112.375,42.229L78.316,25.394c-0.431-0.214-0.98-0.087-1.266,0.356c-0.109,0.169-0.152,0.373-0.152,0.575
	v6.761c0,0.052-0.042,0.094-0.094,0.094h-1.363c-19.034,0-34.465,15.431-34.465,34.465v48.117c0,1.37,1.11,2.48,2.48,2.48l0,0
	c0.054,0.003,0.107,0.008,0.162,0.008l-0.008-0.008H58.7c1.179,0,2.134-0.956,2.134-2.134V67.646c0-8.067,6.54-14.607,14.607-14.607
	h1.363c0.052,0,0.094,0.042,0.094,0.094v6.761c0,0.201,0.042,0.405,0.152,0.575c0.286,0.443,0.835,0.57,1.266,0.356l34.059-16.835
	c0.335-0.167,0.547-0.507,0.547-0.88C112.921,42.736,112.71,42.396,112.375,42.229z"/>
</svg>
