<?xml version="1.0" encoding="utf-8"?>
<!-- Generator: Adobe Illustrator 19.2.1, SVG Export Plug-In . SVG Version: 6.00 Build 0)  -->
<svg version="1.1" id="Calque_1" xmlns="http://www.w3.org/2000/svg" xmlns:xlink="http://www.w3.org/1999/xlink" x="0px" y="0px"
	 viewBox="0 0 118.545 132.061" enable-background="new 0 0 118.545 132.061" xml:space="preserve">
<path fill="#FFFFFF" d="M59.273,20.426c-25.187,0-45.604,20.418-45.604,45.604c0,25.187,20.418,45.604,45.604,45.604
	c25.187,0,45.604-20.418,45.604-45.604C104.877,40.844,84.459,20.426,59.273,20.426z M62,69.563c0,0.514,0.423,1.382,0.056,1.772
	L48.281,87.262c-0.722,0.722-1.842,1.083-2.787,1.083c-0.946,0-1.981-0.361-2.703-1.083c-1.444-1.444-2.255-3.783-0.811-5.227
	L55,67.794V39.339c0-2.041,1.659-3.696,3.7-3.696c2.041,0,3.3,1.283,3.3,3.324V69.563z"/>
</svg>
