<?xml version="1.0" encoding="utf-8"?>
<!-- Generator: Adobe Illustrator 19.2.1, SVG Export Plug-In . SVG Version: 6.00 Build 0)  -->
<svg version="1.1" id="Calque_1" xmlns="http://www.w3.org/2000/svg" xmlns:xlink="http://www.w3.org/1999/xlink" x="0px" y="0px"
	 viewBox="0 0 159.455 124.485" enable-background="new 0 0 159.455 124.485" xml:space="preserve">
<g>
	<path fill="#FFFFFF" d="M48.667,43.924H22.485c-0.55,0-1-0.45-1-1V16.742c0-0.55,0.45-1,1-1h26.182c0.55,0,1,0.45,1,1v26.182
		C49.667,43.474,49.217,43.924,48.667,43.924z"/>
	<path fill="#FFFFFF" d="M136.97,43.924H54.424c-0.55,0-1-0.45-1-1V16.742c0-0.55,0.45-1,1-1h82.545c0.55,0,1,0.45,1,1v26.182
		C137.97,43.474,137.52,43.924,136.97,43.924z"/>
	<path fill="#FFFFFF" d="M48.667,76.333H22.485c-0.55,0-1-0.45-1-1V49.152c0-0.55,0.45-1,1-1h26.182c0.55,0,1,0.45,1,1v26.182
		C49.667,75.883,49.217,76.333,48.667,76.333z"/>
	<path fill="#FFFFFF" d="M136.97,76.333H54.424c-0.55,0-1-0.45-1-1V49.152c0-0.55,0.45-1,1-1h82.545c0.55,0,1,0.45,1,1v26.182
		C137.97,75.883,137.52,76.333,136.97,76.333z"/>
	<path fill="#FFFFFF" d="M48.667,108.742H22.485c-0.55,0-1-0.45-1-1V81.561c0-0.55,0.45-1,1-1h26.182c0.55,0,1,0.45,1,1v26.182
		C49.667,108.292,49.217,108.742,48.667,108.742z"/>
	<path fill="#FFFFFF" d="M136.97,108.742H54.424c-0.55,0-1-0.45-1-1V81.561c0-0.55,0.45-1,1-1h82.545c0.55,0,1,0.45,1,1v26.182
		C137.97,108.292,137.52,108.742,136.97,108.742z"/>
</g>
</svg>
