<?xml version="1.0" encoding="utf-8"?>
<!-- Generator: Adobe Illustrator 19.2.1, SVG Export Plug-In . SVG Version: 6.00 Build 0)  -->
<svg version="1.1" id="Calque_1" xmlns="http://www.w3.org/2000/svg" xmlns:xlink="http://www.w3.org/1999/xlink" x="0px" y="0px"
	 viewBox="0 0 97.9 103.3" style="enable-background:new 0 0 97.9 103.3;" xml:space="preserve">
<style type="text/css">
	.st0{fill:none;stroke:#30BAD5;stroke-width:5;stroke-miterlimit:10;}
	.st1{opacity:0.15;fill:none;stroke:#FFFFFF;stroke-width:0.5;stroke-miterlimit:10;}
	.st2{fill:#30BAD5;}
</style>
<polygon class="st0" points="50.9,14.2 85.5,34.2 85.5,74.2 50.9,94.2 16.3,74.2 16.3,34.2 "/>
<polygon class="st1" points="50.9,21.5 79.3,37.9 79.3,70.6 50.9,87 22.5,70.6 22.5,37.9 "/>
<g>
	<g>
		<path class="st2" d="M61.3,52.1h-1.5v-5.1c0-2.6-1-4.9-2.6-6.6c-1.6-1.7-3.9-2.8-6.4-2.8c-2.5,0-4.8,1.1-6.4,2.8
			c-1.6,1.7-2.6,4.1-2.6,6.6v5.1h-1.5c-0.6,0-1.2,0.5-1.2,1.2v13.6c0,0.6,0.5,1.2,1.2,1.2h21.1c0.6,0,1.2-0.5,1.2-1.2V53.2
			C62.4,52.6,61.9,52.1,61.3,52.1L61.3,52.1z M46,46.9c0-1.5,0.6-2.8,1.4-3.7c0.9-0.9,2-1.5,3.3-1.5c1.3,0,2.4,0.5,3.3,1.5
			c0.9,0.9,1.4,2.2,1.4,3.7v5.1H46V46.9z"/>
	</g>
</g>
</svg>
