<?xml version="1.0" encoding="utf-8"?>
<!-- Generator: Adobe Illustrator 19.2.1, SVG Export Plug-In . SVG Version: 6.00 Build 0)  -->
<svg version="1.1" id="Calque_1" xmlns="http://www.w3.org/2000/svg" xmlns:xlink="http://www.w3.org/1999/xlink" x="0px" y="0px"
	 viewBox="0 0 141.5 132.061" enable-background="new 0 0 141.5 132.061" xml:space="preserve">
<g>
	<g id="Layer_5_31_">
		<path fill="#FFFFFF" d="M123.658,32.758H17.843c-2.647,0-4.812,2.166-4.812,4.812v70.04c0,2.647,2.165,4.812,4.812,4.812h105.815
			c2.646,0,4.812-2.165,4.812-4.812V37.57C128.469,34.924,126.304,32.758,123.658,32.758z M88.334,75.932
			c8.929,6.02,32.002,23.881,32.002,23.881c0.919,0.623,0.985,2.219,0.525,3.17c-0.46,0.952-1.898,1.531-2.817,0.908
			c0,0-24.56-17.733-33.958-24.166c-0.52-0.356-0.981,0.071-0.981,0.071l-10.305,8.222c-0.563,0.462-1.306,0.717-2.091,0.717
			c-0.784,0-1.527-0.255-2.091-0.717L58.196,79.7c0,0-0.359-0.313-0.767-0.03c-9.29,6.448-33.743,24.221-33.743,24.221
			c-0.919,0.623-2.667,0.044-3.126-0.908c-0.46-0.951-0.394-2.548,0.525-3.17c0,0,23.102-17.805,31.889-23.794
			c0.502-0.342-0.025-0.845-0.025-0.845L20.365,45.837c-1.185-0.971-1.539-2.71-0.807-3.96c0.435-0.743,1.2-1.187,2.047-1.187
			c0.596,0,1.198,0.224,1.694,0.631l46.338,40.611c0.274,0.224,0.665,0.353,1.074,0.353c0.409,0,0.8-0.129,1.074-0.353
			l46.338-40.611c0.496-0.407,1.098-0.631,1.694-0.631c0.847,0,1.612,0.444,2.047,1.187c0.731,1.249,0.377,2.989-0.807,3.96
			l-32.67,29.428C88.386,75.265,87.926,75.656,88.334,75.932z"/>
	</g>
</g>
</svg>
