<?xml version="1.0" encoding="utf-8"?>
<!-- Generator: Adobe Illustrator 19.2.1, SVG Export Plug-In . SVG Version: 6.00 Build 0)  -->
<svg version="1.1" id="Calque_1" xmlns="http://www.w3.org/2000/svg" xmlns:xlink="http://www.w3.org/1999/xlink" x="0px" y="0px"
	 viewBox="0 0 118.545 132.061" enable-background="new 0 0 118.545 132.061" xml:space="preserve">
<g>
	<path fill="#FFFFFF" d="M99.871,53.447c-17.907-7.39-73.709-28.6-73.709-28.6s-10.463-3.72-1.395,4.302S70.108,66.12,70.108,66.12
		s3.953,4.069,9.19,1.509l27.316-7.206C106.614,60.423,114.52,59.493,99.871,53.447z"/>
	<path fill="#FFFFFF" d="M68.016,68.474L19.419,28.102c-3.883-3.337,0,5.115,0,5.115s25.802,65.712,33.25,78.127
		c6.278,10.463,9.301-3.72,9.301-3.72s7.155-29.089,8.836-32.786C72.114,71.962,68.016,68.474,68.016,68.474z"/>
</g>
</svg>
