<?xml version="1.0" encoding="utf-8"?>
<!-- Generator: Adobe Illustrator 19.2.1, SVG Export Plug-In . SVG Version: 6.00 Build 0)  -->
<svg version="1.1" id="Calque_1" xmlns="http://www.w3.org/2000/svg" xmlns:xlink="http://www.w3.org/1999/xlink" x="0px" y="0px"
	 viewBox="0 0 141.5 132.061" enable-background="new 0 0 141.5 132.061" xml:space="preserve">
<g>
	<path fill="#FFFFFF" d="M53.291,112.53L53.291,112.53c-4.906,0-8.92-4.014-8.92-8.92V28.45c0-4.906,4.014-8.92,8.92-8.92h0
		c4.906,0,8.92,4.014,8.92,8.92v75.161C62.211,108.516,58.197,112.53,53.291,112.53z"/>
	<path fill="#FFFFFF" d="M84.291,112.53L84.291,112.53c-4.906,0-8.92-4.014-8.92-8.92V28.45c0-4.906,4.014-8.92,8.92-8.92h0
		c4.906,0,8.92,4.014,8.92,8.92v75.161C93.211,108.516,89.197,112.53,84.291,112.53z"/>
</g>
</svg>
