<?xml version="1.0" encoding="utf-8"?>
<!-- Generator: Adobe Illustrator 19.2.1, SVG Export Plug-In . SVG Version: 6.00 Build 0)  -->
<svg version="1.1" id="Calque_1" xmlns="http://www.w3.org/2000/svg" xmlns:xlink="http://www.w3.org/1999/xlink" x="0px" y="0px"
	 viewBox="0 0 19 19" style="enable-background:new 0 0 19 19;" xml:space="preserve">
<style type="text/css">
	.st0{fill:#00D8EF;}
	.st1{fill:none;stroke:#00D8EF;stroke-miterlimit:10;}
</style>
<g>
	<g>
		<path class="st0" d="M7.9,13.5L7.9,13.5c-0.4,0-0.8-0.3-0.8-0.8V6.3c0-0.4,0.3-0.8,0.8-0.8l0,0c0.4,0,0.8,0.3,0.8,0.8v6.5
			C8.7,13.2,8.3,13.5,7.9,13.5z"/>
		<path class="st0" d="M10.6,13.5L10.6,13.5c-0.4,0-0.8-0.3-0.8-0.8V6.3c0-0.4,0.3-0.8,0.8-0.8l0,0c0.4,0,0.8,0.3,0.8,0.8v6.5
			C11.3,13.2,11,13.5,10.6,13.5z"/>
	</g>
	<g>
		<path class="st1" d="M9.3,16.9c-4.1,0-7.4-3.3-7.4-7.4s3.3-7.4,7.4-7.4s7.4,3.3,7.4,7.4S13.4,16.9,9.3,16.9z"/>
	</g>
</g>
</svg>
