<?xml version="1.0" encoding="utf-8"?>
<!-- Generator: Adobe Illustrator 19.2.1, SVG Export Plug-In . SVG Version: 6.00 Build 0)  -->
<svg version="1.1" id="Calque_1" xmlns="http://www.w3.org/2000/svg" xmlns:xlink="http://www.w3.org/1999/xlink" x="0px" y="0px"
	 viewBox="0 0 141.5 132.061" enable-background="new 0 0 141.5 132.061" xml:space="preserve">
<g>
	<path fill="#FFFFFF" d="M38.192,66.234c-0.074,0-0.074,0-0.149,0v54.352c0,2.45,2.005,4.455,4.455,4.455h48.635
		c2.45,0,4.455-2.005,4.455-4.455c0,0-0.074-54.352-0.148-54.352H38.192z M53.934,109.671c0,2.08-1.634,3.713-3.713,3.713
		c-2.079,0-3.713-1.633-3.713-3.713V81.01c0-2.079,1.634-3.713,3.713-3.713c2.079,0,3.713,1.634,3.713,3.713V109.671z
		 M70.566,109.671c0,2.08-1.634,3.713-3.713,3.713c-2.079,0-3.713-1.633-3.713-3.713V81.01c0-2.079,1.634-3.713,3.713-3.713
		c2.079,0,3.713,1.634,3.713,3.713V109.671z M87.199,109.671c0,2.08-1.633,3.713-3.713,3.713c-2.078,0-3.713-1.633-3.713-3.713
		V81.01c0-2.079,1.634-3.713,3.713-3.713c2.08,0,3.713,1.634,3.713,3.713V109.671z"/>
	<path fill="#FFFFFF" d="M95.515,48.117h-4.01h-4.01c-1.262,0-2.228-0.965-2.228-2.228v-8.093c0-2.525-2.079-4.604-4.603-4.604
		H53.043c-2.525,0-4.604,2.079-4.604,4.604v8.019c0,1.262-0.965,2.228-2.228,2.228h-4.01h-4.01c-2.525,0-4.604,2.079-4.604,4.604
		v1.559c0,2.525,2.005,4.529,4.455,4.604c0.074,0,0.074,0,0.149,0H95.44c0.075,0,0.075,0,0.148,0
		c2.45-0.074,4.455-2.079,4.455-4.604v-1.559C100.118,50.122,98.039,48.117,95.515,48.117z M77.62,48.042L77.62,48.042H56.161l0,0
		v-4.901c0-1.262,1.04-2.302,2.302-2.302h16.854c1.263,0,2.303,1.04,2.303,2.302L77.62,48.042L77.62,48.042z"/>
</g>
</svg>
