<?xml version="1.0" encoding="UTF-8" standalone="no"?>
<svg width="50px" height="50px" viewBox="0 0 50 50" version="1.1" xmlns="http://www.w3.org/2000/svg" xmlns:xlink="http://www.w3.org/1999/xlink" xmlns:sketch="http://www.bohemiancoding.com/sketch/ns">
    <!-- Generator: Sketch 3.5.2 (25235) - http://www.bohemiancoding.com/sketch -->
    <title>Power</title>
    <desc>Created with Sketch.</desc>
    <defs></defs>
    <g id="Page-1" stroke="none" stroke-width="1" fill="none" fill-rule="evenodd" sketch:type="MSPage">
        <g id="Power" sketch:type="MSArtboardGroup" fill="#FFFFFF">
            <path d="M41.4375,8.52941176 C45.81252,12.9215887 48,18.2156536 48,24.4117647 C48,30.6078758 45.81252,35.9215473 41.4375,40.3529412 C37.06248,44.7843358 31.750035,47 25.5,47 C19.249965,47 13.93752,44.7843358 9.5625,40.3529412 C5.1874785,35.9215473 3,30.6078758 3,24.4117647 C3,18.3725214 5.07029175,13.1961035 9.2109375,8.88235294 C9.52343925,8.41176471 9.91406025,8.17647059 10.3828125,8.17647059 C10.695315,8.17647059 10.96875,8.29411765 11.203125,8.52941176 L11.3203125,8.52941176 L13.78125,10.7647059 L13.78125,10.8823529 C14.0937525,11.1960809 14.25,11.4705882 14.25,11.7058824 C14.25,12.0980442 14.0937525,12.4509779 13.78125,12.7647059 C10.5781125,16.1372725 8.9765625,20.0195878 8.9765625,24.4117647 C8.9765625,29.0392358 10.5976425,32.9607718 13.83984,36.1764706 C17.082045,39.3921694 20.968725,41 25.5,41 C30.031275,41 33.917955,39.3921694 37.16016,36.1764706 C40.4023575,32.9607718 42.0234375,29.0392358 42.0234375,24.4117647 C42.0234375,19.86272 40.460955,16.0196254 37.3359375,12.8823529 C36.9453075,12.6470588 36.75,12.2549045 36.75,11.7058824 C36.75,11.3921544 36.8671875,11.1176471 37.1015625,10.8823529 L37.1015625,10.7647059 L39.5625,8.52941176 L39.6796875,8.52941176 C39.9140625,8.29411765 40.1874975,8.17647059 40.5,8.17647059 C40.89063,8.17647059 41.203125,8.29411765 41.4375,8.52941176 L41.4375,8.52941176 Z M23.859375,32.6470588 C22.999995,32.6470588 22.5703125,32.2156913 22.5703125,31.3529412 L22.5703125,4.29411765 C22.5703125,3.43136753 22.999995,3 23.859375,3 L27.140625,3 C28.000005,3 28.4296875,3.43136753 28.4296875,4.29411765 L28.4296875,31.3529412 C28.4296875,32.2156913 28.000005,32.6470588 27.140625,32.6470588 L23.859375,32.6470588 L23.859375,32.6470588 Z" id="Page-1" sketch:type="MSShapeGroup"></path>
        </g>
    </g>
</svg>