<?xml version="1.0" encoding="utf-8"?>
<!-- Generator: Adobe Illustrator 19.2.1, SVG Export Plug-In . SVG Version: 6.00 Build 0)  -->
<svg version="1.1" id="Calque_1" xmlns="http://www.w3.org/2000/svg" xmlns:xlink="http://www.w3.org/1999/xlink" x="0px" y="0px"
	 viewBox="0 0 118.545 132.061" enable-background="new 0 0 118.545 132.061" xml:space="preserve">
<g>
	<path fill="#FFFFFF" d="M38.82,27.715L28.226,16.944c-0.583-0.593-1.539-0.591-2.12,0.003L13.95,29.382
		c-0.562,0.575-0.564,1.494-0.004,2.071l10.502,10.825c0.56,0.577,0.559,1.495-0.003,2.07l-9.194,9.425
		c-0.917,0.94-0.251,2.521,1.062,2.521h35.464c0.82,0,2.613-0.665,2.613-1.484V19.318c0-1.31-2.137-1.977-3.079-1.068l-10.121,9.492
		C40.605,28.307,39.391,28.295,38.82,27.715z"/>
	<path fill="#FFFFFF" d="M79.725,97.48l10.594,10.771c0.583,0.593,1.539,0.591,2.12-0.003l12.157-12.435
		c0.562-0.575,0.564-1.494,0.004-2.071L94.097,82.916c-0.56-0.577-0.559-1.495,0.003-2.07l9.194-9.425
		c0.917-0.94,0.251-2.521-1.062-2.521H66.767c-0.82,0-2.613,0.665-2.613,1.484v35.491c0,1.31,2.137,1.977,3.079,1.068l10.121-9.492
		C77.94,96.887,79.155,96.899,79.725,97.48z"/>
</g>
</svg>
