<?xml version="1.0" encoding="utf-8"?>
<!-- Generator: Adobe Illustrator 19.2.1, SVG Export Plug-In . SVG Version: 6.00 Build 0)  -->
<svg version="1.1" id="Calque_1" xmlns="http://www.w3.org/2000/svg" xmlns:xlink="http://www.w3.org/1999/xlink" x="0px" y="0px"
	 viewBox="0 0 141.5 132.061" enable-background="new 0 0 141.5 132.061" xml:space="preserve">
<g>
	<path opacity="0.2" fill="#FFFFFF" d="M136.547,21.594c0-2.152-1.744-3.896-3.896-3.896h-11.255c-2.152,0-3.896,1.744-3.896,3.896
		v83.978c0,2.152,1.744,3.896,3.896,3.896h11.255c2.152,0,3.896-1.744,3.896-3.896V21.594z"/>
	<path opacity="0.2" fill="#FFFFFF" d="M108.843,37.177c0-2.152-1.744-3.896-3.896-3.896H93.692c-2.152,0-3.896,1.744-3.896,3.896
		v68.394c0,2.152,1.744,3.896,3.896,3.896h11.255c2.152,0,3.896-1.744,3.896-3.896V37.177z"/>
	<path opacity="0.2" fill="#FFFFFF" d="M79.407,57.955c0-2.152-1.744-3.896-3.896-3.896H64.257c-2.152,0-3.896,1.744-3.896,3.896
		v47.616c0,2.152,1.744,3.896,3.896,3.896h11.255c2.152,0,3.896-1.744,3.896-3.896V57.955z"/>
	<path opacity="0.2" fill="#FFFFFF" d="M51.704,77.001c0-2.152-1.744-3.896-3.896-3.896H36.553c-2.152,0-3.896,1.744-3.896,3.896
		v28.57c0,2.152,1.744,3.896,3.896,3.896h11.255c2.152,0,3.896-1.744,3.896-3.896V77.001z"/>
	<path fill="#FFFFFF" d="M24,94.316c0-2.152-1.744-3.896-3.896-3.896H8.849c-2.152,0-3.896,1.744-3.896,3.896v11.255
		c0,2.152,1.744,3.896,3.896,3.896h11.255c2.152,0,3.896-1.744,3.896-3.896V94.316z"/>
</g>
</svg>
