<?xml version="1.0" encoding="utf-8"?>
<!-- Generator: Adobe Illustrator 19.2.1, SVG Export Plug-In . SVG Version: 6.00 Build 0)  -->
<svg version="1.1" id="Calque_1" xmlns="http://www.w3.org/2000/svg" xmlns:xlink="http://www.w3.org/1999/xlink" x="0px" y="0px"
	 viewBox="0 0 141.5 132.061" enable-background="new 0 0 141.5 132.061" xml:space="preserve">
<g>
	<path fill="#FFFFFF" d="M136.565,21.844c0-2.152-1.744-3.896-3.896-3.896h-11.255c-2.152,0-3.896,1.744-3.896,3.896v83.978
		c0,2.152,1.744,3.896,3.896,3.896h11.255c2.152,0,3.896-1.744,3.896-3.896V21.844z"/>
	<path fill="#FFFFFF" d="M108.861,37.427c0-2.152-1.744-3.896-3.896-3.896H93.711c-2.152,0-3.896,1.744-3.896,3.896v68.394
		c0,2.152,1.744,3.896,3.896,3.896h11.255c2.152,0,3.896-1.744,3.896-3.896V37.427z"/>
	<path fill="#FFFFFF" d="M79.426,58.205c0-2.152-1.744-3.896-3.896-3.896H64.275c-2.152,0-3.896,1.744-3.896,3.896v47.616
		c0,2.152,1.744,3.896,3.896,3.896H75.53c2.152,0,3.896-1.744,3.896-3.896V58.205z"/>
	<path fill="#FFFFFF" d="M51.722,77.251c0-2.152-1.744-3.896-3.896-3.896H36.571c-2.152,0-3.896,1.744-3.896,3.896v28.57
		c0,2.152,1.744,3.896,3.896,3.896h11.255c2.152,0,3.896-1.744,3.896-3.896V77.251z"/>
	<path fill="#FFFFFF" d="M24.018,94.566c0-2.152-1.744-3.896-3.896-3.896H8.867c-2.152,0-3.896,1.744-3.896,3.896v11.255
		c0,2.152,1.744,3.896,3.896,3.896h11.255c2.152,0,3.896-1.744,3.896-3.896V94.566z"/>
</g>
</svg>
