<?xml version="1.0" encoding="utf-8"?>
<!-- Generator: Adobe Illustrator 19.2.1, SVG Export Plug-In . SVG Version: 6.00 Build 0)  -->
<svg version="1.1" id="Calque_1" xmlns="http://www.w3.org/2000/svg" xmlns:xlink="http://www.w3.org/1999/xlink" x="0px" y="0px"
	 viewBox="0 0 128 132.061" enable-background="new 0 0 128 132.061" xml:space="preserve">
<g>
	<g>
		<path fill="#FFFFFF" d="M61.899,56.191c-12.844,0-23.293,10.451-23.293,23.295s10.449,23.295,23.293,23.295
			c12.842,0,23.293-10.449,23.293-23.295S74.741,56.191,61.899,56.191z"/>
		<g>
			<g>
				<path fill="#FFFFFF" d="M61.899,49.344c-2.51,0-4.545-2.035-4.545-4.543v-7.272c0-2.51,2.035-4.545,4.545-4.545
					s4.545,2.035,4.545,4.545v7.272C66.444,47.309,64.408,49.344,61.899,49.344z"/>
			</g>
			<g>
				<path fill="#FFFFFF" d="M61.899,109.623c-2.51,0-4.545,2.035-4.545,4.545v7.269c0,2.512,2.035,4.547,4.545,4.547
					s4.545-2.035,4.545-4.547v-7.269C66.444,111.658,64.408,109.623,61.899,109.623z"/>
			</g>
			<g>
				<path fill="#FFFFFF" d="M83.209,58.172c-1.773-1.775-1.773-4.652,0-6.427l5.142-5.142c1.773-1.773,4.652-1.773,6.427,0
					c1.775,1.775,1.775,4.654,0,6.427l-5.142,5.142C87.864,59.947,84.987,59.947,83.209,58.172z"/>
			</g>
			<g>
				<path fill="#FFFFFF" d="M40.587,100.799c-1.775-1.777-4.652-1.777-6.427,0l-5.142,5.14c-1.773,1.773-1.775,4.654,0,6.427
					c1.775,1.773,4.654,1.773,6.427,0l5.142-5.144C42.362,105.449,42.362,102.57,40.587,100.799z"/>
			</g>
			<g>
				<path fill="#FFFFFF" d="M92.038,79.484c0-2.51,2.035-4.545,4.545-4.545h7.272c2.51,0,4.545,2.035,4.545,4.545
					c0,2.51-2.035,4.543-4.545,4.543h-7.272C94.072,84.027,92.038,81.995,92.038,79.484z"/>
			</g>
			<g>
				<path fill="#FFFFFF" d="M31.759,79.484c0-2.51-2.035-4.545-4.545-4.545h-7.269c-2.51,0-4.545,2.035-4.545,4.545
					c0,2.51,2.035,4.543,4.545,4.543h7.272C29.724,84.027,31.759,81.995,31.759,79.484z"/>
			</g>
			<g>
				<path fill="#FFFFFF" d="M83.209,100.799c1.775-1.773,4.654-1.773,6.427,0l5.142,5.142c1.775,1.771,1.775,4.652,0,6.425
					s-4.652,1.773-6.427,0l-5.142-5.142C81.434,105.449,81.434,102.572,83.209,100.799z"/>
			</g>
			<g>
				<path fill="#FFFFFF" d="M40.587,58.172c1.775-1.775,1.775-4.652,0-6.427l-5.142-5.14c-1.775-1.775-4.652-1.775-6.427,0
					c-1.775,1.773-1.775,4.652,0,6.425l5.142,5.142C35.935,59.949,38.812,59.949,40.587,58.172z"/>
			</g>
		</g>
	</g>
</g>
</svg>
