<?xml version="1.0" encoding="utf-8"?>
<!-- Generator: Adobe Illustrator 19.2.1, SVG Export Plug-In . SVG Version: 6.00 Build 0)  -->
<svg version="1.1" id="Calque_1" xmlns="http://www.w3.org/2000/svg" xmlns:xlink="http://www.w3.org/1999/xlink" x="0px" y="0px"
	 viewBox="0 0 159.455 124.485" enable-background="new 0 0 159.455 124.485" xml:space="preserve">
<g>
	<path fill="#FFFFFF" d="M56.765,62.134L44.903,49.341c0,0-2.093-1.396,0-5.117c0,0,4.884-8.838,11.862-10.932
		c0,0,3.373-1.512,5.815,1.163l19.305,16.979c0,0,5.97,6.047,1.085,9.846l-2.326,1.861c0,0-2.791,1.783-0.078,4.574l4.325,4.264
		c0,0,1.994,2.19,4.436,0.078l4.477-4.342c0,0,8.257-11.339-2.733-23.957L71.884,25.152c0,0-11.63-9.536-23.841-1.047
		c0,0-25.236,15.932-11.63,34.307l23.375,23.259c0,0,2.326-1.047,1.861-2.675c0,0-6.28-7.21-3.605-12.792
		C58.045,66.204,59.294,64.861,56.765,62.134z"/>
	<path fill="#FFFFFF" d="M102.175,62.452l11.862,12.792c0,0,2.093,1.396,0,5.117c0,0-4.884,8.838-11.862,10.932
		c0,0-3.373,1.512-5.815-1.163L77.055,73.151c0,0-5.97-6.047-1.085-9.846l2.326-1.861c0,0,2.791-1.783,0.078-4.574l-4.325-4.264
		c0,0-1.994-2.19-4.436-0.078l-4.477,4.342c0,0-8.257,11.339,2.733,23.957l19.189,18.607c0,0,11.63,9.536,23.841,1.047
		c0,0,25.236-15.932,11.63-34.307L99.151,42.914c0,0-2.326,1.047-1.861,2.675c0,0,6.28,7.21,3.605,12.792
		C100.896,58.381,99.646,59.724,102.175,62.452z"/>
</g>
</svg>
