<?xml version="1.0" encoding="utf-8"?>
<!-- Generator: Adobe Illustrator 19.2.1, SVG Export Plug-In . SVG Version: 6.00 Build 0)  -->
<svg version="1.1" id="Calque_1" xmlns="http://www.w3.org/2000/svg" xmlns:xlink="http://www.w3.org/1999/xlink" x="0px" y="0px"
	 viewBox="0 0 141.5 132.061" enable-background="new 0 0 141.5 132.061" xml:space="preserve">
<g>
	<g opacity="0.3">
		<path fill="#FFFFFF" d="M68.487,73.199c9.242,9.175,19.94,17.939,24.14,13.707c6.014-6.057,9.715-11.328,23.059-0.686
			c13.344,10.647,3.153,17.813-2.671,23.682c-6.721,6.772-31.895,0.475-56.847-24.289c-24.951-24.768-31.44-49.893-24.714-56.668
			c5.826-5.87,12.915-16.112,23.655-2.845c10.745,13.26,5.503,17.002-0.51,23.061C50.401,53.393,59.244,64.023,68.487,73.199z"/>
	</g>
	<g>
		<path fill="#FFFFFF" d="M68.487,73.199c9.242,9.175,19.94,17.939,24.14,13.707c6.014-6.057,9.715-11.328,23.059-0.686
			c13.344,10.647,3.153,17.813-2.671,23.682c-6.721,6.772-31.895,0.475-56.847-24.289c-24.951-24.768-31.44-49.893-24.714-56.668
			c5.826-5.87,12.915-16.112,23.655-2.845c10.745,13.26,5.503,17.002-0.51,23.061C50.401,53.393,59.244,64.023,68.487,73.199z"/>
	</g>
</g>
</svg>
