<?xml version="1.0" encoding="utf-8"?>
<!-- Generator: Adobe Illustrator 19.2.0, SVG Export Plug-In . SVG Version: 6.00 Build 0)  -->
<svg version="1.1" id="Calque_2" xmlns="http://www.w3.org/2000/svg" xmlns:xlink="http://www.w3.org/1999/xlink" x="0px" y="0px"
	 viewBox="0 0 113.4 113.4" style="enable-background:new 0 0 113.4 113.4;" xml:space="preserve">
<style type="text/css">
	.st0{fill:#FFFFFF;}
</style>
<title>T-REX</title>
<path class="st0" d="M57.5,44.4c0.1-0.2,3.2-2.9,3.8-6.5s-2.8-8.4-2.8-8.4s0.9-1-1.4,0.8s-1.8,2.9-1.3,3s2.5,2.7,2.5,3.7
	c-0.3,1.3-1.2,2.3-2.5,2.6c-1.5,0.5-1.4,1.4-1.4,1.4C54.6,44.4,57.5,44.6,57.5,44.4z"/>
<path class="st0" d="M70.2,51.5c0,0,0.9,0.5,3.3-1.9s1.6-3.9,1.6-3.9l-6.1-7.7c-0.2-1.1-1.2-1.8-2.3-1.6c-0.3,0.1-0.6,0.2-0.9,0.4
	c0,0-0.2,3.3,1.2,5.4s-2.1,3-2.1,3S67.4,50.5,70.2,51.5z"/>
<path class="st0" d="M78.4,52.8h3.5c0,0-0.1-2.8-3.5-2.8s-3.1,1.1-3.1,2.2S78.4,52.8,78.4,52.8z"/>
<path class="st0" d="M56.7,0C25.4,0,0,25.4,0,56.7l0,0c0,1.9,0.1,3.7,0.3,5.5c0.3-4,1.4-4.6,1.4-4.6c0.5,1.2,1,2.5,1.3,3.7
	c0,0.5,2.4,0.5,2.1-0.2s-0.5-2.8,0-3S6.4,60,6.4,60s1.6,1,1.6,0.4c-0.4-1.3-1-2.5-1.6-3.7c1-1.1,2.6,1.6,2.6,1.6
	c1.2-0.8,1.9-2.2,1.9-3.7c0,0-1.8-2.9-0.9-3.6s1.4,0.7,2.7,1.7s0.9-1,0.9-1l-1.8-4.4c0,0,0.6-0.7,3,1s1.4,0.1,1.4,0.1
	c-1.9-2.3-1.2-3.5-1.2-3.5l2.5,0.9c0,0,1.2-1-0.9-2.2c-1.3-0.6-2.1-1.9-2.2-3.3c0-0.3,2.1-1.6,3.1-0.4c0.6,0.9,1.8,1.3,2.9,0.9
	c0.7-0.4-0.1-2.9-0.1-2.9s-3.3-3.8-1.8-4.4s5.5,1.7,5.5,1.7l2.3-0.2c0,0,1.2,0.5,1.5-0.5s-1.4-1.2-1.4-1.2c0.4-1.7-3.8-3.6-3.8-3.6
	l1.2-1c0,0,2.1-0.9,3.3,0.4s3.7,1.6,4.4,1.7c0.4,0.1,0.7-0.1,0.8-0.5c0.1-0.2,0-0.5-0.2-0.7c-0.6-0.5-0.9-1.2-0.8-2
	c0.2-0.5-0.9-0.5-1.9-2.1s0.6-1.2,0.6-1.2c1.7,1.5,3.9,2.4,6.2,2.4l3.4-2.1l4.4-1.1l3-1.5l3.7-0.3c0.9-1,2.3-1.5,3.6-1.2l2.3,2.1
	c0,0,0.6,0.5,3.3,0.8s1.7,4.2,1.7,4.2l4,0.9C65.1,31,80,40.5,80,40.5h1.1l5.3,5c2.8,0.2,5.5,1.3,7.5,3.3c3.2,1.9,6.1,7.9,6.1,7.9
	c1.6,1,1,3.6-0.7,6.9S95,65.9,95,65.9c0.2-4.6-5.4-3.1-5.4-3.1c-0.6-0.4-1.4-0.6-2.1-0.5c-0.9-1.6-6.7-0.9-6.7-0.9
	c-0.2-0.7-6-1.6-6-1.6c-0.7-1.1-3.3-0.8-3.3-0.8l-1.7-1.6l-3.7-0.7c-2.2-4-3.7-3-3.7-3L56.2,53l-5.4,1.6l0.3,0.9h0.4
	c0.8,0.1,1.6,0.5,2.2,1.2l5.1,6l-1.9,0.5l-1-0.8c-3.8,2.6,0.6,7.8,2.9,10.5s0.9,1.9,0.9,1.9l3.5,2.1l2.8,3.5l4.1,2.4l3.9,1.2
	l1.6,1.8l1.7,1.2c-3.2,3.4-3.9,1.2-3.9,1.2s-1.4,1.1-4.7,0.9s-8.8-3.1-11.3-6.9s-8.9-5.8-8.9-5.8s-8.6-5.3-10.5-7.1S34.3,62,34.3,62
	c-1.3,0.5-1.8,5.6-1.8,5.6c-0.7-0.1-0.6-1.7-0.4-4.8s-1.7-2-1.7-2s-0.2,2.9-0.2,4.9c-0.2,1.6-0.7,3.2-1.6,4.6l-1-6l-3.2,9.2
	c1.5-5,0.1-5.5,0.1-5.5c-4.2,6.8-0.3,0.9-2.3,5.8c-1.2,2.9-2.9,5.5-5,7.8c0,0,2.9-7.4,3.5-8.8s0.2-4.9-1.2-4.7s-1.2,5.8-1.2,5.8
	l-3.6,6.2l0.5-10.6C14.6,68,14,69.7,14,69.7l-0.2,4.4c-5.5,0.8-1.3,7.4-1.3,7.4L10,80.8c-0.4,2.9,0.7,5.9,2.9,7.9
	c1.7-7.2,4.7-1.6,4.7-1.6l4.4-0.5l1.2-1.9c1-0.3,2-0.4,3-0.5c1.3,0,4.1-4.7,1.5-5.4s0-3.2,0-3.2c8.2-5.7,10.1-0.3,10.1-0.3l-1.9,0.5
	l-2.5-0.5L31.3,77l-0.9-0.4L31,79c0.7-0.1,1.3-0.6,1.4-1.3c0,0,0.3-0.9,4.6-0.6s4.2,3.6,3,2.7s-4.7-0.6-4.7-0.6
	c-1.9,2.7-3.5,1.9-3.5,1.9v1.7c0,0-1.2-1-1.3,0.3c-0.2,0.5,0.1,1.1,0.6,1.3c0.1,0,0.2,0.1,0.3,0.1c-0.9,3-3.5,4.7-4.6,4.6
	c-0.7,0-1.5,0.2-2.1,0.6c0,0,1.3,0.5-1.2-0.3S21.2,90,21.2,90l-1.1-0.5c-2.7,2.8-0.4,4-0.4,4l0.8-0.9l1.7,1.2
	c0.2-1.3,4.2-1.5,4.2-1.5s-0.2-1.4,0.5-1.7c0.6-0.3,1.2-0.8,1.6-1.3c3.4,0.3,3.5-1.7,3.5-1.7l1.3-0.5c-0.3-1.9,0.6-3.2,5.4-2.3
	s6.1,3.9,6.1,3.9s-1.4-0.5-4.6-1.4s-4.8,2.6-3.8,2.6s3.2-1.3,4.8-1.1s2.1,2.3,2.1,2.3c0.5,0.2,1,0.5,1.4,0.9
	c0.3,0.5-0.5,3.9-0.5,3.9l-2.1-3.7c-4.9-1.3-5.8,0-5.8,0l-0.4,0.5l-0.9,0.6l-1.5-0.2l-1.3-1L32,94.1l-2.1,0.7c-4.2,0.9-5,2-5,2
	l-2.5,2.7l-2.1,0.6c24,20.1,59.7,17.1,79.9-6.9c20.1-24,17.1-59.7-6.9-79.9C83,4.7,70.1,0,56.7,0z M94,64.4c1.3,0.5-1.9,2.5-1.9,2.5
	S92.7,63.9,94,64.4L94,64.4z M85.4,62.9c0.2,0,0.4,0.2,0.4,0.4c0,0.1,0,0.2-0.1,0.2c-0.2,0.6-0.9,2-0.9,2c-0.4,0.4-0.9,0.6-1.5,0.7
	l0.7-1.7l0.5-0.9C84.7,63.7,84.4,62.8,85.4,62.9L85.4,62.9z M81,63.4c0.5-1.1,0.7-1.3,1.2-1.1c0,0,1.3,0.9-1.2,2.6l-2.5,1.8
	C79.4,65.7,80.3,64.6,81,63.4L81,63.4z M80,61.8c0,0,1.4,0.4-0.7,2.7s-3.8,2.2-3.8,2.2l2.5-3.5C78,63.2,78.9,61.3,80,61.8L80,61.8z
	 M77.1,61.1c0,0,1.4,0.5-0.3,2.4c-1.1,1.2-2.5,2.1-4,2.6l3.3-4.5C76.2,61.1,76.6,60.9,77.1,61.1C77,61,77,61,77.1,61.1L77.1,61.1z
	 M74,72.8c0,0-1.2,6.2-3.4,6.9S74,72.7,74,72.8L74,72.8z M74.8,60.4l0.3,1.3l-3.9,3.8l2-3.8C73.2,61.7,73,60.3,74.8,60.4L74.8,60.4z
	 M72.6,59.4c0,0,1.8,1.5-2.7,4.2l1.5-3.4C71.6,59.7,72.1,59.3,72.6,59.4L72.6,59.4z M70.7,58.7l0.3,0.7l-1.5,1.8l-1.2,0.5l1.2-1.5
	L70.7,58.7z M68.6,58.2c0,0,1-0.7,0.9,0s-1.8,1.7-1.8,1.7L68.6,58.2z M56.2,65.7v-1l1.4-0.7C57.6,64,57,66.2,56.2,65.7L56.2,65.7z
	 M57.1,67.3c-0.8-0.7,1.7-1.7,1.7-1.7S57.8,68,57.1,67.3L57.1,67.3z M57.9,69.2c-0.3-0.4-0.3-1.1,0.2-1.4c0.1,0,0.1-0.1,0.2-0.1
	l2.1-0.8C60.3,66.9,58.3,70.4,57.9,69.2L57.9,69.2z M58.8,70.9l-0.4-0.5l2.7-2.2C61,68.1,60.2,72.3,58.8,70.9L58.8,70.9z M60.4,73
	c-0.1-0.3-0.2-0.7-0.2-1.1l3.4-2.7l-1,2.5l-1.4,1.7C61.2,73.4,60.6,73.8,60.4,73L60.4,73z M62.3,74.6c0,0-1-0.4,0-1.1
	s2.6-2.3,2.6-2.3S64,75.5,62.3,74.6L62.3,74.6z M64.6,76.8l-0.9-0.6l0.5-1.2l2.5-2.5L65.9,75L64.6,76.8z M66.3,78.8v-1.6l2.7-3.4
	C69,73.8,67.8,79.3,66.3,78.8L66.3,78.8z M68,80.2c-0.9-0.4-0.1-1.8,2.1-4.5l-0.4,3C69.7,78.6,68.9,80.5,68,80.2L68,80.2z M70.9,82
	c-1.7-0.4-1.7-1.1-0.7-1.4c1.5-0.9,3-1.8,4.4-2.9C74.5,77.7,72.5,82.4,70.9,82L70.9,82z M73.2,83c-1.9-0.8,4.2-6.5,4.2-6.5
	S75.1,83.8,73.2,83L73.2,83z M75.8,84.3c-1.3-0.5,2.9-5.8,2.9-5.8S77,84.8,75.8,84.3L75.8,84.3z M77.4,85.5
	c-2.1-0.9,2.1-4.6,2.1-4.6S79.4,86.4,77.4,85.5z M80.6,67.3l1.4-1.9c0,0,0.7-1.9,1.6-1.9c0,0,0.8,0.2-0.4,1.7
	C82.5,66.2,81.6,66.9,80.6,67.3L80.6,67.3z M82.8,68c0,0,1.3-1.1,2.1-1.7s1.4-3.3,2.4-3.2s-0.8,3.2-0.8,3.2
	C84.1,68.3,82.8,68,82.8,68L82.8,68z M88.3,64.5c0,0,0.5-1.4,1.6-1.1s0,2.2,0,2.2l-4.4,3.6C86.8,67.9,87.7,66.3,88.3,64.5L88.3,64.5
	z M90.3,65.6c0.9-2.1,1.9-1.7,1.9-1.7c1.4,0.1-0.7,2.2-0.7,2.2l-2.8,2C88.7,68.2,89.3,67.8,90.3,65.6L90.3,65.6z M91.1,69.4
	c0,0,3.5-4.4,4.1-3S91.1,69.4,91.1,69.4L91.1,69.4z"/>
<path d="M0.3,62.2c0,0.1,0,0.2,0,0.4"/>
</svg>
