<?xml version="1.0" encoding="utf-8"?>
<!-- Generator: Adobe Illustrator 19.2.1, SVG Export Plug-In . SVG Version: 6.00 Build 0)  -->
<svg version="1.1" id="Calque_1" xmlns="http://www.w3.org/2000/svg" xmlns:xlink="http://www.w3.org/1999/xlink" x="0px" y="0px"
	 viewBox="0 0 97.9 103.3" style="enable-background:new 0 0 97.9 103.3;" xml:space="preserve">
<style type="text/css">
	.st0{fill:none;stroke:#E73551;stroke-width:5;stroke-miterlimit:10;}
	.st1{opacity:0.15;fill:none;stroke:#FFFFFF;stroke-width:0.5;stroke-miterlimit:10;}
	.st2{fill:#E73551;}
</style>
<polygon class="st0" points="48.3,12.2 82.9,32.2 82.9,72.2 48.3,92.2 13.7,72.2 13.7,32.2 "/>
<polygon class="st1" points="48.3,19.5 76.7,35.9 76.7,68.6 48.3,85 19.9,68.6 19.9,35.9 "/>
<g>
	<g>
		<path class="st2" d="M53,44.8c0-1.5-0.6-2.8-1.5-3.7c-0.9-0.9-2-1.5-3.3-1.5c-1.3,0-2.4,0.5-3.3,1.5c-0.9,0.9-1.5,2.2-1.5,3.7V50
			h15.3c0.6,0,1.2,0.5,1.2,1.2v13.6c0,0.7-0.5,1.2-1.2,1.2H37.6c-0.7,0-1.2-0.5-1.2-1.2V51.2c0-0.6,0.5-1.2,1.2-1.2l0,0h1.6v-5.2
			c0-2.6,1-4.9,2.6-6.7c1.6-1.7,3.9-2.8,6.4-2.8s4.8,1.1,6.4,2.8c1.6,1.7,2.5,3.9,2.6,6.3L53,44.8z"/>
	</g>
</g>
</svg>
