<?xml version="1.0" encoding="utf-8"?>
<!-- Generator: Adobe Illustrator 19.2.1, SVG Export Plug-In . SVG Version: 6.00 Build 0)  -->
<svg version="1.1" id="Calque_1" xmlns="http://www.w3.org/2000/svg" xmlns:xlink="http://www.w3.org/1999/xlink" x="0px" y="0px"
	 viewBox="0 0 118.545 132.061" enable-background="new 0 0 118.545 132.061" xml:space="preserve">
<g>
	<g>
		<path fill="#FFFFFF" d="M89.051,62.608h-4.486V47.646c0-7.45-2.835-14.284-7.509-19.284c-4.644-4.989-11.291-8.198-18.598-8.184
			c-7.322-0.015-13.957,3.195-18.598,8.184c-4.673,5-7.509,11.834-7.509,19.284v14.962h-4.501c-1.834,0-3.353,1.504-3.353,3.353
			v39.532c0,1.878,1.519,3.367,3.353,3.367h61.2c1.86,0,3.367-1.504,3.367-3.367V65.961C92.418,64.112,90.911,62.608,89.051,62.608
			L89.051,62.608z M44.747,47.646c0-4.295,1.632-8.107,4.167-10.817c2.538-2.707,5.862-4.255,9.545-4.255
			c3.668,0,6.992,1.548,9.541,4.255c2.538,2.711,4.156,6.522,4.156,10.817v14.962H44.747V47.646z M44.747,47.646"/>
	</g>
</g>
</svg>
