<?xml version="1.0" encoding="utf-8"?>
<!-- Generator: Adobe Illustrator 19.2.1, SVG Export Plug-In . SVG Version: 6.00 Build 0)  -->
<svg version="1.1" id="Calque_1" xmlns="http://www.w3.org/2000/svg" xmlns:xlink="http://www.w3.org/1999/xlink" x="0px" y="0px"
	 viewBox="0 0 159.455 124.485" enable-background="new 0 0 159.455 124.485" xml:space="preserve">
<g>
	<path fill="#FFFFFF" d="M115.104,63.139H44.351c-1.066,0-1.937-0.872-1.937-1.937V20.978c0-1.066,0.872-1.937,1.937-1.937h70.753
		c1.066,0,1.937,0.872,1.937,1.937v40.223C117.041,62.267,116.169,63.139,115.104,63.139z"/>
	<path fill="#FFFFFF" d="M75.908,87.655H44.351c-1.066,0-1.937-0.872-1.937-1.937V69.239c0-1.066,0.872-1.937,1.937-1.937h31.557
		c1.066,0,1.937,0.872,1.937,1.937v16.478C77.845,86.783,76.973,87.655,75.908,87.655z"/>
	<path fill="#FFFFFF" d="M115.104,87.655H83.387c-1.066,0-1.937-0.872-1.937-1.937V69.239c0-1.066,0.872-1.937,1.937-1.937h31.717
		c1.066,0,1.937,0.872,1.937,1.937v16.478C117.041,86.783,116.169,87.655,115.104,87.655z"/>
	<path fill="#FFFFFF" d="M75.908,111.882H44.351c-1.066,0-1.937-0.872-1.937-1.937V93.467c0-1.066,0.872-1.937,1.937-1.937h31.557
		c1.066,0,1.937,0.872,1.937,1.937v16.478C77.845,111.01,76.973,111.882,75.908,111.882z"/>
	<path fill="#FFFFFF" d="M115.104,111.882H83.387c-1.066,0-1.937-0.872-1.937-1.937V93.467c0-1.066,0.872-1.937,1.937-1.937h31.717
		c1.066,0,1.937,0.872,1.937,1.937v16.478C117.041,111.01,116.169,111.882,115.104,111.882z"/>
</g>
</svg>
