<?xml version="1.0" encoding="UTF-8" standalone="no"?>
<svg width="60px" height="60px" viewBox="0 0 60 60" version="1.1" xmlns="http://www.w3.org/2000/svg" xmlns:xlink="http://www.w3.org/1999/xlink" xmlns:sketch="http://www.bohemiancoding.com/sketch/ns">
    <!-- Generator: Sketch 3.5.2 (25235) - http://www.bohemiancoding.com/sketch -->
    <title>Contact</title>
    <desc>Created with Sketch.</desc>
    <defs></defs>
    <g id="Page-1" stroke="none" stroke-width="1" fill="none" fill-rule="evenodd" sketch:type="MSPage">
        <g id="Contact" sketch:type="MSArtboardGroup" fill="#FFFFFF">
            <path d="M1,43.960936 C1.62847405,43.710934 2.58688261,43.35547 3.87525404,42.894532 C5.16362547,42.433594 6.28307842,42.015628 7.23364427,41.640628 C8.18421193,41.265622 8.98943087,40.914064 9.64933127,40.585936 C10.8277171,39.976558 11.7468451,39.082036 12.4067455,37.902346 C13.0666459,36.72265 13.3965901,35.500006 13.3965901,34.234372 C13.3965901,33.374998 12.8938154,32.359378 11.8882601,31.1875 C11.2912088,30.51562 10.764868,29.546884 10.3092256,28.28125 C8.86373268,27.71875 8.14100129,26.507824 8.14100129,24.648436 C8.14100129,23.273428 8.36096407,22.29688 8.80089566,21.71875 C8.64377594,20.468746 8.50237302,19.148446 8.37667483,17.757814 C8.23527191,15.992176 8.66340836,14.26954 9.66111435,12.589846 C10.6588143,10.910146 12.0100125,9.558598 13.7147512,8.535154 C15.4194838,7.511716 17.1909691,7 19.0292554,7 C20.4118992,7 21.7748805,7.308592 23.1182475,7.925782 C24.4616084,8.542972 25.628193,9.343744 26.6180436,10.328128 C27.6078882,11.312506 28.389541,12.464836 28.9630262,13.785154 C29.5365053,15.105478 29.7682511,16.429678 29.6582697,17.757814 C29.50115,19.53907 29.3597471,20.85937 29.2340549,21.71875 C29.6896973,22.312504 29.9175155,23.289058 29.9175155,24.648436 C29.9175155,26.492194 29.194778,27.70312 27.7492911,28.28125 C27.2622212,29.593756 26.7437418,30.562498 26.1938228,31.1875 C25.1568399,32.359378 24.6383605,33.374998 24.6383605,34.234372 C24.6383605,35.500006 24.9683047,36.72265 25.6281991,37.902346 C26.2880995,39.082036 27.2150829,39.976558 28.4091855,40.585936 C29.3676085,41.070316 30.8602096,41.675776 32.8870371,42.402346 C34.9138646,43.12891 36.7285605,43.820308 38.3311672,44.476564 C39.9337738,45.132814 41.0021662,45.734374 41.5363684,46.28125 C42.1019921,46.843753 42.5419177,47.6015578 42.8561571,48.5546872 C43.1703966,49.5078172 43.343221,50.320309 43.3746486,50.9921872 L43.4217809,52 L1,52 L1,43.960936 Z M35.0552615,29.59375 C35.0552615,28.484368 35.2438027,27.687502 35.6208852,27.203128 C35.4480547,26.156242 35.330218,25.078132 35.2673749,23.96875 C35.1573875,22.515616 35.5069701,21.085942 36.3161348,19.679686 C37.1252935,18.27343 38.2290351,17.128912 39.6273898,16.246096 C41.0257444,15.363274 42.4712132,14.921872 43.9638385,14.921872 C45.4564637,14.921872 46.9019325,15.363274 48.3002872,16.246096 C49.6986418,17.128912 50.8023834,18.27343 51.6115421,19.679686 C52.4207008,21.085942 52.7702834,22.515616 52.660302,23.96875 C52.5974529,25.078132 52.4796162,26.156242 52.3067857,27.203128 C52.6838742,27.687502 52.8724094,28.484368 52.8724094,29.59375 C52.8724094,31.10938 52.2832256,32.101558 51.1048398,32.570314 C50.743462,33.617194 50.3192532,34.41406 49.8321833,34.960936 C49.5493714,35.289064 49.3411917,35.542966 49.2076382,35.722654 C49.0740906,35.902342 48.9326877,36.160156 48.7834234,36.496096 C48.634159,36.83203 48.5595269,37.156246 48.5595269,37.46875 C48.5595269,38.484382 48.8305557,39.480466 49.3726133,40.457032 C49.9146709,41.433598 50.6727575,42.164062 51.6468913,42.648436 C52.2125211,42.929686 52.8999033,43.230466 53.709062,43.550782 C54.5182207,43.871098 55.472704,44.226562 56.572536,44.617186 C57.6723619,45.007816 58.4815086,45.304684 59,45.507814 L59,52 L46.7448189,52 C46.7448189,51.8749994 46.7408912,51.7031261 46.7330358,51.484375 C46.7251804,51.265624 46.6780481,50.8515658 46.5916329,50.2421872 C46.5052176,49.6328092 46.3873809,49.050784 46.2381165,48.4960936 C46.0888522,47.9414032 45.8571063,47.3398468 45.5428669,46.6914064 C45.2286335,46.0429654 44.8594124,45.507814 44.4351916,45.085936 C43.6653098,44.304682 42.8090248,43.605472 41.8663186,42.988282 C40.9236063,42.371092 39.6431066,41.773438 38.0247891,41.195314 C38.9046523,40.11718 39.3445779,38.875006 39.3445779,37.46875 C39.3445779,37.156246 39.2699457,36.83203 39.1206814,36.496096 C38.9714231,36.160156 38.8339418,35.902342 38.7082497,35.722654 C38.5825575,35.542966 38.3861609,35.289064 38.1190598,34.960936 C37.6791282,34.476562 37.247058,33.687508 36.8228372,32.59375 C35.6444514,32.078122 35.0552615,31.078132 35.0552615,29.59375 L35.0552615,29.59375 Z" id="Page-1" sketch:type="MSShapeGroup"></path>
        </g>
    </g>
</svg>