<?xml version="1.0" encoding="UTF-8" standalone="no"?>
<svg width="60px" height="60px" viewBox="0 0 60 60" version="1.1" xmlns="http://www.w3.org/2000/svg" xmlns:xlink="http://www.w3.org/1999/xlink" xmlns:sketch="http://www.bohemiancoding.com/sketch/ns">
    <!-- Generator: Sketch 3.5.2 (25235) - http://www.bohemiancoding.com/sketch -->
    <title>Phone</title>
    <desc>Created with Sketch.</desc>
    <defs></defs>
    <g id="Page-1" stroke="none" stroke-width="1" fill="none" fill-rule="evenodd" sketch:type="MSPage">
        <g id="Phone" sketch:type="MSArtboardGroup" fill="#FFB414" opacity="0.900000036">
            <path d="M58.109375,41.8125 C58.703125,42.3958333 59,43.125 59,44 L59,54.9375 C59,55.8125047 58.703125,56.5416639 58.109375,57.125 C57.515625,57.7083362 56.7734375,58 55.8828125,58 C40.940025,58 28.224009,52.8472739 17.734375,42.5416667 C7.2447391,32.2360613 2,19.7431333 2,5.0625 C2,4.1875 2.29687206,3.45833333 2.890625,2.875 C3.48437785,2.29166667 4.22655775,2 5.1171875,2 L16.25,2 C17.140625,2 17.8828125,2.29166667 18.4765625,2.875 C19.0703125,3.45833333 19.3671875,4.1875 19.3671875,5.0625 C19.3671875,9.04862667 20.0104135,12.791648 21.296875,16.2916667 C21.6927115,17.4583427 21.4453125,18.4791667 20.5546875,19.3541667 L13.578125,26.2083333 C18.3281535,35.2500467 25.30464,42.1041387 34.5078125,46.7708333 L41.484375,39.9166667 C42.1770865,39.0416667 43.2161395,38.798608 44.6015625,39.1875 C48.4609565,40.354176 52.221332,40.9375 55.8828125,40.9375 C56.7734375,40.9375 57.515625,41.2291667 58.109375,41.8125 Z" id="Page-1" sketch:type="MSShapeGroup"></path>
        </g>
    </g>
</svg>