<?xml version="1.0" encoding="UTF-8" standalone="no"?>
<svg width="60px" height="60px" viewBox="0 0 60 60" version="1.1" xmlns="http://www.w3.org/2000/svg" xmlns:xlink="http://www.w3.org/1999/xlink" xmlns:sketch="http://www.bohemiancoding.com/sketch/ns">
    <!-- Generator: Sketch 3.5.2 (25235) - http://www.bohemiancoding.com/sketch -->
    <title>Gps</title>
    <desc>Created with Sketch.</desc>
    <defs></defs>
    <g id="Page-1" stroke="none" stroke-width="1" fill="none" fill-rule="evenodd" sketch:type="MSPage">
        <g id="Gps" sketch:type="MSArtboardGroup" fill="#FFFFFF">
            <g id="Page-1" sketch:type="MSLayerGroup" transform="translate(10.000000, 2.000000)">
                <g id="Dashboard" sketch:type="MSShapeGroup">
                    <g>
                        <g>
                            <g id="MenuGauche">
                                <g id="MENU-+-Group" transform="translate(0.000000, 1.046643)">
                                    <g id="Group">
                                        <g id="Page-1">
                                            <path d="M20,15.1188453 C18.6111066,15.1188453 17.43056,15.6088034 16.4583334,16.588733 C15.4861066,17.5686626 15,18.7585629 15,20.1584604 C15,21.5583579 15.4861066,22.748258 16.4583334,23.7281877 C17.43056,24.7081173 18.6111066,25.1980755 20,25.1980755 C21.3888934,25.1980755 22.56944,24.7081173 23.5416666,23.7281877 C24.5138934,22.748258 25,21.5583579 25,20.1584604 C25,18.7585629 24.5138934,17.5686626 23.5416666,16.588733 C22.56944,15.6088034 21.3888934,15.1188453 20,15.1188453 L20,15.1188453 L20,15.1188453 Z M20,0 C17.2222066,0 14.6267466,0.524953185 12.21354,1.57487971 C9.80033339,2.62480625 7.6823,4.06842751 5.85937461,5.90579726 C4.03644939,7.74316699 2.604172,9.87798154 1.5625,12.3103081 C0.520828174,14.7426346 0,17.3586586 0,20.1584604 C0,22.2583135 0.885408,25.1893065 2.65625009,28.9515404 C4.427092,32.7137677 6.45832191,36.4321972 8.75,40.1069368 C11.04168,43.7816762 13.28124,46.9751459 15.4687466,49.6874546 C17.65626,52.3997615 19.16666,53.7558942 20,53.7558942 C20.83334,53.7558942 22.33506,52.3997615 24.5052066,49.6874546 C26.67536,46.9751459 28.91492,43.7729275 31.22396,40.0806903 C33.533,36.3884533 35.5729066,32.661275 37.3437466,28.8990411 C39.1145934,25.1368138 40,22.2233117 40,20.1584604 C40,17.3586586 39.4791734,14.7426346 38.4375,12.3103081 C37.3958266,9.87798154 35.9635534,7.74316699 34.1406266,5.90579726 C32.3177,4.06842751 30.1996666,2.62480625 27.78646,1.57487971 C25.3732534,0.524953185 22.7777934,0 20,0 L20,0 L20,0 Z M20,28.5578189 C17.70832,28.5578189 15.7465334,27.7353873 14.1145866,26.0905039 C12.4826334,24.4456273 11.6666666,22.4682973 11.6666666,20.1584604 C11.6666666,17.8486233 12.4826334,15.8712934 14.1145866,14.2264168 C15.7465334,12.5815334 17.70832,11.7591019 20,11.7591019 C22.29168,11.7591019 24.2534666,12.5815334 25.8854134,14.2264168 C27.5173666,15.8712934 28.3333334,17.8486233 28.3333334,20.1584604 C28.3333334,22.4682973 27.5173666,24.4456273 25.8854134,26.0905039 C24.2534666,27.7353873 22.29168,28.5578189 20,28.5578189 L20,28.5578189 L20,28.5578189 Z" id="Shape"></path>
                                        </g>
                                    </g>
                                </g>
                            </g>
                        </g>
                    </g>
                </g>
            </g>
        </g>
    </g>
</svg>