<svg id="Calque_1" data-name="Calque 1" xmlns="http://www.w3.org/2000/svg" viewBox="0 0 128.1 85.66"><defs><style>.cls-1,.cls-2{fill:#1d1d1b;}.cls-2{stroke:#1d1d1b;stroke-miterlimit:10;stroke-width:0.2px;}</style></defs><title>Desambuage arriere2</title><path class="cls-1" d="M141.27,25.23c0-11.09-12.41-10.77-12.41-10.77L24.9,15c-11.59,0-11.73,12.2-11.73,12.2l0.09,46.42c0,8.8,8.13,10.7,10.55,11a8.42,8.42,0,0,0,1.1.07l103.22,0.11c11.2,0.12,13.14-8.34,13.14-8.34V25.23Zm-8,6.23V70.78s1.2,6.11-9.61,6.1L30,76.95s-9.13,1-9.13-6.1V31.09a8.81,8.81,0,0,1,7.54-8.75A18.42,18.42,0,0,1,31,22.17l92.06,0C130.31,22.43,133.07,25.95,133.26,31.46Z" transform="translate(-13.16 -14.46)"/><path class="cls-2" d="M48,57.3h0a2.12,2.12,0,0,0-3.17,0l-1.08,1.19s-1.48,2.08-2-1.15L38.86,44.26s-1-4.71,2.49-2.68l11.81,6s2.86,1.52.32,2.72l-0.43.25a2.11,2.11,0,0,0-.78,2.89,31.59,31.59,0,0,1,3.52,9.65s1.2,5.26-1.57,9.14c0,0-8.91,12.51-5,16.84A84.61,84.61,0,0,0,55,96.54c0.4,0.42-.37.83-1.25,1.75a7.21,7.21,0,0,1-1.43,1.36,2.1,2.1,0,0,1-2.91-.55,100.2,100.2,0,0,1-5.72-8.89c-1-1.51-3.42-5.89,1.2-13.65a2.18,2.18,0,0,1,.18-0.26c0.74-.91,5.63-7.12,5.07-12.67a15.77,15.77,0,0,0-1.88-6A2.25,2.25,0,0,0,48,57.3Z" transform="translate(-13.16 -14.46)"/><path class="cls-2" d="M74.95,57.3h0a2.12,2.12,0,0,0-3.17,0L70.7,58.47s-1.48,2.08-2-1.15L65.76,44.26s-1-4.71,2.49-2.68l11.81,6s2.86,1.52.32,2.72L80,50.55a2.11,2.11,0,0,0-.78,2.89,31.59,31.59,0,0,1,3.52,9.65s1.2,5.26-1.57,9.14c0,0-8.91,12.51-5,16.84a84.61,84.61,0,0,0,5.81,7.48c0.4,0.42-.37.83-1.25,1.75a7.21,7.21,0,0,1-1.43,1.36,2.1,2.1,0,0,1-2.91-.55,100.2,100.2,0,0,1-5.72-8.89c-1-1.51-3.42-5.89,1.2-13.65A2.18,2.18,0,0,1,72,76.31c0.74-.91,5.63-7.12,5.07-12.67a15.77,15.77,0,0,0-1.88-6A2.25,2.25,0,0,0,74.95,57.3Z" transform="translate(-13.16 -14.46)"/><path class="cls-2" d="M101.85,57.3h0a2.12,2.12,0,0,0-3.17,0L97.6,58.47s-1.48,2.08-2-1.15L92.67,44.26s-1-4.71,2.49-2.68l11.81,6s2.86,1.52.32,2.72l-0.43.25a2.11,2.11,0,0,0-.78,2.89,31.59,31.59,0,0,1,3.52,9.65s1.2,5.26-1.57,9.14c0,0-8.91,12.51-5,16.84a84.61,84.61,0,0,0,5.81,7.48c0.4,0.42-.37.83-1.25,1.75a7.21,7.21,0,0,1-1.43,1.36,2.1,2.1,0,0,1-2.91-.55,100.2,100.2,0,0,1-5.72-8.89c-1-1.51-3.42-5.89,1.2-13.65a2.18,2.18,0,0,1,.18-0.26c0.74-.91,5.63-7.12,5.07-12.67a15.77,15.77,0,0,0-1.88-6A2.25,2.25,0,0,0,101.85,57.3Z" transform="translate(-13.16 -14.46)"/></svg>