<?xml version="1.0" encoding="utf-8"?>
<!-- Generator: Adobe Illustrator 19.2.1, SVG Export Plug-In . SVG Version: 6.00 Build 0)  -->
<svg version="1.1" id="Calque_1" xmlns="http://www.w3.org/2000/svg" xmlns:xlink="http://www.w3.org/1999/xlink" x="0px" y="0px"
	 viewBox="0 0 128 132.061" enable-background="new 0 0 128 132.061" xml:space="preserve">
<g>
	<path fill="none" stroke="#FFFFFF" stroke-width="7" stroke-miterlimit="10" d="M103.028,103.588H7.851
		c-1.26,0-2.292-1.031-2.292-2.292V42.056c0-1.26,1.031-2.292,2.292-2.292h95.176c1.26,0,2.292,1.031,2.292,2.292v59.239
		C105.319,102.556,104.288,103.588,103.028,103.588z"/>
	<path fill="none" stroke="#FFFFFF" stroke-width="7" stroke-miterlimit="10" d="M119.52,88.984h-12.176
		c-1.114,0-2.025-0.911-2.025-2.025V57.746c0-1.114,0.911-2.025,2.025-2.025h12.176c1.114,0,2.025,0.911,2.025,2.025v29.213
		C121.545,88.073,120.634,88.984,119.52,88.984z"/>
	<path fill="#FFFFFF" d="M73.985,95.679H16.133c-0.55,0-1-0.45-1-1V48.797c0-0.55,0.45-1,1-1h57.852c0.55,0,1,0.45,1,1v45.881
		C74.985,95.229,74.535,95.679,73.985,95.679z"/>
</g>
</svg>
