<?xml version="1.0" encoding="UTF-8" standalone="no"?>
<svg width="462px" height="936px" viewBox="0 0 462 936" version="1.1" xmlns="http://www.w3.org/2000/svg" xmlns:xlink="http://www.w3.org/1999/xlink" xmlns:sketch="http://www.bohemiancoding.com/sketch/ns">
    <!-- Generator: Sketch 3.5.2 (25235) - http://www.bohemiancoding.com/sketch -->
    <title>Car</title>
    <desc>Created with Sketch.</desc>
    <defs>
        <filter x="-50%" y="-50%" width="200%" height="200%" filterUnits="objectBoundingBox" id="filter-1">
            <feGaussianBlur stdDeviation="2" in="SourceGraphic" result="blur"></feGaussianBlur>
        </filter>
    </defs>
    <g id="Page-1" stroke="none" stroke-width="1" fill="none" fill-rule="evenodd" sketch:type="MSPage">
        <g id="Car" sketch:type="MSArtboardGroup" stroke="#4F5A7A">
            <g sketch:type="MSLayerGroup" transform="translate(-157.000000, 17.000000)" id="LineCar">
                <g transform="translate(200.000000, 0.000000)" sketch:type="MSShapeGroup">
                    <path d="M28.7967587,104.968341 C28.7967587,104.968341 38.8171913,70.2707424 48.3604606,60.4241266 C48.3604606,60.4241266 54.5635856,49.639738 61.243874,46.3575328 C61.243874,46.3575328 108.483057,18.224345 145.224643,3.68886463 C145.224643,3.68886463 199.144114,-6.62663755 261.652528,8.37772926 C261.652528,8.37772926 322.252288,34.6353712 331.795557,43.544214 C331.795557,43.544214 350.404932,52.4530568 366.151326,101.686135 L366.151326,197.80786 C366.151326,197.80786 364.719836,206.247817 363.288345,220.31441 C361.856855,234.381004 362.334018,589.328057 362.334018,589.328057 C362.334018,589.328057 370.922961,615.585699 370.922961,622.618996 L370.922961,703.736354 C370.922961,703.736354 353.745076,792.824782 344.201807,800.795852 C344.201807,800.795852 337.998682,821.426856 303.642913,829.866812 C303.642913,829.866812 244.951807,853.311135 230.159739,856.124454 L170.99147,856.124454 C170.99147,856.124454 87.9650279,831.742358 73.650124,821.426856 C73.650124,821.426856 50.7462779,818.144651 44.5431529,780.164847 C44.5431529,780.164847 29.2739221,729.993996 26.4109413,707.018559 L26.4109413,622.618996 C26.4109413,622.618996 33.0912298,592.141376 34.0455567,587.452511 C34.9998837,582.763646 32.6140663,220.783297 32.6140663,220.783297 C32.6140663,220.783297 26.8881048,207.654476 26.4109413,202.496725 C25.9337779,197.338974 28.7967587,104.968341 28.7967587,104.968341 L28.7967587,104.968341 Z" id="Stroke-1" stroke-width="3" filter="url(#filter-1)"></path>
                    <g id="Group-7" transform="translate(42.990385, 21.506550)" stroke-width="0.75">
                        <path d="M0.121277885,78.7729258 C0.121277885,78.7729258 11.0960375,54.8597162 19.2078163,48.7641921 C27.3195952,42.6686681 72.1729606,13.128821 79.807576,2.34443231 C79.807576,2.34443231 38.2943548,19.224345 17.776326,35.1664847 C17.776326,35.1664847 2.98425865,52.0463974 0.121277885,61.8930131 L0.121277885,78.7729258 L0.121277885,78.7729258 Z" id="Stroke-3"></path>
                        <path d="M309.401456,76.8096044 C309.401456,76.8096044 298.426696,52.8963948 290.314917,46.8008707 C282.203138,40.7053467 237.349773,11.1654996 229.715158,0.381110917 C229.715158,0.381110917 271.228379,17.2610236 291.746408,33.2031633 C291.746408,33.2031633 306.538475,50.083076 309.401456,59.9296917 L309.401456,76.8096044 L309.401456,76.8096044 Z" id="Stroke-5"></path>
                    </g>
                    <g id="Group-12" transform="translate(51.625000, 25.257642)" stroke-width="0.75">
                        <path d="M8.18738365,206.77893 C8.18738365,206.77893 3.06837404,196.887301 1.50709519,190.367904 C-2.46672212,181.305266 6.79406635,57.5567511 12.260451,43.7827424 C44.7724606,22.0376638 69.5849606,1.48168122 69.5849606,1.48168122 C69.5849606,1.48168122 32.9998837,38.9175764 8.18738365,206.77893 L8.18738365,206.77893 Z" id="Stroke-8"></path>
                        <path d="M285.687712,206.046342 C285.687712,206.046342 290.810538,196.154713 292.368,189.635316 C296.341817,180.572678 287.081029,56.8241629 281.618462,43.0501541 C249.102635,21.3050755 224.290135,0.749093013 224.290135,0.749093013 C224.290135,0.749093013 260.875212,38.1849882 285.687712,206.046342 L285.687712,206.046342 Z" id="Stroke-10"></path>
                    </g>
                    <g id="Group-17" transform="translate(60.076923, 197.807860)">
                        <path d="M0.0542057692,38.9175764 C0.0542057692,38.9175764 49.0417154,0.157545852 141.29459,0.157545852 C233.547465,0.157545852 275.53785,38.9175764 275.53785,38.9175764 L275.53785,110.814751 L262.177273,186.459266 C262.177273,186.459266 203.459446,163.326284 141.29459,163.326284 C79.1335519,163.326284 15.3234365,188.961245 15.3234365,188.961245 L3.23402308,116.441389 L0.0542057692,38.9175764 L0.0542057692,38.9175764 Z" id="Stroke-13"></path>
                        <path d="M15.3234365,188.961245 C15.3234365,188.961245 31.8638308,497.792376 35.0474654,555.311616 C42.6820808,639.71493 246.908042,636.590271 241.182081,549.688729 C246.270552,465.289166 262.177273,186.459266 262.177273,186.459266 C262.177273,186.459266 196.011879,161.514507 138.748446,163.356293 C81.4888308,165.198079 15.3234365,188.961245 15.3234365,188.961245 L15.3234365,188.961245 Z" id="Stroke-15"></path>
                    </g>
                    <g id="Group-36" transform="translate(51.625000, 236.318777)">
                        <path d="M25.3820644,180.433554 C25.3820644,180.433554 32.7036606,176.389877 45.9420837,171.442187 C66.8227567,163.632414 102.422968,153.568235 147.203805,153.568235 C220.366324,153.568235 268.983555,176.753733 268.983555,176.753733" id="Stroke-18"></path>
                        <path d="M38.5842231,426.210334 L254.632387,426.210334" id="Stroke-20"></path>
                        <path d="M245.177297,167.967551 L245.177297,426.211459" id="Stroke-22"></path>
                        <path d="M47.9503692,169.861477 L47.9503692,426.211084" id="Stroke-24"></path>
                        <path d="M47.9503692,288.607161 L245.179206,288.607161" id="Stroke-26"></path>
                        <path d="M138.69159,274.236354 L154.674658,274.236354" id="Stroke-28"></path>
                        <path d="M138.69159,279.394105 L154.674658,279.394105" id="Stroke-30"></path>
                        <path d="M8.50612885,0.406659389 L0.543225,36.0420306 L0.543225,74.8020611 C0.543225,74.8020611 23.1378692,164.828262 20.5955423,241.725642 L22.0270327,585.108079" id="Stroke-32"></path>
                        <path d="M270.627287,586.668533 L273.173432,242.333319 C273.173432,242.333319 280.174374,98.5464716 292.897461,74.1643755 L293.328816,36.0270262 L283.987864,0.406659389" id="Stroke-34"></path>
                    </g>
                    <g id="Group-45" transform="translate(0.000000, 262.576419)">
                        <path d="M344.95458,9.76975939 C344.95458,9.76975939 354.68108,0.388279039 362.643984,1.01471135" id="Stroke-37"></path>
                        <path d="M52.168225,9.7825131 C52.168225,9.7825131 42.540975,-0.296670306 32.8870038,0.986203057" id="Stroke-39"></path>
                        <path d="M344.95458,15.3963969 L395.419387,63.5341568 L395.419387,78.5385236 L357.883801,62.9114755 L357.246311,46.9693358 L344.523224,46.9693358 L344.95458,15.3963969 L344.95458,15.3963969 Z" id="Stroke-41"></path>
                        <path d="M51.3723163,16.3525502 L0.907508654,64.49031 L0.907508654,79.4946769 L38.4430952,63.8676288 L39.0805856,47.9254891 L51.8036721,47.9254891 L51.3723163,16.3525502 L51.3723163,16.3525502 Z" id="Stroke-43"></path>
                    </g>
                    <g id="Group-60" transform="translate(25.721154, 310.340611)">
                        <path d="M20.2607423,0.402867249 L20.2607423,228.285439 C20.2607423,228.285439 17.7184154,326.398994 47.9285885,384.544666" id="Stroke-46"></path>
                        <path d="M324.851358,0.402867249 L324.851358,228.285439 C324.851358,228.285439 327.679983,327.678116 297.46981,385.823789" id="Stroke-48"></path>
                        <path d="M8.25340096,150.809266 L20.2397471,157.054834" id="Stroke-50"></path>
                        <path d="M324.92236,157.054834 L336.538427,150.809266 L315.314196,332.921017 C315.314196,332.921017 328.342667,347.726576 332.159975,348.349257 C335.977283,348.971938 345.199898,326.465388 345.199898,326.465388" id="Stroke-52"></path>
                        <path d="M0.635581731,326.465763 C0.635581731,326.465763 9.85819712,348.972314 13.6755048,348.349632 C17.4928125,347.726951 30.5212837,332.921392 30.5212837,332.921392" id="Stroke-54"></path>
                        <path d="M47.308276,362.104886 L64.4861606,352.186999 L280.534324,352.186999 L296.532661,362.104886" id="Stroke-56"></path>
                        <path d="M70.1579163,511.005596 L70.1579163,511.005596 C70.1579163,511.005596 126.409762,548.152657 177.905243,545.875745 C229.400724,543.595081 274.567109,511.084369 274.567109,511.084369" id="Stroke-58"></path>
                    </g>
                </g>
            </g>
        </g>
    </g>
</svg>