<svg id="Calque_1" data-name="Calque 1" xmlns="http://www.w3.org/2000/svg" viewBox="0 0 109.05 68.49"><defs><style>.cls-1{fill:#1d1d1b;}</style></defs><title>control</title><path class="cls-1" d="M124.19,36.23c-1.41-.79-6.12-0.91-6.58-0.32s-1.22,4.53.11,6.64a2.08,2.08,0,0,0,.53.42c0.91,0.05,8.17.26,9.12-1.54C128.43,39.41,125.88,37.19,124.19,36.23Z" transform="translate(-18.56 -21.51)"/><path class="cls-1" d="M27.93,43a2.07,2.07,0,0,0,.53-0.42c1.33-2.1.56-6.06,0.11-6.64s-5.17-.47-6.58.32c-1.7,1-4.24,3.18-3.18,5.2C19.76,43.23,27,43,27.93,43Z" transform="translate(-18.56 -21.51)"/><path class="cls-1" d="M124.51,55.12a9.64,9.64,0,0,0-2.21-6.39s-5.54-4.34-6.49-5.11c-1.14-.93-2.12-3.61-2.12-3.61-3.39-7.57-9.81-14.46-11.72-15.62a16.2,16.2,0,0,0-5-1.63c-22.59-2.65-44.43-.32-48.48,0S44,24.51,44,24.51c-2.15,2.35-4.9,5.46-11,15.75A16.49,16.49,0,0,1,29.2,44.4L23.88,49a6.13,6.13,0,0,0-2.46,5.62s0,31.5,0,33.3S23.65,90,23.65,90s6.63,0,9.81,0,3.23-2.12,3.23-2.12,0-.69.11-3.34a2.1,2.1,0,0,1,2.31-2.17s64.18,0.31,67.87.26c2.88,0,2.74,2.09,2.74,2.09-0.08,1.43-.19,2.43.36,3.17a4.62,4.62,0,0,0,3,1.38s6.36,0.11,9.25,0,2.22-3.71,2.22-3.71ZM37.9,40.3s7.49-11.59,8.77-12.58a5.72,5.72,0,0,1,2.86-1.08,426,426,0,0,1,46.77.16,8.69,8.69,0,0,1,4.38,2,29.7,29.7,0,0,1,8.2,11.52c1.47,3.28-2,2.71-2,2.71S80,40.16,39.1,43C36.28,43.2,37.9,40.3,37.9,40.3ZM29.76,58.19c-1-4.34-.7-6,0.46-6,11.82-.22,17.63,4.17,17.63,4.17C54.75,60.36,30.64,61.84,29.76,58.19Zm68,16.26c-1.05,1.34-7.45,1.61-7.45,1.61L56.56,76s-5.92.61-7.92-1.77C46.5,71.68,46.51,71,47,69.34s5.23-5.29,5.23-5.29c4.67-2.33,38.32-2.55,40.79-.35,1.7,0.49,5.36,3.75,6.66,5.67C100.8,71,99.37,73.09,97.8,74.45Zm18.54-16.26c-0.88,3.65-25,2.17-18.09-1.85,0,0,5.8-4.39,17.63-4.17C117,52.16,117.39,53.84,116.34,58.19Z" transform="translate(-18.56 -21.51)"/></svg>