<svg id="Calque_1" data-name="Calque 1" xmlns="http://www.w3.org/2000/svg" viewBox="0 0 104.66 92.77"><defs><style>.cls-1{fill:#d80509;}</style></defs><title>Danger</title><path class="cls-1" d="M115.25,100.37L71,23.66a8,8,0,0,0-13.91,0l-44.3,76.72a8,8,0,0,0,7,12h88.6A8,8,0,0,0,115.25,100.37Zm-95.56,4L64,27.67l44.3,76.72H19.7Z" transform="translate(-11.67 -19.64)"/><path class="cls-1" d="M58.44,55.31l2.3,26.36a3.27,3.27,0,0,0,6.51,0l2.3-26.36a5.94,5.94,0,0,0,0-1A5.58,5.58,0,1,0,58.44,55.31Z" transform="translate(-11.67 -19.64)"/><circle class="cls-1" cx="52.33" cy="71.24" r="4.61"/></svg>