<?xml version="1.0" encoding="utf-8"?>
<!-- Generator: Adobe Illustrator 19.2.1, SVG Export Plug-In . SVG Version: 6.00 Build 0)  -->
<svg version="1.1" id="Calque_1" xmlns="http://www.w3.org/2000/svg" xmlns:xlink="http://www.w3.org/1999/xlink" x="0px" y="0px"
	 viewBox="0 0 159.455 124.485" enable-background="new 0 0 159.455 124.485" xml:space="preserve">
<path fill="#00D8EF" d="M77.145,107.731c0.396,0.394,0.954,0.638,1.558,0.638c0.634,0,1.211-0.269,1.612-0.7
	c0,0,9.934-11.05,10.561-11.697c0.585-0.604,0.658-1.01,0.658-1.01C91.75,93.575,90.908,93,89.722,93h-4.885l0.067-25h24.008
	L109,73.116v1.027c0,0.962,1.462,1.678,2.495,1.678c0.564,0,1.199-0.219,1.587-0.568l0.285-0.163l11.669-11.642
	c0.357-0.39,0.605-0.909,0.605-1.48c0-0.688-0.302-1.302-0.798-1.704l-12.535-11.424c-0.396-0.392-0.858-0.634-1.459-0.634
	c-1.211,0-1.849,0.935-1.849,2.146v5.542l-24.061-0.028l-0.022-23.829l4.759,0.031c1.211,0,2.183-1.561,2.183-2.772
	c0-0.617-0.26-1.175-0.671-1.574L80.233,16.178c-0.394-0.375-0.928-0.605-1.514-0.605c-0.607,0-1.158,0.247-1.555,0.646
	L66.179,27.77c-0.4,0.397-0.642,1.694-0.642,2.302c0,1.192,0.953,2.928,2.138,2.928h0.11H72v22.903l-23.288-0.045L49,50.452v-0.088
	c0-1.191-1.078-2.15-2.275-2.15c-0.605,0-1.189,0.245-1.586,0.642L33.614,60.385c-0.415,0.399-0.687,0.96-0.687,1.581
	c0,0.606,0.24,1.155,0.637,1.552l11.392,11.385c0.399,0.419,1.153,0.68,1.777,0.68c1.163,0,2.266-0.909,2.266-2.054v-0.286
	l-0.229-4.829l23.65,0.064l-0.027,23.924l-5.011,0.009c-1.211,0-2.02,0.982-2.02,2.193c0,0.525,0.271,1.007,0.579,1.385
	L77.145,107.731z"/>
</svg>
