<?xml version="1.0" encoding="utf-8"?>
<!-- Generator: Adobe Illustrator 19.2.0, SVG Export Plug-In . SVG Version: 6.00 Build 0)  -->
<svg version="1.1" id="Calque_1" xmlns="http://www.w3.org/2000/svg" xmlns:xlink="http://www.w3.org/1999/xlink" x="0px" y="0px"
	 viewBox="0 0 159.5 124.5" style="enable-background:new 0 0 159.5 124.5;" xml:space="preserve">
<style type="text/css">
	.st0{fill:#FFB519;}
</style>
<path class="st0" d="M77.1,107.7c0.4,0.4,1,0.6,1.6,0.6c0.6,0,1.2-0.3,1.6-0.7c0,0,9.9-11.1,10.6-11.7c0.6-0.6,0.7-1,0.7-1
	c0.2-1.4-0.6-2-1.8-2h-4.9l0.1-25h24l0.1,5.1v1c0,1,1.5,1.7,2.5,1.7c0.6,0,1.2-0.2,1.6-0.6l0.3-0.2L125,63.4
	c0.4-0.4,0.6-0.9,0.6-1.5c0-0.7-0.3-1.3-0.8-1.7l-12.5-11.4c-0.4-0.4-0.9-0.6-1.5-0.6c-1.2,0-1.8,0.9-1.8,2.1v5.5l-24.1,0l0-23.8
	l4.8,0c1.2,0,2.2-1.6,2.2-2.8c0-0.6-0.3-1.2-0.7-1.6l-11-11.5c-0.4-0.4-0.9-0.6-1.5-0.6c-0.6,0-1.2,0.2-1.6,0.6l-11,11.6
	c-0.4,0.4-0.6,1.7-0.6,2.3c0,1.2,1,2.9,2.1,2.9h0.1H72v22.9l-23.3,0l0.3-5.4v-0.1c0-1.2-1.1-2.2-2.3-2.2c-0.6,0-1.2,0.2-1.6,0.6
	L33.6,60.4c-0.4,0.4-0.7,1-0.7,1.6c0,0.6,0.2,1.2,0.6,1.6L45,74.9c0.4,0.4,1.2,0.7,1.8,0.7c1.2,0,2.3-0.9,2.3-2.1v-0.3l-0.2-4.8
	l23.6,0.1l0,23.9l-5,0c-1.2,0-2,1-2,2.2c0,0.5,0.3,1,0.6,1.4L77.1,107.7z"/>
</svg>
