<?xml version="1.0" encoding="utf-8"?>
<!-- Generator: Adobe Illustrator 19.2.1, SVG Export Plug-In . SVG Version: 6.00 Build 0)  -->
<svg version="1.1" id="Calque_1" xmlns="http://www.w3.org/2000/svg" xmlns:xlink="http://www.w3.org/1999/xlink" x="0px" y="0px"
	 viewBox="0 0 159.455 124.485" enable-background="new 0 0 159.455 124.485" xml:space="preserve">
<g>
	<g>
		<path fill="#FFFFFF" d="M60.559,67.481L60.559,67.481c-0.904-1.026-2.5-1.037-3.418-0.024l-1.165,1.285c0,0-1.593,2.24-2.19-1.244
			L50.65,53.411c0,0-1.095-5.077,2.688-2.887l12.743,6.471c0,0,3.086,1.643,0.348,2.937l-0.459,0.265
			c-1.092,0.63-1.483,2.033-0.844,3.119c1.128,1.916,2.746,5.327,3.792,10.404c0,0,1.294,5.675-1.692,9.856
			c0,0-9.607,13.49-5.426,18.169c0,0,3.733,5.376,6.272,8.064c0.432,0.458-0.398,0.896-1.344,1.892c0,0-0.642,0.84-1.548,1.468
			c-1.021,0.708-2.428,0.425-3.138-0.594c-1.659-2.383-5.24-7.603-6.166-9.585c-1.039-1.632-3.69-6.356,1.297-14.722
			c0.059-0.099,0.125-0.195,0.198-0.284c0.803-0.982,6.071-7.685,5.473-13.666c0,0-0.286-3.575-2.024-6.481
			C60.745,67.71,60.656,67.591,60.559,67.481z"/>
		<path fill="#FFFFFF" d="M81.673,67.481L81.673,67.481c-0.904-1.026-2.5-1.037-3.418-0.024l-1.165,1.285c0,0-1.593,2.24-2.19-1.244
			l-3.136-14.087c0,0-1.095-5.077,2.688-2.887l12.743,6.471c0,0,3.086,1.643,0.348,2.937l-0.459,0.265
			c-1.092,0.63-1.483,2.033-0.844,3.119c1.128,1.916,2.746,5.327,3.792,10.404c0,0,1.294,5.675-1.692,9.856
			c0,0-9.607,13.49-5.426,18.169c0,0,3.733,5.376,6.272,8.064c0.432,0.458-0.398,0.896-1.344,1.892c0,0-0.642,0.84-1.548,1.468
			c-1.021,0.708-2.428,0.425-3.138-0.594c-1.659-2.383-5.24-7.603-6.166-9.585c-1.039-1.632-3.69-6.356,1.297-14.722
			c0.059-0.099,0.125-0.195,0.198-0.284c0.803-0.982,6.071-7.685,5.473-13.666c0,0-0.286-3.575-2.024-6.481
			C81.86,67.71,81.77,67.591,81.673,67.481z"/>
		<path fill="#FFFFFF" d="M102.787,67.481L102.787,67.481c-0.904-1.026-2.5-1.037-3.418-0.024l-1.165,1.285
			c0,0-1.593,2.24-2.19-1.244l-3.136-14.087c0,0-1.095-5.077,2.688-2.887l12.743,6.471c0,0,3.086,1.643,0.348,2.937l-0.459,0.265
			c-1.092,0.63-1.483,2.033-0.844,3.119c1.128,1.916,2.746,5.327,3.792,10.404c0,0,1.294,5.675-1.692,9.856
			c0,0-9.607,13.49-5.426,18.169c0,0,3.733,5.376,6.272,8.064c0.432,0.458-0.398,0.896-1.344,1.892c0,0-0.642,0.84-1.548,1.468
			c-1.021,0.708-2.428,0.425-3.138-0.594c-1.659-2.383-5.24-7.603-6.166-9.585c-1.039-1.632-3.69-6.356,1.297-14.722
			c0.059-0.099,0.125-0.195,0.198-0.284c0.803-0.982,6.071-7.685,5.473-13.666c0,0-0.286-3.575-2.024-6.481
			C102.974,67.71,102.885,67.591,102.787,67.481z"/>
	</g>
	<path fill="none" stroke="#FFFFFF" stroke-width="7" stroke-miterlimit="10" d="M139.767,37.77
		c-16.393-9.647-36.734-15.36-58.771-15.36c-22.676,0-43.557,6.049-60.188,16.209c-7.261,4.436-8.399,13.923-2.259,19.645
		l36.795,34.289c2.094,1.951,5.337,2.444,7.923,1.099c5.073-2.639,10.918-4.144,17.141-4.144c6.012,0,11.67,1.407,16.621,3.883
		c2.579,1.29,5.769,0.79,7.839-1.139l37.294-34.754C148.347,51.732,147.164,42.123,139.767,37.77z"/>
</g>
</svg>
