<?xml version="1.0" encoding="utf-8"?>
<!-- Generator: Adobe Illustrator 19.2.1, SVG Export Plug-In . SVG Version: 6.00 Build 0)  -->
<svg version="1.1" id="Calque_1" xmlns="http://www.w3.org/2000/svg" xmlns:xlink="http://www.w3.org/1999/xlink" x="0px" y="0px"
	 viewBox="0 0 118.5 132.1" style="enable-background:new 0 0 118.5 132.1;" xml:space="preserve">
<style type="text/css">
	.st0{fill:#FFFFFF;}
</style>
<g>
	<g>
		<path class="st0" d="M44.7,47.6c0-4.3,1.6-8.1,4.2-10.8c2.5-2.7,5.9-4.3,9.5-4.3c3.7,0,7,1.5,9.5,4.3c2.5,2.7,4.2,6.5,4.2,10.8v15
			H27.9c-1.8,0-3.4,1.5-3.4,3.4v39.5c0,1.9,1.5,3.4,3.4,3.4h61.2c1.9,0,3.4-1.5,3.4-3.4V66c0-1.8-1.5-3.4-3.4-3.4l0,0h-4.5v-15
			c0-7.5-2.8-14.3-7.5-19.3c-4.6-5-11.3-8.2-18.6-8.2c-7.3,0-14,3.2-18.6,8.2c-4.7,5-7.5,11.8-7.5,19.3H44.7z"/>
	</g>
</g>
</svg>
