<?xml version="1.0" encoding="utf-8"?>
<!-- Generator: Adobe Illustrator 19.2.1, SVG Export Plug-In . SVG Version: 6.00 Build 0)  -->
<svg version="1.1" id="Calque_1" xmlns="http://www.w3.org/2000/svg" xmlns:xlink="http://www.w3.org/1999/xlink" x="0px" y="0px"
	 viewBox="0 0 159.455 124.485" enable-background="new 0 0 159.455 124.485" xml:space="preserve">
<path fill="#FFFFFF" d="M48.806,106.339c0,1.245,1.009,2.255,2.255,2.255c0.303,0,0.591-0.062,0.855-0.17l0.305-0.16l24.236-12.741
	c2.029-1.067,4.453-1.07,6.485-0.008l24.12,12.608c0.368,0.262,0.819,0.416,1.305,0.416c1.17,0,2.131-0.891,2.244-2.031
	l-0.092-0.863l-4.598-26.808c-0.389-2.266,0.363-4.577,2.009-6.182l19.588-19.094l0.211-0.206c0.356-0.399,0.579-0.919,0.579-1.495
	c0-1.245-1.009-2.255-2.255-2.255l-26.906-3.953c-2.27-0.334-4.232-1.761-5.248-3.819L81.796,17.31l-0.097-0.196
	c-0.375-0.723-1.122-1.223-1.994-1.223c-0.838,0-1.569,0.457-1.958,1.135L65.499,41.827c-1.018,2.06-2.984,3.488-5.258,3.819
	l-27.08,3.935l-0.04,0.013c-1.116,0.159-1.974,1.118-1.974,2.278c0,0.619,0.239,1.187,0.643,1.595l0.019,0.027L51.47,72.658
	c1.643,1.602,2.395,3.909,2.01,6.171L48.806,106.339z"/>
</svg>
