<svg id="Calque_1" data-name="Calque 1" xmlns="http://www.w3.org/2000/svg" viewBox="0 0 91.7 87.49"><defs><style>.cls-1{fill:#FFB414;}</style></defs><title>favoris</title><path class="cls-1" d="M27.1,98.33a2.12,2.12,0,0,0,2.93,2l0.29-.15,22.87-12a6.59,6.59,0,0,1,6.12,0L82.08,100a2.13,2.13,0,0,0,3.35-1.52l-0.09-.81L81,72.37a6.59,6.59,0,0,1,1.9-5.83l18.49-18,0.2-.19A2.12,2.12,0,0,0,100,44.79L74.61,41.06a6.59,6.59,0,0,1-5-3.6L58.24,14.31l-0.09-.18A2.12,2.12,0,0,0,54.42,14L42.86,37.45a6.59,6.59,0,0,1-5,3.6L12.34,44.76h0a2.17,2.17,0,0,0-1.86,2.15A2.13,2.13,0,0,0,11,48.43l0,0L29.62,66.54a6.59,6.59,0,0,1,1.9,5.82Z" transform="translate(-10.44 -12.97)"/></svg>