<?xml version="1.0" encoding="utf-8"?>
<!-- Generator: Adobe Illustrator 19.2.0, SVG Export Plug-In . SVG Version: 6.00 Build 0)  -->
<svg version="1.1" id="Calque_1" xmlns="http://www.w3.org/2000/svg" xmlns:xlink="http://www.w3.org/1999/xlink" x="0px" y="0px"
	 viewBox="0 0 159.5 124.5" style="enable-background:new 0 0 159.5 124.5;" xml:space="preserve">
<style type="text/css">
	.st0{fill:#FFB519;}
</style>
<path class="st0" d="M38.2,121.5c0,1.7,1.4,3,3,3c0.4,0,0.8-0.1,1.1-0.2l0.4-0.2l32.5-17.1c2.7-1.4,6-1.4,8.7,0l32.4,16.9
	c0.5,0.4,1.1,0.6,1.8,0.6c1.6,0,2.9-1.2,3-2.7l-0.1-1.2l-6.2-36c-0.5-3,0.5-6.1,2.7-8.3l26.3-25.6l0.3-0.3c0.5-0.5,0.8-1.2,0.8-2
	c0-1.7-1.4-3-3-3L105.8,40c-3-0.4-5.7-2.4-7-5.1L82.5,1.9l-0.1-0.3c-0.5-1-1.5-1.6-2.7-1.6c-1.1,0-2.1,0.6-2.6,1.5L60.6,34.8
	c-1.4,2.8-4,4.7-7.1,5.1l-36.4,5.3l-0.1,0c-1.5,0.2-2.7,1.5-2.7,3.1c0,0.8,0.3,1.6,0.9,2.1l0,0l26.4,25.7c2.2,2.2,3.2,5.2,2.7,8.3
	L38.2,121.5z"/>
</svg>
