<?xml version="1.0" encoding="utf-8"?>
<!-- Generator: Adobe Illustrator 19.2.1, SVG Export Plug-In . SVG Version: 6.00 Build 0)  -->
<svg version="1.1" id="Calque_1" xmlns="http://www.w3.org/2000/svg" xmlns:xlink="http://www.w3.org/1999/xlink" x="0px" y="0px"
	 viewBox="0 0 128 132.061" enable-background="new 0 0 128 132.061" xml:space="preserve">
<g>
	<g>
		<path fill="#FFFFFF" d="M15.766,41.944l34.075-16.843c0.432-0.214,0.98-0.087,1.267,0.356c0.109,0.169,0.152,0.373,0.152,0.575
			l0,6.764c0,0.052,0.042,0.094,0.094,0.094h1.363c19.044,0,34.481,15.438,34.481,34.481v48.085c0,1.401-1.135,2.536-2.536,2.536
			H69.467c-1.179,0-2.135-0.956-2.135-2.135V67.374c0-8.071-6.543-14.614-14.614-14.614h-1.363c-0.052,0-0.094,0.042-0.094,0.094
			l0,6.764c0,0.201-0.042,0.406-0.152,0.575c-0.286,0.444-0.835,0.57-1.267,0.356L15.766,43.707
			c-0.335-0.167-0.547-0.507-0.547-0.881C15.219,42.452,15.431,42.111,15.766,41.944L15.766,41.944z M15.766,41.944"/>
	</g>
</g>
</svg>
