<?xml version="1.0" encoding="utf-8"?>
<!-- Generator: Adobe Illustrator 19.2.1, SVG Export Plug-In . SVG Version: 6.00 Build 0)  -->
<svg version="1.1" id="Calque_1" xmlns="http://www.w3.org/2000/svg" xmlns:xlink="http://www.w3.org/1999/xlink" x="0px" y="0px"
	 viewBox="0 0 128 132.061" enable-background="new 0 0 128 132.061" xml:space="preserve">
<path fill="#FFFFFF" d="M66.988,39.851l4.651-4.651c0.14-0.14,0.253-0.312,0.295-0.506c0.11-0.509-0.185-0.98-0.634-1.132
	L35.808,21.551c-0.35-0.117-0.735-0.028-0.996,0.233c-0.26,0.26-0.35,0.645-0.233,0.995l12.011,35.492
	c0.152,0.45,0.623,0.744,1.132,0.634c0.194-0.042,0.366-0.155,0.506-0.295l4.715-4.715l0.184-0.184
	c2.253,2.542,3.624,5.884,3.624,9.548v47.051c0,1.573,1.275,2.848,2.848,2.848h14.139l-0.008,0.008c0.054,0,0.106-0.005,0.16-0.008
	l0,0c1.351,0,2.446-1.095,2.446-2.446V63.259C76.335,54.187,72.78,45.947,66.988,39.851z"/>
</svg>
