<?xml version="1.0" encoding="utf-8"?>
<!-- Generator: Adobe Illustrator 16.0.0, SVG Export Plug-In . SVG Version: 6.00 Build 0)  -->
<!DOCTYPE svg PUBLIC "-//W3C//DTD SVG 1.1//EN" "http://www.w3.org/Graphics/SVG/1.1/DTD/svg11.dtd">
<svg version="1.1" id="Calque_1" xmlns="http://www.w3.org/2000/svg" xmlns:xlink="http://www.w3.org/1999/xlink" x="0px" y="0px"
	 width="400px" height="400px" viewBox="0 0 400 400" enable-background="new 0 0 400 400" xml:space="preserve">
<g>
	<path fill="#FFFFFF" d="M151.915,213.141L151.915,213.141c-2.268-2.573-6.271-2.602-8.574-0.06l-2.922,3.224
		c0,0-3.996,5.619-5.494-3.121l-7.867-35.338c0,0-2.747-12.736,6.743-7.242l31.966,16.233c0,0,7.741,4.122,0.873,7.368l-1.151,0.665
		c-2.739,1.581-3.72,5.1-2.117,7.825c2.83,4.807,6.888,13.363,9.512,26.099c0,0,3.246,14.235-4.244,24.724
		c0,0-24.1,33.841-13.612,45.578c0,0,9.365,13.486,15.734,20.229c1.083,1.149-0.999,2.248-3.372,4.746c0,0-1.61,2.107-3.883,3.684
		c-2.561,1.775-6.091,1.065-7.872-1.49c-4.162-5.979-13.145-19.072-15.468-24.045c-2.606-4.094-9.256-15.944,3.253-36.931
		c0.148-0.248,0.313-0.489,0.497-0.712c2.014-2.464,15.229-19.279,13.729-34.282c0,0-0.717-8.968-5.077-16.258
		C152.381,213.715,152.158,213.417,151.915,213.141z"/>
	<path fill="#FFFFFF" d="M204.881,213.141L204.881,213.141c-2.268-2.573-6.272-2.602-8.575-0.06l-2.922,3.224
		c0,0-3.996,5.619-5.494-3.121l-7.867-35.338c0,0-2.747-12.736,6.743-7.242l31.966,16.233c0,0,7.742,4.122,0.873,7.368l-1.151,0.665
		c-2.739,1.581-3.72,5.1-2.117,7.825c2.829,4.807,6.889,13.363,9.513,26.099c0,0,3.246,14.235-4.244,24.724
		c0,0-24.1,33.841-13.611,45.578c0,0,9.363,13.486,15.732,20.229c1.084,1.149-0.998,2.248-3.371,4.746c0,0-1.61,2.107-3.883,3.684
		c-2.562,1.775-6.092,1.065-7.872-1.49c-4.161-5.979-13.145-19.072-15.468-24.045c-2.606-4.094-9.256-15.944,3.253-36.931
		c0.148-0.248,0.314-0.489,0.497-0.712c2.014-2.464,15.229-19.279,13.729-34.282c0,0-0.718-8.968-5.077-16.258
		C205.35,213.715,205.123,213.417,204.881,213.141z"/>
	<path fill="#FFFFFF" d="M257.846,213.141L257.846,213.141c-2.268-2.573-6.271-2.602-8.574-0.06l-2.922,3.224
		c0,0-3.996,5.619-5.494-3.121l-7.867-35.338c0,0-2.746-12.736,6.743-7.242l31.966,16.233c0,0,7.742,4.122,0.873,7.368l-1.15,0.665
		c-2.74,1.581-3.721,5.1-2.117,7.825c2.829,4.807,6.889,13.363,9.512,26.099c0,0,3.246,14.235-4.244,24.724
		c0,0-24.1,33.841-13.611,45.578c0,0,9.364,13.486,15.733,20.229c1.084,1.149-0.998,2.248-3.372,4.746c0,0-1.609,2.107-3.883,3.684
		c-2.561,1.775-6.09,1.065-7.871-1.49c-4.162-5.979-13.145-19.072-15.469-24.045c-2.605-4.094-9.256-15.944,3.254-36.931
		c0.148-0.248,0.314-0.489,0.497-0.712c2.015-2.464,15.229-19.279,13.729-34.282c0,0-0.718-8.968-5.078-16.258
		C258.314,213.715,258.092,213.417,257.846,213.141z"/>
</g>
<path fill="none" stroke="#FFFFFF" stroke-width="16" stroke-miterlimit="10" d="M350.611,138.61
	c-41.122-24.2-92.148-38.531-147.43-38.531c-56.883,0-109.264,15.174-150.984,40.661c-18.214,11.128-21.069,34.927-5.667,49.28
	l92.302,86.016c5.253,4.895,13.388,6.131,19.875,2.757c12.726-6.62,27.388-10.396,42.999-10.396c15.082,0,29.275,3.529,41.694,9.741
	c6.47,3.235,14.472,1.981,19.665-2.857l93.554-87.182C372.135,173.634,369.168,149.529,350.611,138.61z"/>
<path fill="#FFFFFF" stroke="#000000" stroke-miterlimit="10" d="M-122.5,317.5"/>
</svg>
