<svg id="Calque_1" data-name="Calque 1" xmlns="http://www.w3.org/2000/svg" viewBox="0 0 128.53 85.73"><defs><style>.cls-1{fill:#1d1d1b;stroke:#1d1d1b;stroke-miterlimit:10;stroke-width:0.2px;}.cls-2{fill:#009fe3;}</style></defs><title>Desambuage arriere</title><path class="cls-1" d="M77.84,12.86h-0.2c-33.71-.1-50.94,12.9-58.79,18.68-2.77,2-7.3,5.55-3.15,8.61L56.83,82.48a2.11,2.11,0,0,0,2.58.36c8.07-4.73,17.95-4.72,18.77-4.71h0.11c14.9,1,17.74,4.31,17.74,4.31s1.87,1.66,2.78.53c6.34-6.05,41.85-40.23,43.1-42.8,2.29-4.73-4.86-8.8-4.86-8.8C101.84,10.85,79.46,12.7,77.84,12.86Zm20,62.08a2.12,2.12,0,0,1-2.6.4c-2.63-1.51-8.91-4.4-18.39-4.22,0,0-8.86-.05-15.26,4.07a2.14,2.14,0,0,1-2.72-.31L25.43,39.43a2.12,2.12,0,0,1,.25-3.14c5.68-4.41,24.5-17.1,52.5-17h0.12c1.24-.09,25.46-1.61,52.3,17.06a2.14,2.14,0,0,1,.35,3.21Z" transform="translate(-13.92 -12.65)"/><path class="cls-1" d="M59.21,55.48h0a2.13,2.13,0,0,0-3.17,0L55,56.65s-1.48,2.08-2-1.16L50,42.41s-1-4.72,2.5-2.68l11.83,6s2.87,1.53.32,2.73l-0.43.25a2.12,2.12,0,0,0-.78,2.9A31.65,31.65,0,0,1,67,61.28s1.2,5.27-1.57,9.15c0,0-8.92,12.53-5,16.87a84.77,84.77,0,0,0,5.82,7.49c0.4,0.43-.37.83-1.25,1.76a7.22,7.22,0,0,1-1.44,1.36,2.1,2.1,0,0,1-2.91-.55,100.38,100.38,0,0,1-5.73-8.9c-1-1.52-3.43-5.9,1.2-13.67a2.19,2.19,0,0,1,.18-0.26c0.75-.91,5.64-7.14,5.08-12.69a15.8,15.8,0,0,0-1.88-6A2.25,2.25,0,0,0,59.21,55.48Z" transform="translate(-13.92 -12.65)"/><path class="cls-1" d="M77,55.48h0a2.13,2.13,0,0,0-3.17,0l-1.08,1.19s-1.48,2.08-2-1.16L67.76,42.41s-1-4.72,2.5-2.68l11.83,6s2.87,1.53.32,2.73L82,48.72a2.12,2.12,0,0,0-.78,2.9,31.65,31.65,0,0,1,3.52,9.66s1.2,5.27-1.57,9.15c0,0-8.92,12.53-5,16.87a84.77,84.77,0,0,0,5.82,7.49c0.4,0.43-.37.83-1.25,1.76a7.22,7.22,0,0,1-1.44,1.36,2.1,2.1,0,0,1-2.91-.55,100.38,100.38,0,0,1-5.73-8.9c-1-1.52-3.43-5.9,1.2-13.67A2.19,2.19,0,0,1,74,74.52c0.75-.91,5.64-7.14,5.08-12.69a15.8,15.8,0,0,0-1.88-6A2.25,2.25,0,0,0,77,55.48Z" transform="translate(-13.92 -12.65)"/><path class="cls-1" d="M94.72,55.48h0a2.13,2.13,0,0,0-3.17,0l-1.08,1.19s-1.48,2.08-2-1.16L85.51,42.41s-1-4.72,2.5-2.68l11.83,6s2.87,1.53.32,2.73l-0.43.25a2.12,2.12,0,0,0-.78,2.9,31.65,31.65,0,0,1,3.52,9.66s1.2,5.27-1.57,9.15c0,0-8.92,12.53-5,16.87a84.77,84.77,0,0,0,5.82,7.49c0.4,0.43-.37.83-1.25,1.76A7.22,7.22,0,0,1,99,97.91a2.1,2.1,0,0,1-2.91-.55,100.38,100.38,0,0,1-5.73-8.9c-1-1.52-3.43-5.9,1.2-13.67a2.19,2.19,0,0,1,.18-0.26c0.75-.91,5.64-7.14,5.08-12.69a15.8,15.8,0,0,0-1.88-6A2.25,2.25,0,0,0,94.72,55.48Z" transform="translate(-13.92 -12.65)"/><rect class="cls-2" x="99.73" y="62.28" width="7.83" height="7.83"/></svg>