<?xml version="1.0" encoding="utf-8"?>
<!-- Generator: Adobe Illustrator 19.2.0, SVG Export Plug-In . SVG Version: 6.00 Build 0)  -->
<svg version="1.1" id="Calque_1" xmlns="http://www.w3.org/2000/svg" xmlns:xlink="http://www.w3.org/1999/xlink" x="0px" y="0px"
	 viewBox="0 0 500 500" style="enable-background:new 0 0 500 500;" xml:space="preserve">
<style type="text/css">
	.st0{fill:#C4FB6B;}
</style>
<path class="st0" d="M249.8,484L47,367V133.1L249,15.4L454,133v232.5L249.8,484z M74,351.8l176.3,101.8L428,350.4V148.2L249.6,45.7
	L74,148.2V351.8z"/>
<path class="st0" d="M236.7,264.1c18.6,18.5,40.2,36.1,48.6,27.6c12.1-12.2,19.6-22.8,46.5-1.4s6.3,35.9-5.4,47.7
	c-13.5,13.6-64.3,1-114.5-48.9s-63.5-100.5-49.8-114.2c11.8-11.8,26-32.5,47.7-5.7s11.1,34.2-1,46.5
	C200.2,224.2,218.1,245.6,236.7,264.1z"/>
</svg>
