<?xml version="1.0" encoding="UTF-8" standalone="no"?>
<svg width="538px" height="528px" viewBox="0 0 538 528" version="1.1" xmlns="http://www.w3.org/2000/svg" xmlns:xlink="http://www.w3.org/1999/xlink" xmlns:sketch="http://www.bohemiancoding.com/sketch/ns">
    <!-- Generator: Sketch 3.5.2 (25235) - http://www.bohemiancoding.com/sketch -->
    <title>Zoom</title>
    <desc>Created with Sketch.</desc>
    <defs>
        <filter x="-50%" y="-50%" width="200%" height="200%" filterUnits="objectBoundingBox" id="filter-1">
            <feGaussianBlur stdDeviation="1" in="SourceGraphic" result="blur"></feGaussianBlur>
        </filter>
        <path id="path-2" d="M0,237.857889 C0,367.404676 104.944512,472.429022 234.398967,472.429022 L234.398967,472.429022 C363.853422,472.429022 468.801385,367.404676 468.801385,237.857889 L468.801385,237.857889 C468.801385,108.300979 363.853422,3.27663272 234.398967,3.27663272 L234.398967,3.27663272 C104.944512,3.27663272 0,108.300979 0,237.857889 L0,237.857889 Z"></path>
        <path id="path-4" d="M0,237.857889 C0,367.404676 104.944512,472.429022 234.398967,472.429022 L234.398967,472.429022 C363.853422,472.429022 468.801385,367.404676 468.801385,237.857889 L468.801385,237.857889 C468.801385,108.300979 363.853422,3.27663272 234.398967,3.27663272 L234.398967,3.27663272 C104.944512,3.27663272 0,108.300979 0,237.857889 L0,237.857889 Z"></path>
        <path id="path-6" d="M0,237.857889 C0,367.404676 104.944512,472.429022 234.398967,472.429022 L234.398967,472.429022 C363.853422,472.429022 468.801385,367.404676 468.801385,237.857889 L468.801385,237.857889 C468.801385,108.300979 363.853422,3.27663272 234.398967,3.27663272 L234.398967,3.27663272 C104.944512,3.27663272 0,108.300979 0,237.857889"></path>
        <path id="path-8" d="M0,237.857889 C0,367.404676 104.944512,472.429022 234.398967,472.429022 L234.398967,472.429022 C363.853422,472.429022 468.801385,367.404676 468.801385,237.857889 L468.801385,237.857889 C468.801385,108.300979 363.853422,3.27663272 234.398967,3.27663272 L234.398967,3.27663272 C104.944512,3.27663272 0,108.300979 0,237.857889 L0,237.857889 Z"></path>
        <path id="path-10" d="M0,237.857889 C0,367.404676 104.944512,472.429022 234.398967,472.429022 L234.398967,472.429022 C363.853422,472.429022 468.801385,367.404676 468.801385,237.857889 L468.801385,237.857889 C468.801385,108.300979 363.853422,3.27663272 234.398967,3.27663272 L234.398967,3.27663272 C104.944512,3.27663272 0,108.300979 0,237.857889"></path>
        <path id="path-12" d="M0,237.857889 C0,367.404676 104.944512,472.429022 234.398967,472.429022 L234.398967,472.429022 C363.853422,472.429022 468.801385,367.404676 468.801385,237.857889 L468.801385,237.857889 C468.801385,108.300979 363.853422,3.27663272 234.398967,3.27663272 L234.398967,3.27663272 C104.944512,3.27663272 0,108.300979 0,237.857889"></path>
        <path id="path-14" d="M0,237.857889 C0,367.404676 104.944512,472.429022 234.398967,472.429022 L234.398967,472.429022 C363.853422,472.429022 468.801385,367.404676 468.801385,237.857889 L468.801385,237.857889 C468.801385,108.300979 363.853422,3.27663272 234.398967,3.27663272 L234.398967,3.27663272 C104.944512,3.27663272 0,108.300979 0,237.857889"></path>
        <path id="path-16" d="M0,237.857889 C0,367.404676 104.944512,472.429022 234.398967,472.429022 L234.398967,472.429022 C363.853422,472.429022 468.801385,367.404676 468.801385,237.857889 L468.801385,237.857889 C468.801385,108.300979 363.853422,3.27663272 234.398967,3.27663272 L234.398967,3.27663272 C104.944512,3.27663272 0,108.300979 0,237.857889"></path>
        <path id="path-18" d="M0,237.857889 C0,367.404676 104.944512,472.429022 234.398967,472.429022 L234.398967,472.429022 C363.853422,472.429022 468.801385,367.404676 468.801385,237.857889 L468.801385,237.857889 C468.801385,108.300979 363.853422,3.27663272 234.398967,3.27663272 L234.398967,3.27663272 C104.944512,3.27663272 0,108.300979 0,237.857889"></path>
        <path id="path-20" d="M0,237.857889 C0,367.404676 104.944512,472.429022 234.398967,472.429022 L234.398967,472.429022 C363.853422,472.429022 468.801385,367.404676 468.801385,237.857889 L468.801385,237.857889 C468.801385,108.300979 363.853422,3.27663272 234.398967,3.27663272 L234.398967,3.27663272 C104.944512,3.27663272 0,108.300979 0,237.857889"></path>
    </defs>
    <g id="Page-1" stroke="none" stroke-width="1" fill="none" fill-rule="evenodd" sketch:type="MSPage">
        <g id="Artboard-8" sketch:type="MSArtboardGroup" transform="translate(-31.000000, -36.000000)">
            <g id="Zoom" sketch:type="MSLayerGroup" transform="translate(35.000000, 40.000000)">
                <ellipse id="Oval-569" stroke="#00D8EF" stroke-width="2" filter="url(#filter-1)" sketch:type="MSShapeGroup" cx="265" cy="260" rx="265" ry="260"></ellipse>
                <ellipse id="Oval-264" stroke="#4F5A7A" stroke-width="2" fill-opacity="0.2" fill="#131D41" sketch:type="MSShapeGroup" cx="265" cy="260.820189" rx="237.105263" ry="234.574132"></ellipse>
                <g id="Page-1" transform="translate(31.176471, 21.324921)">
                    <g id="Group-3" stroke="#4F5A7A" stroke-width="4" sketch:type="MSShapeGroup">
                        <path d="M177.216233,9.5633132 C177.216233,9.5633132 147.885738,50.0572294 63.3448983,109.110857 C63.3448983,109.110857 39.1903727,291.33348 56.4436053,431.37494 C56.4436053,431.37494 156.512354,451.621898 332.495326,451.621898 C332.495326,451.621898 473.971833,419.564215 482.59845,206.971155 C482.59845,206.971155 436.014722,-64.6755331 177.216233,9.5633132 L177.216233,9.5633132 Z" id="Stroke-1"></path>
                    </g>
                    <g id="Group-6">
                        <mask id="mask-3" sketch:name="Clip 5" fill="white">
                            <use xlink:href="#path-2"></use>
                        </mask>
                        <g id="Clip-5"></g>
                        <path d="M94.4007169,304.831452 L285.911598,350.387108 C285.911598,350.387108 323.86871,395.942763 335.945973,421.251461 C335.945973,421.251461 194.469466,424.625954 134.083152,404.378996 C134.083152,404.378996 77.1474843,384.132038 94.4007169,304.831452 L94.4007169,304.831452 Z" id="Stroke-4" stroke="#4F5A7A" stroke-width="4" sketch:type="MSShapeGroup" mask="url(#mask-3)"></path>
                    </g>
                    <g id="Group-9">
                        <mask id="mask-5" sketch:name="Clip 8" fill="white">
                            <use xlink:href="#path-4"></use>
                        </mask>
                        <g id="Clip-8"></g>
                        <path d="M128.907182,343.638122 L182.392203,355.448847 L185.842849,385.819284 L142.709768,370.634066 C142.709768,370.634066 125.456536,370.634066 128.907182,343.638122 L128.907182,343.638122 Z" id="Stroke-7" stroke="#4F5A7A" stroke-width="2" sketch:type="MSShapeGroup" mask="url(#mask-5)"></path>
                    </g>
                    <g id="Group-12">
                        <mask id="mask-7" sketch:name="Clip 11" fill="white">
                            <use xlink:href="#path-6"></use>
                        </mask>
                        <g id="Clip-11"></g>
                        <path d="M109.834424,327.421321 C109.606681,319.356282 101.870331,379.54374 140.552079,387.507543" id="Stroke-10" stroke="#F6FAFF" stroke-width="3" sketch:type="MSShapeGroup" mask="url(#mask-7)"></path>
                    </g>
                    <g id="Group-15">
                        <mask id="mask-9" sketch:name="Clip 14" fill="white">
                            <use xlink:href="#path-8"></use>
                        </mask>
                        <g id="Clip-14"></g>
                        <path d="M341.121943,181.102291 C341.121943,181.102291 241.056644,119.237711 105.328914,113.612431 L104.176398,170.978812 C104.176398,170.978812 104.179849,196.85105 174.341845,197.974756 L190.442561,187.851277 C190.442561,187.851277 325.017775,210.349022 341.121943,181.102291 L341.121943,181.102291 Z" id="Stroke-13" stroke="#7D89A8" stroke-width="2" sketch:type="MSShapeGroup" mask="url(#mask-9)"></path>
                    </g>
                    <g id="Group-18">
                        <mask id="mask-11" sketch:name="Clip 17" fill="white">
                            <use xlink:href="#path-10"></use>
                        </mask>
                        <g id="Clip-17"></g>
                        <path d="M320.418063,182.225997 C320.418063,182.225997 240.801296,133.862763 116.826469,125.986697 L117.26125,172.595194 C117.26125,172.595194 143.106592,189.33268 174.842188,186.514978" id="Stroke-16" stroke="#C0D2DD" stroke-width="3" sketch:type="MSShapeGroup" mask="url(#mask-11)"></path>
                    </g>
                    <g id="Group-21">
                        <mask id="mask-13" sketch:name="Clip 20" fill="white">
                            <use xlink:href="#path-12"></use>
                        </mask>
                        <g id="Clip-20"></g>
                        <path d="M163.989905,155.022522 C163.989905,165.078511 155.656594,173.231286 145.370217,173.231286 C135.08729,173.231286 126.750528,165.078511 126.750528,155.022522 C126.750528,144.963158 135.08729,136.813758 145.370217,136.813758 C155.656594,136.813758 163.989905,144.963158 163.989905,155.022522" id="Fill-19" fill="#FCFCFC" sketch:type="MSShapeGroup" mask="url(#mask-13)"></path>
                    </g>
                    <g id="Group-24">
                        <mask id="mask-15" sketch:name="Clip 23" fill="white">
                            <use xlink:href="#path-14"></use>
                        </mask>
                        <g id="Clip-23"></g>
                        <path d="M158.237677,37.1227977 C158.237677,37.1227977 180.094072,76.4963822 188.144431,119.237711" id="Stroke-22" stroke="#4F5A7A" stroke-width="3" sketch:type="MSShapeGroup" mask="url(#mask-15)"></path>
                    </g>
                    <g id="Group-27">
                        <mask id="mask-17" sketch:name="Clip 26" fill="white">
                            <use xlink:href="#path-16"></use>
                        </mask>
                        <g id="Clip-26"></g>
                        <path d="M214.597087,5.62865435 C214.597087,5.62865435 357.22611,116.983549 377.929989,175.477011" id="Stroke-25" stroke="#4F5A7A" stroke-width="3" sketch:type="MSShapeGroup" mask="url(#mask-17)"></path>
                    </g>
                    <g id="Group-30">
                        <mask id="mask-19" sketch:name="Clip 29" fill="white">
                            <use xlink:href="#path-18"></use>
                        </mask>
                        <g id="Clip-29"></g>
                        <path d="M481.449384,210.349022 C481.449384,210.349022 354.924529,223.283454 320.418063,286.835281 C320.418063,286.835281 288.21318,367.823113 441.190691,367.823113" id="Stroke-28" stroke="#4F5A7A" stroke-width="3" sketch:type="MSShapeGroup" mask="url(#mask-19)"></path>
                    </g>
                    <g id="Group-33">
                        <mask id="mask-21" sketch:name="Clip 32" fill="white">
                            <use xlink:href="#path-20"></use>
                        </mask>
                        <g id="Clip-32"></g>
                        <path d="M345.721654,186.727571 C345.721654,186.727571 384.831282,215.970927 392.88164,231.719686" id="Stroke-31" stroke="#4F5A7A" stroke-width="3" sketch:type="MSShapeGroup" mask="url(#mask-21)"></path>
                    </g>
                </g>
            </g>
        </g>
    </g>
</svg>