<?xml version="1.0" encoding="utf-8"?>
<!-- Generator: Adobe Illustrator 19.2.1, SVG Export Plug-In . SVG Version: 6.00 Build 0)  -->
<svg version="1.1" id="Calque_1" xmlns="http://www.w3.org/2000/svg" xmlns:xlink="http://www.w3.org/1999/xlink" x="0px" y="0px"
	 viewBox="0 0 357.9 351.8" style="enable-background:new 0 0 357.9 351.8;" xml:space="preserve">
<style type="text/css">
	.st0{opacity:0.3;}
	.st1{fill:#FFFFFF;}
	.st2{opacity:0.15;}
	.st3{fill:#C2E4ED;}
	.st4{opacity:0.3;fill:#FFFFFF;}
	.st5{fill:#2186A5;}
	.st6{opacity:0.1;}
</style>
<g class="st0">
	<path class="st1" d="M148.9,103.7C145,79.8,131,52.5,130.9,52.3l1.5-1.5c0.2,0.3,14.6,28.4,18.6,52.6L148.9,103.7z"/>
</g>
<g class="st0">
	<path class="st1" d="M141.7,152.8l-0.2,0c-1.7-0.1-40.8-2.6-43.1-16.8l0-36.3l0.5,0c0.8,0,83.8,2.5,144.3,41.1l0.4,0.3l-0.2,0.4
		c-0.4,0.7-10.8,18.1-91.3,3.6L141.7,152.8z M99.4,100.7v35.1c2.2,12.9,39.1,15.7,42,15.9l10.4-7.8l0.2,0c73,13.2,88.1-0.2,90.2-2.7
		C184.5,104.7,106.5,101,99.4,100.7z"/>
</g>
<g class="st2">
	<path class="st3" d="M140.3,145.2c-2.3,0-23-0.2-33.8-8.7l-0.4-0.3V107l1,0c0.7,0,67.9,1.4,123,32.8c0.5,0.3,0.6,0.9,0.4,1.4
		c-0.3,0.5-0.9,0.6-1.4,0.4c-51-29.1-112.4-32.2-121-32.5v26.1c10.7,8.1,32.1,8,32.3,8c0.5,0,1,0.4,1,1c0,0.6-0.4,1-1,1
		C140.4,145.2,140.3,145.2,140.3,145.2z"/>
</g>
<path class="st4" d="M230.6,214.3c-2.1-36.7,90.4-53.2,91.3-53.4l-0.2-2c-1.9,0.3-23.8,4.3-46,12.5c-4.5-8.3-26.7-26.2-27.7-27
	l-1.3,1.6c0.2,0.2,22.4,18.1,27,26.2c-23.4,9-46.4,22.8-45.2,42.3c2,35.7,40.1,38.9,62.9,40.7c2.1,0.2,5.4,0.5,7.3,0.7l1.3-1.9
	c-1.9-0.2-6.2-0.6-8.4-0.7C268.1,251.2,232.5,248.2,230.6,214.3z"/>
<g class="st0">
	<path class="st1" d="M201.9,290c-27,0-62.2-2-83.9-11.1c-38.8-16.3-26.2-62.6-26.1-63l0.4-1.4l118.9,28.4l0.3,0.4
		c22.9,26.4,28.8,42.8,29,43.5l0.6,1.8l-1.9,0.1C237.8,288.9,222.2,290,201.9,290z M94.4,218.1c-0.8,3.4-2.4,12.5-1.2,22.7
		c2,17,10.8,28.9,26,35.3c33.9,14.3,104.7,10.6,117.7,9.8c-2.2-5-9.5-19.6-27.4-40.3L94.4,218.1z"/>
</g>
<g>
	<path class="st3" d="M120.1,267.8c-0.1,0-0.3,0-0.4-0.1c-22.5-9.1-18.4-37.7-18.4-38c0.1-0.5,0.6-0.9,1.1-0.8
		c0.5,0.1,0.9,0.6,0.8,1.1c0,0.3-3.9,27.3,17.1,35.8c0.5,0.2,0.8,0.8,0.6,1.3C120.9,267.5,120.5,267.8,120.1,267.8z"/>
</g>
<g class="st0">
	<path class="st1" d="M220.1,307.3c-46.5,0-109.9-6-110.7-6l-5.7-3.4c0.9,0.1,95.8,8.9,139.3,6.3l-6.1,2.8
		C231,307.4,227.4,307.3,220.1,307.3z"/>
</g>
<g>
	
		<image style="overflow:visible;opacity:0.3;" width="1406" height="1391" xlink:href="F82F6D3E.png"  transform="matrix(0.24 0 0 0.24 10.3447 9.0038)">
	</image>
	<g>
		<g>
			<path class="st5" d="M179,336.8c-89.7,0-162.6-72.2-162.6-160.9S89.3,15,179,15s162.6,72.2,162.6,160.9S268.6,336.8,179,336.8z
				 M179,18C91,18,19.3,88.8,19.3,175.9S91,333.8,179,333.8s159.6-70.8,159.6-157.9S267,18,179,18z"/>
		</g>
	</g>
</g>
<path class="st4" d="M179,33.3c-80,0-145.2,64.4-145.2,143.6c0,79.2,65.1,143.6,145.2,143.6s145.2-64.4,145.2-143.6
	C324.1,97.7,259,33.3,179,33.3z M179,319.5c-79.5,0-144.2-64-144.2-142.6c0-64.8,43.9-119.6,103.9-136.9c-35.4,40.3-65,55-65.3,55.2
	l-0.7,0.4l-0.1,0.8C59.8,209.2,66,264.1,66.1,264.6l3.4,4.1c-0.1-0.6-6.7-59.3,6-171.3c4.8-2.8,35.2-21.3,68-58.7
	c7.3-1.8,14.8-3.1,22.4-3.8c1.2,1,99.9,81.6,98.3,102.5l2,0.2c1.7-21.9-93.1-99.4-97.4-102.9c3.3-0.2,6.7-0.4,10.1-0.4
	c79.5,0,144.2,64,144.2,142.6S258.5,319.5,179,319.5z"/>
<g class="st0">
	<path class="st1" d="M148.9,266.8l-0.8-0.3c-10.8-4.9-28-9.7-28.2-9.7c-8.8-3.9-6.4-16.9-6.4-17.1l0.1-0.3l0.3-0.1
		c0.9-0.2,9.7,1.6,16.4,3.2c15.6,3.7,16.2,5.2,16.4,5.6c1,2.6,2,17.2,2,17.8L148.9,266.8z M114.5,240.3c-0.3,2.2-1.4,12.4,5.8,15.5
		c0.1,0,16.6,4.6,27.5,9.4c-0.4-5.4-1.2-14.8-1.9-16.7C144.9,246.4,118.3,240.6,114.5,240.3z"/>
</g>
<g class="st6">
	<circle class="st1" cx="123.4" cy="124.7" r="10.8"/>
	<path class="st1" d="M123.4,136.5c-6.5,0-11.8-5.3-11.8-11.8s5.3-11.8,11.8-11.8s11.8,5.3,11.8,11.8S130,136.5,123.4,136.5z
		 M123.4,114.8c-5.4,0-9.8,4.4-9.8,9.8c0,5.4,4.4,9.8,9.8,9.8c5.4,0,9.8-4.4,9.8-9.8C133.3,119.2,128.9,114.8,123.4,114.8z"/>
</g>
<g>
	
		<image style="overflow:visible;" width="599" height="599" xlink:href="F82F6D42.png"  transform="matrix(0.24 0 0 0.24 51.5947 52.8373)">
	</image>
	<g>
		<g>
			<circle class="st1" cx="123.4" cy="124.7" r="10.8"/>
			<path class="st1" d="M123.4,136.5c-6.5,0-11.8-5.3-11.8-11.8s5.3-11.8,11.8-11.8s11.8,5.3,11.8,11.8S130,136.5,123.4,136.5z
				 M123.4,114.8c-5.4,0-9.8,4.4-9.8,9.8c0,5.4,4.4,9.8,9.8,9.8c5.4,0,9.8-4.4,9.8-9.8C133.3,119.2,128.9,114.8,123.4,114.8z"/>
		</g>
	</g>
</g>
<g>
	
		<image style="overflow:visible;" width="599" height="599" xlink:href="F82F6D45.png"  transform="matrix(0.24 0 0 0.24 51.5947 52.8373)">
	</image>
	<g>
		<g>
			<circle class="st1" cx="123.4" cy="124.7" r="10.8"/>
			<path class="st1" d="M123.4,136.5c-6.5,0-11.8-5.3-11.8-11.8s5.3-11.8,11.8-11.8s11.8,5.3,11.8,11.8S130,136.5,123.4,136.5z
				 M123.4,114.8c-5.4,0-9.8,4.4-9.8,9.8c0,5.4,4.4,9.8,9.8,9.8c5.4,0,9.8-4.4,9.8-9.8C133.3,119.2,128.9,114.8,123.4,114.8z"/>
		</g>
	</g>
</g>
<g>
	
		<image style="overflow:visible;" width="599" height="599" xlink:href="F82F6D46.png"  transform="matrix(0.24 0 0 0.24 51.5947 52.8373)">
	</image>
	<g>
		<g>
			<circle class="st1" cx="123.4" cy="124.7" r="10.8"/>
			<path class="st1" d="M123.4,136.5c-6.5,0-11.8-5.3-11.8-11.8s5.3-11.8,11.8-11.8s11.8,5.3,11.8,11.8S130,136.5,123.4,136.5z
				 M123.4,114.8c-5.4,0-9.8,4.4-9.8,9.8c0,5.4,4.4,9.8,9.8,9.8c5.4,0,9.8-4.4,9.8-9.8C133.3,119.2,128.9,114.8,123.4,114.8z"/>
		</g>
	</g>
</g>
<g>
	<path class="st3" d="M140.3,145.3c-2.3,0-23-0.2-33.8-8.7l-0.4-0.3v-29.2l1,0c0.7,0,67.9,1.4,123,32.8c0.5,0.3,0.6,0.9,0.4,1.4
		c-0.3,0.5-0.9,0.6-1.4,0.4c-51-29.1-112.4-32.2-121-32.5v26.1c10.7,8.1,32.1,8,32.3,8c0.5,0,1,0.4,1,1c0,0.6-0.4,1-1,1
		C140.4,145.3,140.3,145.3,140.3,145.3z"/>
</g>
</svg>
