<?xml version="1.0" encoding="utf-8"?>
<!-- Generator: Adobe Illustrator 19.2.1, SVG Export Plug-In . SVG Version: 6.00 Build 0)  -->
<svg version="1.1" id="Calque_2" xmlns="http://www.w3.org/2000/svg" xmlns:xlink="http://www.w3.org/1999/xlink" x="0px" y="0px"
	 viewBox="0 0 331.7 328.3" style="enable-background:new 0 0 331.7 328.3;" xml:space="preserve">
<style type="text/css">
	.st0{opacity:0.3;}
	.st1{fill:#FFFFFF;}
	.st2{opacity:0.15;}
	.st3{fill:#C2E4ED;}
	.st4{opacity:0.3;fill:#FFFFFF;}
	.st5{fill:#2186A5;}
	.st6{opacity:0.1;}
	.st7{opacity:0.5;}
</style>
<g class="st0">
	<path class="st1" d="M136,92c-3.9-23.9-17.9-51.1-18.1-51.4l1.5-1.5c0.2,0.3,14.6,28.4,18.6,52.6L136,92z"/>
</g>
<g class="st0">
	<path class="st1" d="M128.8,141.1l-0.2,0c-1.7-0.1-40.8-2.6-43.1-16.8l0-36.3l0.5,0c0.8,0,83.8,2.5,144.3,41.1l0.4,0.3l-0.2,0.4
		c-0.4,0.7-10.8,18.1-91.3,3.6L128.8,141.1z M86.5,89.1v35.1c2.2,12.9,39.1,15.7,42,15.9l10.4-7.8l0.2,0c73,13.2,88.1-0.2,90.2-2.7
		C171.6,93.1,93.6,89.3,86.5,89.1z"/>
</g>
<g class="st2">
	<path class="st3" d="M127.3,133.5c-2.3,0-23-0.2-33.8-8.7l-0.4-0.3V95.4l1,0c0.7,0,67.9,1.4,123,32.8c0.5,0.3,0.6,0.9,0.4,1.4
		c-0.3,0.5-0.9,0.6-1.4,0.4c-51-29.1-112.4-32.2-121-32.5v26.1c10.7,8.1,32.1,8,32.3,8c0.5,0,1,0.4,1,1c0,0.6-0.4,1-1,1
		C127.5,133.5,127.4,133.5,127.3,133.5z"/>
</g>
<path class="st4" d="M217.7,202.7c-2.1-36.7,90.4-53.2,91.3-53.4l-0.2-2c-1.9,0.3-23.8,4.3-46,12.5c-4.5-8.3-26.7-26.2-27.7-27
	l-1.3,1.6c0.2,0.2,22.4,18.1,27,26.2c-23.4,9-46.4,22.8-45.2,42.3c2,35.7,40.1,38.9,62.9,40.7c2.1,0.2,5.4,0.5,7.3,0.7l1.3-1.9
	c-1.9-0.2-6.2-0.6-8.4-0.7C255.2,239.6,219.6,236.6,217.7,202.7z"/>
<g class="st0">
	<path class="st1" d="M189,278.4c-27,0-62.2-2-83.9-11.1c-38.8-16.3-26.2-62.6-26.1-63l0.4-1.4l118.9,28.4l0.3,0.4
		c22.9,26.4,28.8,42.8,29,43.5l0.6,1.8l-1.9,0.1C224.8,277.2,209.3,278.4,189,278.4z M81.5,206.4c-0.8,3.4-2.4,12.5-1.2,22.7
		c2,17,10.8,28.9,26,35.3c33.9,14.3,104.7,10.6,117.7,9.8c-2.2-5-9.5-19.6-27.4-40.3L81.5,206.4z"/>
</g>
<g>
	<path class="st3" d="M107.2,256.1c-0.1,0-0.3,0-0.4-0.1c-22.5-9.1-18.4-37.7-18.4-38c0.1-0.5,0.6-0.9,1.1-0.8
		c0.5,0.1,0.9,0.6,0.8,1.1c0,0.3-3.9,27.3,17.1,35.8c0.5,0.2,0.8,0.8,0.6,1.3C107.9,255.9,107.6,256.1,107.2,256.1z"/>
</g>
<g class="st0">
	<path class="st1" d="M207.2,295.7c-46.5,0-109.9-6-110.7-6l-5.7-3.4c0.9,0.1,95.8,8.9,139.3,6.3l-6.1,2.8
		C218,295.7,214.5,295.7,207.2,295.7z"/>
</g>
<g>
	
		<image style="overflow:visible;opacity:0.3;" width="1406" height="1391" xlink:href="9B0BCD1C.png"  transform="matrix(0.24 0 0 0.24 -2.5812 -2.6248)">
	</image>
	<g>
		<g>
			<path class="st5" d="M166,325.1C76.4,325.1,3.4,253,3.4,164.3S76.4,3.4,166,3.4s162.6,72.2,162.6,160.9S255.7,325.1,166,325.1z
				 M166,6.4C78,6.4,6.4,77.2,6.4,164.3S78,322.1,166,322.1s159.6-70.8,159.6-157.9S254.1,6.4,166,6.4z"/>
		</g>
	</g>
</g>
<path class="st4" d="M166,21.7c-80,0-145.2,64.4-145.2,143.6c0,79.2,65.1,143.6,145.2,143.6s145.2-64.4,145.2-143.6
	C311.2,86.1,246.1,21.7,166,21.7z M166,307.9c-79.5,0-144.2-64-144.2-142.6c0-64.8,43.9-119.6,103.9-136.9
	c-35.4,40.3-65,55-65.3,55.2l-0.7,0.4l-0.1,0.8C46.8,197.5,53.1,252.4,53.2,253l3.4,4.1c-0.1-0.6-6.7-59.3,6-171.3
	c4.8-2.8,35.2-21.3,68-58.7c7.3-1.8,14.8-3.1,22.4-3.8c1.2,1,99.9,81.6,98.3,102.5l2,0.2C255,104,160.2,26.5,156,23.1
	c3.3-0.2,6.7-0.4,10.1-0.4c79.5,0,144.2,64,144.2,142.6S245.5,307.9,166,307.9z"/>
<g class="st0">
	<path class="st1" d="M136,255.2l-0.8-0.3c-10.8-4.9-28-9.7-28.2-9.7c-8.8-3.9-6.4-16.9-6.4-17.1l0.1-0.3l0.3-0.1
		c0.9-0.2,9.7,1.6,16.4,3.2c15.6,3.7,16.2,5.2,16.4,5.6c1,2.6,2,17.2,2,17.8L136,255.2z M101.6,228.6c-0.3,2.2-1.4,12.4,5.8,15.5
		c0.1,0,16.6,4.6,27.5,9.4c-0.4-5.4-1.2-14.8-1.9-16.7C132,234.7,105.4,228.9,101.6,228.6z"/>
</g>
<g class="st6">
	<circle class="st1" cx="110.5" cy="113" r="10.8"/>
	<path class="st1" d="M110.5,124.9c-6.5,0-11.8-5.3-11.8-11.8s5.3-11.8,11.8-11.8s11.8,5.3,11.8,11.8S117,124.9,110.5,124.9z
		 M110.5,103.2c-5.4,0-9.8,4.4-9.8,9.8c0,5.4,4.4,9.8,9.8,9.8c5.4,0,9.8-4.4,9.8-9.8C120.3,107.6,115.9,103.2,110.5,103.2z"/>
</g>
<g class="st7">
	
		<image style="overflow:visible;" width="599" height="599" xlink:href="9B0BCD1D.png"  transform="matrix(0.24 0 0 0.24 38.6688 41.2087)">
	</image>
	<g>
		<g>
			<circle class="st1" cx="110.5" cy="113" r="10.8"/>
			<path class="st1" d="M110.5,124.9c-6.5,0-11.8-5.3-11.8-11.8s5.3-11.8,11.8-11.8s11.8,5.3,11.8,11.8S117,124.9,110.5,124.9z
				 M110.5,103.2c-5.4,0-9.8,4.4-9.8,9.8c0,5.4,4.4,9.8,9.8,9.8c5.4,0,9.8-4.4,9.8-9.8C120.3,107.6,115.9,103.2,110.5,103.2z"/>
		</g>
	</g>
</g>
<g>
	<path class="st3" d="M127.3,133.5c-2.3,0-23-0.2-33.8-8.7l-0.4-0.3V95.4l1,0c0.7,0,67.9,1.4,123,32.8c0.5,0.3,0.6,0.9,0.4,1.4
		c-0.3,0.5-0.9,0.6-1.4,0.4c-51-29.1-112.4-32.2-121-32.5v26.1c10.7,8.1,32.1,8,32.3,8c0.5,0,1,0.4,1,1c0,0.6-0.4,1-1,1
		C127.5,133.5,127.4,133.5,127.3,133.5z"/>
</g>
</svg>
