<?xml version="1.0" encoding="utf-8"?>
<!-- Generator: Adobe Illustrator 19.2.1, SVG Export Plug-In . SVG Version: 6.00 Build 0)  -->
<svg version="1.1" id="Calque_1" xmlns="http://www.w3.org/2000/svg" xmlns:xlink="http://www.w3.org/1999/xlink" x="0px" y="0px"
	 viewBox="0 0 118.545 132.061" enable-background="new 0 0 118.545 132.061" xml:space="preserve">
<g>
	<path fill="#FFFFFF" stroke="#FFFFFF" stroke-width="4" stroke-miterlimit="10" d="M58.353,21.323
		c-25.648,0-46.515,20.867-46.515,46.516s20.867,46.516,46.515,46.516c25.649,0,46.516-20.867,46.516-46.516
		S84.002,21.323,58.353,21.323z M58.353,111.078c-23.842,0-43.238-19.397-43.238-43.239S34.511,24.6,58.353,24.6
		s43.239,19.397,43.239,43.239S82.195,111.078,58.353,111.078z"/>
	<path fill="#FFFFFF" stroke="#FFFFFF" stroke-width="3" stroke-miterlimit="10" d="M82.93,68.5H33.777
		c-0.906,0-1.638,0.595-1.638,1.5s0.733,1.5,1.638,1.5H82.93c0.906,0,1.638-0.595,1.638-1.5S83.835,68.5,82.93,68.5z"/>
</g>
</svg>
