<svg id="Calque_1" data-name="Calque 1" xmlns="http://www.w3.org/2000/svg" viewBox="0 0 87.73 87.8"><defs><style>.cls-1{fill:#FFB414;}</style></defs><title>move</title><path class="cls-1" d="M60.76,103.77a2.09,2.09,0,0,0,3-.06s9.4-10.45,10-11.07a2.29,2.29,0,0,0,.62-0.87c0.21-1.31-.59-1.77-1.71-1.77H68L68.1,66H90.81L91,71v1c0,0.91,1.33,1.59,2.31,1.59A2.31,2.31,0,0,0,94.78,73L95,72.88l11-11a2.09,2.09,0,0,0,.57-1.4,2.06,2.06,0,0,0-.76-1.61L94,48a1.78,1.78,0,0,0-1.33-.6,1.75,1.75,0,0,0-1.7,2v5.24l-22.82,0,0-22.55,4.49,0c1.15,0,2.06-1.48,2.06-2.62A2.08,2.08,0,0,0,74,28.07L63.68,17.15a2.08,2.08,0,0,0-2.9,0L50.38,28.11a4,4,0,0,0-.61,2.15c0,1.13.9,2.74,2,2.74H56V54.73l-22.15,0L34,49.57V49.49a2.08,2.08,0,0,0-3.56-1.43L19.56,59a2.07,2.07,0,0,0,0,3L30.3,72.71a2.34,2.34,0,0,0,1.62.64A2,2,0,0,0,34,71.41V71.14l-0.15-4.57,22.41,0.06V89.26H51.51a1.94,1.94,0,0,0-1.91,2.07,2.15,2.15,0,0,0,.55,1.31Z" transform="translate(-18.92 -16.57)"/></svg>