<?xml version="1.0" encoding="utf-8"?>
<!-- Generator: Adobe Illustrator 19.2.0, SVG Export Plug-In . SVG Version: 6.00 Build 0)  -->
<svg version="1.1" id="Calque_1" xmlns="http://www.w3.org/2000/svg" xmlns:xlink="http://www.w3.org/1999/xlink" x="0px" y="0px"
	 viewBox="0 0 159.5 124.5" style="enable-background:new 0 0 159.5 124.5;" xml:space="preserve">
<style type="text/css">
	.st0{fill:#FFB519;}
</style>
<path class="st0" d="M76.4,123.1c0.5,0.5,1.3,0.9,2.1,0.9c0.8,0,1.6-0.4,2.2-0.9c0,0,13.3-14.8,14.1-15.6c0.8-0.8,0.9-1.3,0.9-1.3
	c0.3-1.9-0.8-2.6-2.4-2.6h-6.5L86.8,70h32.1l0.1,6.8v1.4c0,1.3,2,2.2,3.3,2.2c0.8,0,1.6-0.3,2.1-0.8l0.4-0.2l15.6-15.5
	c0.5-0.5,0.8-1.2,0.8-2c0-0.9-0.4-1.7-1.1-2.3l-16.7-15.3c-0.5-0.5-1.1-0.8-1.9-0.8c-1.6,0-2.5,1.2-2.5,2.9v7.4l-32.1,0l0-31.8
	l6.4,0c1.6,0,2.9-2.1,2.9-3.7c0-0.8-0.3-1.6-0.9-2.1L80.6,0.8C80,0.3,79.3,0,78.5,0c-0.8,0-1.5,0.3-2.1,0.9L61.8,16.3
	c-0.5,0.5-0.9,2.3-0.9,3.1c0,1.6,1.3,3.9,2.9,3.9h0.1h5.6v30.6l-31.1-0.1l0.4-7.2v-0.1c0-1.6-1.4-2.9-3-2.9c-0.8,0-1.6,0.3-2.1,0.9
	L18.3,59.9c-0.6,0.5-0.9,1.3-0.9,2.1c0,0.8,0.3,1.5,0.9,2.1l15.2,15.2c0.5,0.6,1.5,0.9,2.4,0.9c1.6,0,3-1.2,3-2.7V77l-0.3-6.4
	l31.6,0.1l0,32l-6.7,0c-1.6,0-2.7,1.3-2.7,2.9c0,0.7,0.4,1.3,0.8,1.8L76.4,123.1z"/>
</svg>
