<?xml version="1.0" encoding="utf-8"?>
<!-- Generator: Adobe Illustrator 19.2.1, SVG Export Plug-In . SVG Version: 6.00 Build 0)  -->
<svg version="1.1" id="Calque_1" xmlns="http://www.w3.org/2000/svg" xmlns:xlink="http://www.w3.org/1999/xlink" x="0px" y="0px"
	 viewBox="0 0 118.545 132.061" enable-background="new 0 0 118.545 132.061" xml:space="preserve">
<path fill="#FFFFFF" d="M85.011,19.639l-20.608,4.128c-2.742,0.532-4.053,2.933-4.053,5.726v3.057v4.891v37.762
	c0,2.518-2.043,4.558-4.56,4.555l-4.678-0.006c-13.396,0-24.614,7.338-24.614,16.389c0,9.051,10.681,16.389,24.077,16.389
	s24.167-7.338,24.167-16.389c0-0.723,0.291-1.431,0.156-2.129c0.137-0.582,0.095-1.36,0.095-1.983l0.479-46.868
	c0.022-2.156,1.552-4.001,3.666-4.422l8.524-1.7c2.742-0.532,4.387-2.933,4.387-5.726v-7.948
	C92.049,21.698,88.611,18.941,85.011,19.639z"/>
</svg>
