<?xml version="1.0" encoding="utf-8"?>
<!-- Generator: Adobe Illustrator 19.2.1, SVG Export Plug-In . SVG Version: 6.00 Build 0)  -->
<svg version="1.1" id="Calque_1" xmlns="http://www.w3.org/2000/svg" xmlns:xlink="http://www.w3.org/1999/xlink" x="0px" y="0px"
	 viewBox="0 0 141.5 132.061" enable-background="new 0 0 141.5 132.061" xml:space="preserve">
<g>
	<path fill="#FFFFFF" d="M121.968,70.848v37.525c0,5.809-6.289,9.44-11.32,6.536L78.151,96.146L45.653,77.383
		c-5.031-2.905-5.031-10.166,0-13.071l32.498-18.762l32.498-18.762c5.031-2.905,11.32,0.726,11.32,6.536V70.848z"/>
	<path fill="#FFFFFF" d="M25.072,117L25.072,117c-4.906,0-8.92-4.014-8.92-8.92V32.92c0-4.906,4.014-8.92,8.92-8.92h0
		c4.906,0,8.92,4.014,8.92,8.92v75.161C33.992,112.986,29.978,117,25.072,117z"/>
</g>
</svg>
