<?xml version="1.0" encoding="utf-8"?>
<!-- Generator: Adobe Illustrator 19.2.1, SVG Export Plug-In . SVG Version: 6.00 Build 0)  -->
<svg version="1.1" id="Calque_1" xmlns="http://www.w3.org/2000/svg" xmlns:xlink="http://www.w3.org/1999/xlink" x="0px" y="0px"
	 viewBox="0 0 141.5 132.061" enable-background="new 0 0 141.5 132.061" xml:space="preserve">
<g>
	<path fill="#FFFFFF" d="M16.153,70.152V32.627c0-5.809,6.289-9.44,11.32-6.536L59.97,44.854l32.498,18.762
		c5.031,2.905,5.031,10.166,0,13.071L59.97,95.451l-32.498,18.762c-5.031,2.905-11.32-0.726-11.32-6.536V70.152z"/>
	<path fill="#FFFFFF" d="M113.049,24L113.049,24c4.906,0,8.92,4.014,8.92,8.92v75.161c0,4.906-4.014,8.92-8.92,8.92h0
		c-4.906,0-8.92-4.014-8.92-8.92V32.92C104.129,28.014,108.143,24,113.049,24z"/>
</g>
</svg>
