<svg id="Calque_1" data-name="Calque 1" xmlns="http://www.w3.org/2000/svg" viewBox="0 0 47.56 67.48"><defs><style>.cls-1{fill:#FFF;}</style></defs><title>music</title><path class="cls-1" d="M62.6,16.88l-15,3c-2,.39-2.94,2.13-2.94,4.15V57.2a3.3,3.3,0,0,1-3.31,3.3H38c-9.72,0-17.86,5.32-17.86,11.89s7.75,11.89,17.47,11.89S55.15,79,55.15,72.39a8.35,8.35,0,0,0,.11-1.54,6.88,6.88,0,0,0,.07-1.44l0.35-34a3.31,3.31,0,0,1,2.66-3.21L64.52,31a4,4,0,0,0,3.18-4.15V21A4.29,4.29,0,0,0,62.6,16.88Z" transform="translate(-20.14 -16.81)"/></svg>