<?xml version="1.0" encoding="utf-8"?>
<!-- Generator: Adobe Illustrator 19.2.1, SVG Export Plug-In . SVG Version: 6.00 Build 0)  -->
<svg version="1.1" id="Calque_1" xmlns="http://www.w3.org/2000/svg" xmlns:xlink="http://www.w3.org/1999/xlink" x="0px" y="0px"
	 viewBox="0 0 141.5 132.061" enable-background="new 0 0 141.5 132.061" xml:space="preserve">
<g id="Edit">
	<path fill="#FFFFFF" d="M79,41.491c-2.407-2.409-6.309-2.409-8.715,0l-2.179,2.181L37.603,74.207l0.008,0.008l-0.961,0.964
		c0,0-3.065,3.087-9.986,25.43c-0.049,0.156-0.097,0.311-0.146,0.47c-0.123,0.4-0.248,0.807-0.374,1.219
		c-0.111,0.364-0.224,0.736-0.337,1.111c-0.095,0.315-0.19,0.628-0.287,0.95c-0.219,0.731-0.442,1.476-0.668,2.245
		c-0.497,1.687-1.712,5.493-0.338,6.87c1.323,1.327,5.168,0.16,6.851-0.339c0.763-0.226,1.502-0.448,2.228-0.667
		c0.335-0.101,0.66-0.2,0.988-0.3c0.352-0.107,0.703-0.214,1.047-0.32c0.434-0.133,0.861-0.265,1.282-0.395
		c0.125-0.039,0.248-0.078,0.373-0.116c21.257-6.619,25.074-9.725,25.391-10.009c0.002-0.002,0.002-0.002,0.004-0.003
		c0.013-0.012,0.023-0.021,0.023-0.021l0.984-0.986l0.066,0.066l30.504-30.536l0,0l2.179-2.181c2.407-2.409,2.407-6.315,0-8.725
		L79,41.491z M59.189,97.357c-0.027,0.018-0.063,0.042-0.101,0.066c-0.021,0.014-0.047,0.03-0.072,0.045
		c-0.026,0.016-0.054,0.034-0.083,0.052c-0.026,0.016-0.054,0.032-0.083,0.05c-1.015,0.607-3.993,2.175-11.221,4.791
		c-0.845,0.306-1.764,0.63-2.728,0.964L34.626,93.039c0.335-0.971,0.659-1.897,0.966-2.748c2.611-7.258,4.177-10.245,4.78-11.259
		c0.015-0.024,0.028-0.046,0.041-0.068c0.021-0.035,0.041-0.067,0.059-0.097c0.015-0.024,0.03-0.048,0.043-0.068
		c0.024-0.038,0.048-0.074,0.066-0.101l0.752-0.754l18.623,18.643L59.189,97.357z M113.862,41.491L96.431,24.041
		c-2.407-2.409-6.308-2.409-8.715,0l-4.357,4.362c-2.407,2.409-2.407,6.315,0,8.724l17.431,17.449c2.406,2.409,6.309,2.409,8.715,0
		l4.358-4.362C116.268,47.806,116.268,43.9,113.862,41.491z"/>
</g>
</svg>
