<?xml version="1.0" encoding="utf-8"?>
<!-- Generator: Adobe Illustrator 19.2.1, SVG Export Plug-In . SVG Version: 6.00 Build 0)  -->
<svg version="1.1" id="Calque_1" xmlns="http://www.w3.org/2000/svg" xmlns:xlink="http://www.w3.org/1999/xlink" x="0px" y="0px"
	 viewBox="0 0 128 132.061" enable-background="new 0 0 128 132.061" xml:space="preserve">
<path fill="#FFFFFF" d="M105.84,80.12l-3.347-3.173c-1.148-1.169-1.787-2.746-1.777-4.385l0.059-9.198
	c0.011-1.728,0.743-3.374,2.019-4.539l2.743-2.497c2.128-1.944,2.636-5.096,1.227-7.61l-4.871-8
	c-1.636-2.919-5.292-4.014-8.262-2.474l-2.969,1.538c-2.485,1.287-5.084,0.221-6.977-1.84l-4.529-3.952
	c-1.008-1.097-1.588-2.52-1.633-4.008l-0.117-3.849c-0.102-3.36-2.611-6.027-5.972-6.013l-7.652,0.032l-7.43-0.032
	c-3.361-0.014-5.649,2.654-5.75,6.013l-0.117,3.849c-0.045,1.489-0.625,2.912-1.633,4.008l-4.529,3.952
	c-1.894,2.06-4.492,3.127-6.977,1.84l-2.969-1.538c-2.971-1.539-6.627-0.444-8.262,2.474l-4.871,8
	c-1.409,2.514-0.9,5.667,1.227,7.61l2.743,2.497c1.276,1.166,2.008,2.811,2.019,4.539l0.059,9.198
	c0.01,1.639-0.629,3.215-1.777,4.385l-3.347,3.173c-1.808,1.841-2.309,4.61-1.224,6.952l5.865,7.653
	c1.757,3.793,6.645,4.796,9.744,1.992l0.611-0.52c2.292-2.074,4.294-1.461,6.667,0.52l2.073,1.991
	c1.323,1.104,2.099,2.967,2.099,4.688v2.437c0,3.268,2.948,5.992,6.221,6.024l9.231,0.084l8.943-0.084
	c3.273-0.032,5.605-2.756,5.605-6.024v-2.437c0-1.721,1.778-3.584,3.101-4.688l2.903-1.991c2.373-1.98,4.462-2.593,6.754-0.52
	l0.655,0.52c3.1,2.805,8.009,1.801,9.766-1.992l5.875-7.653C108.138,84.73,107.648,81.961,105.84,80.12z M63.78,86.928
	c-9.645,0-20.898-9.356-20.898-20.898c0-11.542,11.253-20.898,20.898-20.898c11.542,0,20.898,9.356,20.898,20.898
	C84.678,77.572,75.322,86.928,63.78,86.928z"/>
</svg>
