<svg id="Calque_1" data-name="Calque 1" xmlns="http://www.w3.org/2000/svg" viewBox="0 0 71.68 75.44"><defs><style>.cls-1{fill:#F1304F;}</style></defs><title>parameter</title><path class="cls-1" d="M93.29,66.72l-2.75-2.61a5.1,5.1,0,0,1-1.46-3.6l0-7.56a5.1,5.1,0,0,1,1.66-3.73L93,47.17a5.09,5.09,0,0,0,1-6.25l-4-6.57a5.09,5.09,0,0,0-6.79-2l-2.44,1.26c-2,1.06-4.18.18-5.73-1.51l-3.72-3.25A5.09,5.09,0,0,1,70,25.53l-0.1-3.16A4.92,4.92,0,0,0,65,17.42l-6.29,0-6.1,0a4.77,4.77,0,0,0-4.72,4.94l-0.1,3.16a5.09,5.09,0,0,1-1.34,3.29l-3.72,3.25c-1.56,1.69-3.69,2.57-5.73,1.51l-2.44-1.26a5.09,5.09,0,0,0-6.79,2l-4,6.57a5.09,5.09,0,0,0,1,6.25l2.25,2.05A5.1,5.1,0,0,1,28.71,53l0,7.56a5.1,5.1,0,0,1-1.46,3.6l-2.75,2.61a5.1,5.1,0,0,0-1,5.71l4.82,6.29a5.06,5.06,0,0,0,8,1.64l0.5-.43c1.88-1.7,3.53-1.2,5.48.43L44.16,82A5.29,5.29,0,0,1,46,85.84v2a5.07,5.07,0,0,0,5,4.95l7.53,0.07,7.11-.07c2.69,0,4.37-2.26,4.37-4.95v-2c0-1.41,1.67-2.94,2.76-3.85l2.49-1.64c1.95-1.63,3.72-2.13,5.6-.43l0.56,0.43a5.09,5.09,0,0,0,8-1.64l4.83-6.29A5.09,5.09,0,0,0,93.29,66.72ZM58.74,72.31c-7.92,0-17.17-7.69-17.17-17.17S50.82,38,58.74,38A17.17,17.17,0,0,1,58.74,72.31Z" transform="translate(-23.08 -17.42)"/></svg>