<?xml version="1.0" encoding="utf-8"?>
<!-- Generator: Adobe Illustrator 19.2.1, SVG Export Plug-In . SVG Version: 6.00 Build 0)  -->
<svg version="1.1" id="Calque_1" xmlns="http://www.w3.org/2000/svg" xmlns:xlink="http://www.w3.org/1999/xlink" x="0px" y="0px"
	 viewBox="0 0 100 100" style="enable-background:new 0 0 100 100;" xml:space="preserve">
<style type="text/css">
	.st0{fill:#00D8EF;}
	.st1{fill:#00D8EF;stroke:#00D8EF;stroke-width:3;stroke-miterlimit:10;}
</style>
<g>
	<path class="st0" d="M41.8,74.7L41.8,74.7c-2.6,0-4.7-2.1-4.7-4.7V30.6c0-2.6,2.1-4.7,4.7-4.7l0,0c2.6,0,4.7,2.1,4.7,4.7v39.4
		C46.5,72.6,44.4,74.7,41.8,74.7z"/>
	<path class="st0" d="M58.1,74.7L58.1,74.7c-2.6,0-4.7-2.1-4.7-4.7V30.6c0-2.6,2.1-4.7,4.7-4.7l0,0c2.6,0,4.7,2.1,4.7,4.7v39.4
		C62.7,72.6,60.7,74.7,58.1,74.7z"/>
</g>
<g>
	<path class="st1" d="M49.8,2.7C23.6,2.7,2.2,24.1,2.2,50.3S23.6,98,49.9,98s47.7-21.3,47.7-47.7S76.2,2.7,49.8,2.7z M49.8,94.6
		c-24.4,0-44.3-19.9-44.3-44.3S25.4,6,49.8,6s44.3,19.9,44.3,44.3S74.4,94.6,49.8,94.6z"/>
</g>
</svg>
