<?xml version="1.0" encoding="utf-8"?>
<!-- Generator: Adobe Illustrator 19.2.0, SVG Export Plug-In . SVG Version: 6.00 Build 0)  -->
<svg version="1.1" id="Calque_1" xmlns="http://www.w3.org/2000/svg" xmlns:xlink="http://www.w3.org/1999/xlink" x="0px" y="0px"
	 viewBox="0 0 80 79.6" style="enable-background:new 0 0 80 79.6;" xml:space="preserve">
<style type="text/css">
	.st0{opacity:0.3;}
	.st1{fill:#FFB414;}
	.st2{fill:#F1304E;}
</style>
<title>phone</title>
<g class="st0">
	<path class="st1" d="M33.9,45.9c7.9,7.9,17.1,15.4,20.7,11.8c5.2-5.2,8.3-9.7,19.8-0.6s2.7,15.3-2.3,20.3
		c-5.8,5.8-27.3,0.4-48.7-20.8S-3.7,13.8,2.1,8c5-5,11.1-13.8,20.3-2.4s4.7,14.6-0.4,19.8C18.4,29,26,38.1,33.9,45.9z"/>
</g>
<path class="st2" d="M33.9,45.9c7.9,7.9,17.1,15.4,20.7,11.8c5.2-5.2,8.3-9.7,19.8-0.6s2.7,15.3-2.3,20.3
	c-5.8,5.8-27.3,0.4-48.7-20.8S-3.7,13.8,2.1,8c5-5,11.1-13.8,20.3-2.4s4.7,14.6-0.4,19.8C18.4,29,26,38.1,33.9,45.9z"/>
</svg>
