<svg id="Calque_1" data-name="Calque 1" xmlns="http://www.w3.org/2000/svg" viewBox="0 0 79.96 79.58"><defs><style>.cls-1{opacity:0.3;}.cls-2{fill:#FFB414;}</style></defs><title>phone</title><g class="cls-1"><path class="cls-2" d="M81.23,77.2c7.92,7.86,17.09,15.38,20.69,11.75,5.15-5.19,8.33-9.71,19.77-.59s2.7,15.27-2.29,20.3c-5.76,5.8-27.34.41-48.73-20.82s-27-42.77-21.19-48.58c5-5,11.07-13.81,20.28-2.44s4.72,14.57-.44,19.77C65.73,60.22,73.31,69.33,81.23,77.2Z" transform="translate(-47.35 -31.26)"/></g><path class="cls-2" d="M81.23,77.2c7.92,7.86,17.09,15.38,20.69,11.75,5.15-5.19,8.33-9.71,19.77-.59s2.7,15.27-2.29,20.3c-5.76,5.8-27.34.41-48.73-20.82s-27-42.77-21.19-48.58c5-5,11.07-13.81,20.28-2.44s4.72,14.57-.44,19.77C65.73,60.22,73.31,69.33,81.23,77.2Z" transform="translate(-47.35 -31.26)"/></svg>