<?xml version="1.0" encoding="utf-8"?>
<!-- Generator: Adobe Illustrator 19.2.1, SVG Export Plug-In . SVG Version: 6.00 Build 0)  -->
<svg version="1.1" id="Calque_1" xmlns="http://www.w3.org/2000/svg" xmlns:xlink="http://www.w3.org/1999/xlink" x="0px" y="0px"
	 viewBox="0 0 100 100" style="enable-background:new 0 0 100 100;" xml:space="preserve">
<style type="text/css">
	.st0{fill:#00D8EF;stroke:#00D8EF;stroke-width:3;stroke-miterlimit:10;}
	.st1{fill:#00D8EF;}
</style>
<g>
	<path class="st0" d="M49.8,2.7C23.6,2.7,2.2,24.1,2.2,50.3S23.6,98,49.9,98s47.7-21.3,47.7-47.7S76.2,2.7,49.8,2.7z M49.8,94.6
		c-24.4,0-44.3-19.9-44.3-44.3S25.4,6,49.8,6s44.3,19.9,44.3,44.3S74.4,94.6,49.8,94.6z"/>
</g>
<path class="st1" d="M33.7,50V31.6c0-2.9,3.1-4.6,5.6-3.2l15.9,9.2l15.9,9.2c2.5,1.4,2.5,5,0,6.4l-15.9,9.2l-15.9,9.2
	c-2.5,1.4-5.6-0.4-5.6-3.2C33.7,68.4,33.7,50,33.7,50z"/>
</svg>
