<?xml version="1.0" encoding="utf-8"?>
<!-- Generator: Adobe Illustrator 19.2.1, SVG Export Plug-In . SVG Version: 6.00 Build 0)  -->
<svg version="1.1" id="Calque_1" xmlns="http://www.w3.org/2000/svg" xmlns:xlink="http://www.w3.org/1999/xlink" x="0px" y="0px"
	 viewBox="0 0 159.455 124.485" enable-background="new 0 0 159.455 124.485" xml:space="preserve">
<g>
	<path fill="#FFFFFF" stroke="#FFFFFF" stroke-width="4" stroke-miterlimit="10" d="M79.727,12.641
		c-25.728,0-46.659,20.931-46.659,46.66s20.931,46.66,46.659,46.66c25.728,0,46.66-20.931,46.66-46.66S105.455,12.641,79.727,12.641
		z M79.727,102.673c-23.916,0-43.372-19.457-43.372-43.373s19.456-43.373,43.372-43.373s43.373,19.457,43.373,43.373
		S103.642,102.673,79.727,102.673z"/>
	<path fill="#FFFFFF" stroke="#FFFFFF" stroke-width="3" stroke-miterlimit="10" d="M102.553,59.205l-21.545,0l0-24.556
		c0,0.101-0.728-0.707-1.625-0.639c-0.838,0.064-1.375,0.773-1.375,1.639v23.556l-20.756,0c-0.899,0-1.707,0.727-1.639,1.623
		c0.063,0.838,0.772,1.377,1.639,1.377h20.756v22.748c0,0.899,0.728,1.707,1.625,1.639c0.838-0.064,1.375-0.773,1.375-1.639V62.205
		h21.548c0.865,0,1.573-0.537,1.639-1.373C104.265,59.934,103.454,59.205,102.553,59.205z"/>
</g>
</svg>
