<?xml version="1.0" encoding="utf-8"?>
<!-- Generator: Adobe Illustrator 19.2.1, SVG Export Plug-In . SVG Version: 6.00 Build 0)  -->
<svg version="1.1" id="Calque_1" xmlns="http://www.w3.org/2000/svg" xmlns:xlink="http://www.w3.org/1999/xlink" x="0px" y="0px"
	 viewBox="0 0 159.455 124.485" enable-background="new 0 0 159.455 124.485" xml:space="preserve">
<g>
	<path fill="#FFFFFF" d="M89.405,34.912c14.6,4.479,25.006,18.547,23.872,34.857c-1.211,17.419-15.846,31.222-33.305,31.488
		C60.989,101.546,45.98,86.252,45.98,67.344c0-15.26,11.396-28.167,24.396-32.427V26.64c-22,4.475-32.377,21.001-32.377,40.704
		c0,23.362,18.89,42.259,42.34,41.893c22.146-0.345,40.381-18.378,41.094-40.516c0.654-20.297-13.196-37.488-31.934-42.076
		L89.405,34.912z"/>
	<path fill="#FFFFFF" d="M83.727,55.077c0,2.721-1.283,5.165-3.517,5.165H79.82c-2.234,0-4.092-2.444-4.092-5.165V20.169
		c0-2.721,1.858-4.927,4.092-4.927h0.391c2.234,0,3.517,2.206,3.517,4.927V55.077z"/>
</g>
</svg>
