<?xml version="1.0" encoding="utf-8"?>
<!-- Generator: Adobe Illustrator 19.2.1, SVG Export Plug-In . SVG Version: 6.00 Build 0)  -->
<svg version="1.1" id="Calque_1" xmlns="http://www.w3.org/2000/svg" xmlns:xlink="http://www.w3.org/1999/xlink" x="0px" y="0px"
	 viewBox="0 0 141.5 132.061" enable-background="new 0 0 141.5 132.061" xml:space="preserve">
<g>
	<path fill="#FFFFFF" d="M91.476,39.927h-42.52l3.563-8.709c0.758-1.859,0.204-3.984-1.362-5.239
		c-1.567-1.255-3.773-1.324-5.421-0.179L16.945,45.797c-1.261,0.876-1.993,2.332-1.946,3.866c0.047,1.533,0.867,2.94,2.18,3.736
		l30.105,18.28c1.713,1.04,3.903,0.833,5.389-0.509c1.488-1.341,1.919-3.523,1.062-5.333l-3.957-8.371h41.698
		c3.077,0,5.58,2.551,5.58,5.628v30.497c0,3.077-2.503,5.534-5.58,5.534H45.33c-4.116,0-7.453,3.337-7.453,7.453v2.634
		c0,4.117,3.337,7.454,7.453,7.454h46.145c12.749,0,23.12-10.325,23.12-23.075V63.096C114.597,50.346,104.225,39.927,91.476,39.927z
		"/>
</g>
</svg>
