<?xml version="1.0" encoding="utf-8"?>
<!-- Generator: Adobe Illustrator 19.2.1, SVG Export Plug-In . SVG Version: 6.00 Build 0)  -->
<svg version="1.1" id="Calque_1" xmlns="http://www.w3.org/2000/svg" xmlns:xlink="http://www.w3.org/1999/xlink" x="0px" y="0px"
	 viewBox="0 0 141.5 132.061" enable-background="new 0 0 141.5 132.061" xml:space="preserve">
<g>
	<path opacity="0.2" fill="#FFFFFF" d="M134.431,24.042c0-2.152-1.744-3.896-3.896-3.896H119.28c-2.152,0-3.896,1.744-3.896,3.896
		v83.978c0,2.152,1.744,3.896,3.896,3.896h11.255c2.152,0,3.896-1.744,3.896-3.896V24.042z"/>
	<path opacity="0.2" fill="#FFFFFF" d="M106.727,39.625c0-2.152-1.744-3.896-3.896-3.896H91.576c-2.152,0-3.896,1.744-3.896,3.896
		v68.394c0,2.152,1.744,3.896,3.896,3.896h11.255c2.152,0,3.896-1.744,3.896-3.896V39.625z"/>
	<path fill="#FFFFFF" d="M77.291,60.403c0-2.152-1.744-3.896-3.896-3.896H62.141c-2.152,0-3.896,1.744-3.896,3.896v47.616
		c0,2.152,1.744,3.896,3.896,3.896h11.255c2.152,0,3.896-1.744,3.896-3.896V60.403z"/>
	<path fill="#FFFFFF" d="M49.588,79.449c0-2.152-1.744-3.896-3.896-3.896H34.437c-2.152,0-3.896,1.744-3.896,3.896v28.57
		c0,2.152,1.744,3.896,3.896,3.896h11.255c2.152,0,3.896-1.744,3.896-3.896V79.449z"/>
	<path fill="#FFFFFF" d="M21.884,96.764c0-2.152-1.744-3.896-3.896-3.896H6.733c-2.152,0-3.896,1.744-3.896,3.896v11.255
		c0,2.152,1.744,3.896,3.896,3.896h11.255c2.152,0,3.896-1.744,3.896-3.896V96.764z"/>
</g>
</svg>
