<svg id="Calque_1" data-name="Calque 1" xmlns="http://www.w3.org/2000/svg" viewBox="0 0 91.72 89.68"><defs><style>.cls-1{fill:#1d1d1b;}</style></defs><title>siège chauffant</title><path class="cls-1" d="M110.71,21.54l-4.32-1.22c-9.18-2.18-12,8-12,8l-14.7,40c-0.75,2.3-4.14,1.84-4.14,1.84L31.2,68.35c-13-.32-7.57,11.26-7.57,11.26l10.79,21.57c2.88,4.33,6.67,4,6.67,4l47.56,0c5.4,0.29,6.43-6.55,6.43-6.55l18.61-69C115.88,23.31,110.71,21.54,110.71,21.54ZM105,34.92L88.09,97.66c-0.13.93-.41,1-1.56,0.9L42.81,98.1c-2.3,0-2.76-1.49-2.76-1.49L32,79.95c-2-3.73,1.61-3.56,1.61-3.56l44.46,1c6.66-.11,8.85-8,8.85-8l11.37-33c3.16-10.86,6.24-9.89,6.24-9.89C107.78,27.22,105,34.92,105,34.92Z" transform="translate(-22.51 -20.02)"/><path class="cls-1" d="M42.93,48.53l5.12,8.9s1.8,2.07-.5,1.9l-1.41.08c-0.23,0-.42,0-0.25.27a8.85,8.85,0,0,0,.72,2.24s0,0.67,3.62,14.86c0,0,.42,2.63.63,3.81,0.39,2.22.14,6.63-1.49,12.26a150.68,150.68,0,0,0-3.73,16.4s-0.06.4-.86,0.46l-4.06-.19s-1.85.11-1.16-1.55c0,0,3.54-14.1,4.08-16.3,1.44-5.89.62-6.89,0.27-10-0.26-2.35-2-16.46-3.49-21,0,0,0-1.18-.73-1.12l-2.37.49s-1.46.24-.4-1.44l5.34-9.71S42.55,47.87,42.93,48.53Z" transform="translate(-22.51 -20.02)"/><path class="cls-1" d="M56.72,48.53l5.12,8.9s1.8,2.07-.5,1.9l-1.41.08c-0.23,0-.42,0-0.25.27a8.85,8.85,0,0,0,.72,2.24s0,0.67,3.62,14.86c0,0,.42,2.63.63,3.81,0.39,2.22.14,6.63-1.49,12.26a150.68,150.68,0,0,0-3.73,16.4s-0.06.4-.86,0.46l-4.06-.19s-1.85.11-1.16-1.55c0,0,3.54-14.1,4.08-16.3,1.44-5.89.62-6.89,0.27-10-0.26-2.35-2-16.46-3.49-21,0,0,0-1.18-.73-1.12l-2.37.49s-1.46.24-.4-1.44L56,48.93S56.34,47.87,56.72,48.53Z" transform="translate(-22.51 -20.02)"/><path class="cls-1" d="M70.5,48.53l5.12,8.9s1.8,2.07-.5,1.9l-1.41.08c-0.23,0-.42,0-0.25.27a8.85,8.85,0,0,0,.72,2.24s0,0.67,3.62,14.86c0,0,.42,2.63.63,3.81,0.39,2.22.14,6.63-1.49,12.26a150.68,150.68,0,0,0-3.73,16.4s-0.06.4-.86,0.46l-4.06-.19s-1.85.11-1.16-1.55c0,0,3.54-14.1,4.08-16.3,1.44-5.89.62-6.89,0.27-10-0.26-2.35-2-16.46-3.49-21,0,0,0-1.18-.73-1.12l-2.37.49s-1.46.24-.4-1.44l5.34-9.71S70.12,47.87,70.5,48.53Z" transform="translate(-22.51 -20.02)"/></svg>