<?xml version="1.0" encoding="utf-8"?>
<!-- Generator: Adobe Illustrator 19.2.1, SVG Export Plug-In . SVG Version: 6.00 Build 0)  -->
<svg version="1.1" id="Calque_1" xmlns="http://www.w3.org/2000/svg" xmlns:xlink="http://www.w3.org/1999/xlink" x="0px" y="0px"
	 viewBox="0 0 159.455 124.485" enable-background="new 0 0 159.455 124.485" xml:space="preserve">
<g>
	<path fill="#FFFFFF" d="M123.684,17.572l-4.464-1.257c-9.493-2.256-12.403,8.312-12.403,8.312l-15.2,41.325
		c-0.772,2.375-4.275,1.9-4.275,1.9l-45.851-1.9c-13.419-0.326-7.823,11.637-7.823,11.637l11.15,22.301
		c2.981,4.477,6.899,4.109,6.899,4.109l49.162-0.048c5.581,0.297,6.65-6.769,6.65-6.769l19.237-71.368
		C129.023,19.403,123.684,17.572,123.684,17.572z M117.742,31.397l-17.444,64.857c-0.131,0.961-0.428,0.99-1.616,0.93l-45.184-0.475
		c-2.375,0-2.85-1.544-2.85-1.544l-8.312-17.219c-2.063-3.859,1.663-3.681,1.663-3.681l45.956,1.069
		c6.887-0.119,9.144-8.253,9.144-8.253l11.756-34.14c3.266-11.222,6.454-10.221,6.454-10.221
		C120.651,23.441,117.742,31.397,117.742,31.397z"/>
	<path fill="#FFFFFF" d="M53.618,45.469l5.296,9.2c0,0,1.859,2.14-0.516,1.962l-1.46,0.078c-0.239,0.008-0.437,0.008-0.26,0.279
		c0,0-0.032,0.296,0.74,2.315c0,0-0.001,0.69,3.742,15.361c0,0,0.437,2.718,0.651,3.935c0.404,2.296,0.144,6.857-1.544,12.676
		c-2.593,8.94-3.859,16.951-3.859,16.951s-0.059,0.416-0.891,0.475l-4.201-0.193c0,0-1.915,0.119-1.202-1.603
		c0,0,3.661-14.574,4.216-16.848c1.484-6.086,0.641-7.124,0.282-10.316c-0.274-2.434-2.093-17.011-3.607-21.687
		c0,0,0.051-1.217-0.757-1.158l-2.449,0.505c0,0-1.514,0.252-0.416-1.484l5.522-10.034C52.905,45.884,53.225,44.786,53.618,45.469z"
		/>
	<path fill="#FFFFFF" d="M67.868,45.469l5.296,9.2c0,0,1.859,2.14-0.516,1.962l-1.46,0.078c-0.239,0.008-0.437,0.008-0.26,0.279
		c0,0-0.032,0.296,0.74,2.315c0,0-0.001,0.69,3.742,15.361c0,0,0.437,2.718,0.651,3.935c0.404,2.296,0.144,6.857-1.544,12.676
		c-2.593,8.94-3.859,16.951-3.859,16.951s-0.059,0.416-0.891,0.475l-4.201-0.193c0,0-1.915,0.119-1.202-1.603
		c0,0,3.661-14.574,4.216-16.848c1.484-6.086,0.641-7.124,0.282-10.316c-0.274-2.434-2.093-17.011-3.607-21.687
		c0,0,0.051-1.217-0.757-1.158l-2.449,0.505c0,0-1.514,0.252-0.416-1.484l5.522-10.034C67.155,45.884,67.475,44.786,67.868,45.469z"
		/>
	<path fill="#FFFFFF" d="M82.117,45.469l5.296,9.2c0,0,1.859,2.14-0.516,1.962l-1.46,0.078c-0.239,0.008-0.437,0.008-0.26,0.279
		c0,0-0.032,0.296,0.74,2.315c0,0-0.001,0.69,3.742,15.361c0,0,0.437,2.718,0.651,3.935c0.404,2.296,0.144,6.857-1.544,12.676
		c-2.593,8.94-3.859,16.951-3.859,16.951s-0.059,0.416-0.891,0.475l-4.201-0.193c0,0-1.915,0.119-1.202-1.603
		c0,0,3.661-14.574,4.216-16.848c1.484-6.086,0.641-7.124,0.282-10.316c-0.274-2.434-2.093-17.011-3.607-21.687
		c0,0,0.051-1.217-0.757-1.158l-2.449,0.505c0,0-1.514,0.252-0.416-1.484l5.522-10.034C81.405,45.884,81.725,44.786,82.117,45.469z"
		/>
</g>
</svg>
