<?xml version="1.0" encoding="utf-8"?>
<!-- Generator: Adobe Illustrator 19.2.1, SVG Export Plug-In . SVG Version: 6.00 Build 0)  -->
<svg version="1.1" id="Calque_1" xmlns="http://www.w3.org/2000/svg" xmlns:xlink="http://www.w3.org/1999/xlink" x="0px" y="0px"
	 viewBox="0 0 141.5 132.061" enable-background="new 0 0 141.5 132.061" xml:space="preserve">
<g>
	<path fill="#FFFFFF" d="M117.101,47.432h-3.177v34.923c0,5.438-3.166,10.354-9.513,10.354H42.228v1.66
		c0,4.807,5.468,9.66,11.083,9.66h47.542l18.188,10.694l-2.638-10.694h0.698c5.611,0,8.143-4.841,8.143-9.66V55.722
		C125.244,50.915,122.712,47.432,117.101,47.432z"/>
	<path fill="#FFFFFF" d="M95.128,23.169H22.904c-6.354,0-13.667,5.645-13.667,11.086v43.772c0,5.011,6.196,8.63,12.139,9.188
		l-3.868,14.682l24.784-14.581h52.836c6.354,0,12.218-3.853,12.218-9.29V42.613v-8.358C107.346,28.814,101.479,23.169,95.128,23.169
		z M33.923,60.118c-3.604,0-6.524-2.921-6.524-6.524c0-3.604,2.921-6.524,6.524-6.524c3.6,0,6.524,2.921,6.524,6.524
		C40.447,57.198,37.523,60.118,33.923,60.118z M58.292,60.118c-3.604,0-6.524-2.921-6.524-6.524c0-3.604,2.921-6.524,6.524-6.524
		c3.604,0,6.524,2.921,6.524,6.524C64.816,57.198,61.895,60.118,58.292,60.118z M82.664,60.118c-3.604,0-6.528-2.921-6.528-6.524
		c0-3.604,2.924-6.524,6.528-6.524c3.596,0,6.524,2.921,6.524,6.524C89.189,57.198,86.26,60.118,82.664,60.118z"/>
</g>
</svg>
