<svg id="Calque_1" data-name="Calque 1" xmlns="http://www.w3.org/2000/svg" viewBox="0 0 80.68 70.53"><defs><style>.cls-1{fill:#FFB414;}</style></defs><title>sms</title><path class="cls-1" d="M120.16,57.28c0-15.46-15-28-33.44-28s-33.44,12.58-33.44,28,15,28,33.44,28a40.38,40.38,0,0,0,4.63-.27c7.1,4.51,12.34,7,15.59,7.34l0.34,0A3.1,3.1,0,0,0,110,87.8s-2.53-4.62-1.81-9C115.81,73.47,120.16,65.66,120.16,57.28ZM77.65,61.52a5,5,0,1,1,5-5A5,5,0,0,1,77.65,61.52Zm18.16,0a5,5,0,1,1,5-5A5,5,0,0,1,95.81,61.52Z" transform="translate(-39.48 -29.24)"/><path class="cls-1" d="M60.35,79.71a30.38,30.38,0,0,1-7.77-9.56,26,26,0,0,1,0-24c0.15-.29.3-0.58,0.46-0.86C44.86,50,39.48,57.85,39.48,66.71c0,8,4.28,15.33,11.77,20.29,1.38,5.43-1.83,11.18-1.86,11.24a1,1,0,0,0,.9,1.54H50.4c3.74-.42,10.34-4.22,15.33-7.43a38.16,38.16,0,0,0,5.12.34,35.88,35.88,0,0,0,17.7-4.54c-1.13.09-2.26,0.14-3.39,0.14A38.84,38.84,0,0,1,60.35,79.71Z" transform="translate(-39.48 -29.24)"/></svg>