<?xml version="1.0" encoding="utf-8"?>
<!-- Generator: Adobe Illustrator 19.2.1, SVG Export Plug-In . SVG Version: 6.00 Build 0)  -->
<svg version="1.1" id="Calque_1" xmlns="http://www.w3.org/2000/svg" xmlns:xlink="http://www.w3.org/1999/xlink" x="0px" y="0px"
	 viewBox="0 0 141.5 132.061" enable-background="new 0 0 141.5 132.061" xml:space="preserve">
<g>
	<g id="denied">
		<path fill="#FFFFFF" d="M67.547,33.609c-25.362,0-45.925,20.563-45.925,45.925s20.563,45.925,45.925,45.925
			s45.925-20.563,45.925-45.925S92.909,33.609,67.547,33.609z M67.547,45.09c7.434,0,14.274,2.423,19.903,6.435L39.527,99.425
			c-4.013-5.629-6.424-12.469-6.424-19.891C33.104,60.541,48.555,45.09,67.547,45.09z M67.547,113.977
			c-7.434,0-14.274-2.423-19.903-6.435l47.922-47.899c4.013,5.629,6.424,12.469,6.424,19.891
			C101.991,98.526,86.54,113.977,67.547,113.977z"/>
	</g>
</g>
</svg>
