<?xml version="1.0" encoding="utf-8"?>
<!-- Generator: Adobe Illustrator 16.0.0, SVG Export Plug-In . SVG Version: 6.00 Build 0)  -->
<!DOCTYPE svg PUBLIC "-//W3C//DTD SVG 1.1//EN" "http://www.w3.org/Graphics/SVG/1.1/DTD/svg11.dtd">
<svg version="1.1" id="Calque_1" xmlns="http://www.w3.org/2000/svg" xmlns:xlink="http://www.w3.org/1999/xlink" x="0px" y="0px"
	 width="100px" height="100px" viewBox="0 0 100 100" enable-background="new 0 0 100 100" xml:space="preserve">
<path fill="#FCFCFC" d="M17.833,42.503c0,0,6.667-10,26.333-11.167c0,0,29.5-1.834,37.167,6.833c0,0,1.166,8.166,0.333,14.5
	c0,0,0.146,4.644-8.604,3.519c0,0-5.396-0.519-9.729,4.481c0,0-11,9.834-20.167,9.667c0,0-16.833,0.333-24.833-12.167
	C18.333,58.169,17,55.337,17.833,42.503z M21.667,49.336C26.334,57.003,42,58.169,42,58.169c9.833,0.333,19.834-9.5,19.834-9.5
	c2.166-2.667,14.5-5.666,14.5-5.666c4.5-0.833,0.833-4.5,0.833-4.5c-8.833-6.666-35-4.834-35-4.834
	C25.334,35.335,21.5,43.503,21.5,43.503C20.667,45.67,21.667,49.336,21.667,49.336z"/>
<ellipse fill="#FCFCFC" cx="36.25" cy="46.336" rx="5.917" ry="2.833"/>
</svg>
