<?xml version="1.0" encoding="utf-8"?>
<!-- Generator: Adobe Illustrator 19.2.1, SVG Export Plug-In . SVG Version: 6.00 Build 0)  -->
<svg version="1.1" id="Calque_1" xmlns="http://www.w3.org/2000/svg" xmlns:xlink="http://www.w3.org/1999/xlink" x="0px" y="0px"
	 viewBox="0 0 159.5 124.5" style="enable-background:new 0 0 159.5 124.5;" xml:space="preserve">
<style type="text/css">
	.st0{fill:#43BDDF;}
</style>
<g>
	<path class="st0" d="M56.8,62.1L44.9,49.3c0,0-2.1-1.4,0-5.1c0,0,4.9-8.8,11.9-10.9c0,0,3.4-1.5,5.8,1.2l19.3,17c0,0,6,6,1.1,9.8
		l-2.3,1.9c0,0-2.8,1.8-0.1,4.6l4.3,4.3c0,0,2,2.2,4.4,0.1l4.5-4.3c0,0,8.3-11.3-2.7-24L71.9,25.2c0,0-11.6-9.5-23.8-1
		c0,0-25.2,15.9-11.6,34.3l23.4,23.3c0,0,2.3-1,1.9-2.7c0,0-6.3-7.2-3.6-12.8C58,66.2,59.3,64.9,56.8,62.1z"/>
	<path class="st0" d="M102.2,62.5L114,75.2c0,0,2.1,1.4,0,5.1c0,0-4.9,8.8-11.9,10.9c0,0-3.4,1.5-5.8-1.2l-19.3-17c0,0-6-6-1.1-9.8
		l2.3-1.9c0,0,2.8-1.8,0.1-4.6L74,52.6c0,0-2-2.2-4.4-0.1l-4.5,4.3c0,0-8.3,11.3,2.7,24l19.2,18.6c0,0,11.6,9.5,23.8,1
		c0,0,25.2-15.9,11.6-34.3L99.2,42.9c0,0-2.3,1-1.9,2.7c0,0,6.3,7.2,3.6,12.8C100.9,58.4,99.6,59.7,102.2,62.5z"/>
</g>
</svg>
