<svg id="Calque_2" data-name="Calque 2" xmlns="http://www.w3.org/2000/svg" viewBox="0 0 113.39 113.39"><defs><style>.cls-1{fill:#fff;}</style></defs><title>trex</title><path class="cls-1" d="M311.39,404.58c0.08-.23,3.19-2.88,3.81-6.45s-2.8-8.4-2.8-8.4,0.86-1-1.4.78-1.79,2.88-1.33,3,2.57,2.72,2.57,3.65a3.29,3.29,0,0,1-2.49,2.57c-1.48.47-1.4,1.4-1.4,1.4C308.43,404.58,311.31,404.81,311.39,404.58Z" transform="translate(-253.83 -360.18)"/><path class="cls-1" d="M324.06,411.73s0.86,0.47,3.27-1.87S329,406,329,406l-6.07-7.7a2,2,0,0,0-3.19-1.24s-0.16,3.34,1.17,5.44-2.1,3-2.1,3S321.18,410.64,324.06,411.73Z" transform="translate(-253.83 -360.18)"/><path class="cls-1" d="M332.23,413h3.5s-0.16-2.8-3.5-2.72-3.1,1.09-3.15,2.18S332.23,413,332.23,413Z" transform="translate(-253.83 -360.18)"/><path class="cls-1" d="M310.52,360.18a56.69,56.69,0,0,0-56.69,56.69q0,2.8.27,5.53c0.34-4,1.37-4.61,1.37-4.61a33.35,33.35,0,0,1,1.32,3.73c0,0.47,2.41.47,2.1-.23s-0.47-2.8,0-3,1.32,1.94,1.32,1.94,1.63,1,1.56.36a29.13,29.13,0,0,0-1.56-3.69c1-1.08,2.57,1.62,2.57,1.62a4.14,4.14,0,0,0,1.87-3.66s-1.79-2.88-.85-3.58,1.4,0.7,2.72,1.71,0.93-1,.93-1l-1.79-4.43s0.62-.7,3,1,1.4,0.08,1.4.08c-1.94-2.26-1.24-3.5-1.24-3.5l2.49,0.86s1.17-1-.93-2.18a3.82,3.82,0,0,1-2.18-3.27c0-.31,2.1-1.56,3.11-0.39a2.35,2.35,0,0,0,2.88.86c0.7-.39-0.08-2.88-0.08-2.88s-3.27-3.81-1.79-4.36,5.52,1.71,5.52,1.71l2.26-.23s1.24,0.47,1.48-.47-1.4-1.17-1.4-1.17c0.39-1.71-3.81-3.58-3.81-3.58l1.24-1s2.1-.86,3.34.39,3.66,1.56,4.43,1.71A0.68,0.68,0,0,0,286,390a2.14,2.14,0,0,1-.78-2c0.23-.54-0.93-0.54-1.87-2.1s0.62-1.17.62-1.17a9.65,9.65,0,0,0,6.22,2.41l3.42-2.1,4.36-1.09,3-1.48,3.66-.31a4,4,0,0,1,3.58-1.24l2.33,2.1s0.63,0.54,3.27.78,1.71,4.2,1.71,4.2l4,0.93c-0.54,2.33,14.31,11.82,14.31,11.82h1.09l5.29,5A11.6,11.6,0,0,1,347.7,409c3.19,1.94,6.07,7.87,6.07,7.87,1.56,1,1,3.56-.7,6.91s-4.28,2.26-4.28,2.26c0.23-4.59-5.37-3.11-5.37-3.11a2.73,2.73,0,0,0-2.1-.47c-0.93-1.63-6.69-.93-6.69-0.93-0.16-.7-6-1.63-6-1.63-0.7-1.09-3.34-.78-3.34-0.78l-1.71-1.56-3.66-.7c-2.18-4-3.73-3-3.73-3l-6.22-.7-5.44,1.56,0.3,0.89,0.4,0a3.4,3.4,0,0,1,2.18,1.17l5.13,6-1.94.47-1-.78c-3.81,2.57.62,7.78,2.88,10.5s0.93,1.94.93,1.94l3.5,2.1,2.8,3.49,4.12,2.43,3.89,1.24,1.63,1.79,1.71,1.17c-3.19,3.42-3.89,1.24-3.89,1.24s-1.4,1.09-4.74.93-8.79-3.11-11.28-6.92-8.87-5.83-8.87-5.83-8.63-5.29-10.5-7.08-3.73-7.31-3.73-7.31c-1.32.54-1.79,5.6-1.79,5.6-0.7-.08-0.62-1.71-0.39-4.82s-1.71-2-1.71-2-0.23,2.88-.23,4.9a11.14,11.14,0,0,1-1.56,4.59l-1.05-6-3.23,9.25c1.48-5,.08-5.45.08-5.45-4.2,6.76-.31.94-2.26,5.76a24.72,24.72,0,0,1-5,7.78s2.88-7.39,3.5-8.79,0.16-4.9-1.17-4.74S272,434,272,434l-3.58,6.22,0.47-10.65c-0.54-1.4-1.09.31-1.09,0.31l-0.16,4.43c-5.52.78-1.32,7.39-1.32,7.39l-2.49-.7a9,9,0,0,0,2.88,7.85c1.71-7.23,4.74-1.56,4.74-1.56l4.36-.49,1.24-1.85a13,13,0,0,1,3-.47c1.32,0,4.12-4.67,1.48-5.37s0-3.19,0-3.19c8.24-5.68,10.11-.31,10.11-0.31l-1.94.47-2.49-.47-2.1,1.56-0.93-.39,0.7,2.41a1.57,1.57,0,0,0,1.4-1.32s0.31-.86,4.59-0.62,4.2,3.58,3,2.72-4.59-.62-4.59-0.62c-1.94,2.72-3.46,1.87-3.46,1.87V443s-1.2-1-1.28.31a1,1,0,0,0,.93,1.32c-0.86,2.95-3.5,4.67-4.59,4.59a3.75,3.75,0,0,0-2.1.62s1.32,0.54-1.17-.31-2.49.62-2.49,0.62l-1.09-.47c-2.72,2.8-.39,4-0.39,4l0.78-.86,1.71,1.17c0.23-1.32,4.2-1.48,4.2-1.48s-0.23-1.4.54-1.71a5.51,5.51,0,0,0,1.63-1.32c3.42,0.31,3.5-1.71,3.5-1.71l1.32-.54c-0.31-1.94.62-3.19,5.44-2.26s6.14,3.89,6.14,3.89-1.4-.54-4.58-1.4-4.82,2.64-3.81,2.64,3.19-1.32,4.82-1.09,2.1,2.26,2.1,2.26a4.19,4.19,0,0,1,1.4.93c0.31,0.47-.47,3.91-0.47,3.91l-2.1-3.67c-4.9-1.32-5.83,0-5.83,0l-0.39.54-0.86.62-1.48-.16-1.32-1-0.47,1.87-2.1.7c-4.2.93-5.05,2-5.05,2l-2.57,2.72-2.09.58A56.69,56.69,0,1,0,310.52,360.18Zm37.26,64.42c1.28,0.54-1.91,2.45-1.91,2.45S346.5,424.06,347.78,424.6Zm-8.52-1.52a0.44,0.44,0,0,1,.39.66c-0.23.62-.86,2-0.86,2a3,3,0,0,1-1.48.72l0.7-1.7,0.49-.92S338.18,423,339.27,423.08Zm-4.47.49c0.47-1.11.74-1.34,1.19-1.15,0,0,1.3.86-1.19,2.64l-2.49,1.79A18.07,18.07,0,0,0,334.79,423.57Zm-1-1.66s1.4,0.44-.7,2.69-3.75,2.25-3.75,2.25l2.45-3.54S332.73,421.49,333.74,421.92Zm-2.88-.7s1.39,0.55-.27,2.36a11.33,11.33,0,0,1-4,2.64l3.3-4.53A0.73,0.73,0,0,1,330.86,421.22Zm-3.07,11.7s-1.24,6.22-3.38,6.88S327.79,432.92,327.79,432.92Zm0.78-12.36,0.33,1.29L325,425.67l2-3.82S326.82,420.46,328.57,420.57Zm-2.14-1s1.79,1.52-2.72,4.24l1.54-3.43A1,1,0,0,1,326.43,419.58Zm-1.94-.66,0.29,0.7-1.5,1.75-1.24.48,1.24-1.46Zm-2.14-.51s1-.74.93,0-1.82,1.67-1.82,1.67ZM310,425.92v-1l1.4-.74S310.88,426.35,310,425.92Zm0.89,1.56c-0.78-.66,1.67-1.67,1.67-1.67S311.66,428.14,310.88,427.48Zm0.76,1.91a1,1,0,0,1,.37-1.52l2.1-.82S312.13,430.55,311.64,429.38Zm0.91,1.71-0.39-.51,2.68-2.25S314,432.46,312.55,431.09Zm1.59,2.07a2.91,2.91,0,0,1-.23-1.06l3.42-2.72-1,2.49L315,433.54S314.42,434,314.15,433.17Zm1.91,1.66s-1-.35,0-1.09,2.64-2.33,2.64-2.33S317.8,435.64,316.05,434.83Zm2.37,2.14-0.86-.58,0.51-1.17,2.45-2.53-0.74,2.49ZM320.1,439v-1.59l2.72-3.42S321.61,439.49,320.1,439Zm1.67,1.36c-0.93-.35-0.09-1.75,2.15-4.55l-0.4,3S322.7,440.74,321.77,440.39Zm2.88,1.83c-1.67-.35-1.67-1.09-0.74-1.44a42.6,42.6,0,0,0,4.43-2.88S326.32,442.57,324.64,442.22Zm2.37,1c-1.94-.82,4.16-6.49,4.16-6.49S329,444,327,443.19Zm2.53,1.28c-1.28-.54,2.88-5.79,2.88-5.79S330.83,445,329.54,444.47Zm1.63,1.24c-2.1-.89,2.08-4.63,2.08-4.63S333.28,446.61,331.18,445.72Zm3.19-18.2,1.4-1.85s0.66-1.85,1.56-1.85c0,0,.82.23-0.35,1.67A7.27,7.27,0,0,1,334.37,427.52Zm2.22,0.66s1.32-1.13,2.14-1.7,1.4-3.28,2.37-3.16-0.78,3.16-.78,3.16C338,428.51,336.58,428.18,336.58,428.18Zm5.48-3.46s0.47-1.44,1.56-1.09,0,2.16,0,2.16l-4.36,3.59A11,11,0,0,0,342.06,424.72Zm2,1.08c0.93-2.15,1.94-1.66,1.94-1.66,1.4,0.08-.66,2.24-0.66,2.24l-2.8,2S343.15,427.95,344.09,425.79Zm0.86,3.83s3.5-4.4,4.12-3S344.94,429.62,344.94,429.62Z" transform="translate(-253.83 -360.18)"/><path class="cls-1" d="M254.1,422.4c0,0.12,0,.24,0,0.37" transform="translate(-253.83 -360.18)"/></svg>