<?xml version="1.0" encoding="utf-8"?>
<!-- Generator: Adobe Illustrator 16.0.0, SVG Export Plug-In . SVG Version: 6.00 Build 0)  -->
<!DOCTYPE svg PUBLIC "-//W3C//DTD SVG 1.1//EN" "http://www.w3.org/Graphics/SVG/1.1/DTD/svg11.dtd">
<svg version="1.1" id="Calque_1" xmlns="http://www.w3.org/2000/svg" xmlns:xlink="http://www.w3.org/1999/xlink" x="0px" y="0px"
	 width="500px" height="500px" viewBox="0 0 500 500" enable-background="new 0 0 500 500" xml:space="preserve">
<linearGradient id="SVGID_1_" gradientUnits="userSpaceOnUse" x1="-103" y1="520" x2="-48" y2="520">
	<stop  offset="0" style="stop-color:#FFFFFF"/>
	<stop  offset="0.6341" style="stop-color:#F8F8F8"/>
	<stop  offset="0.9756" style="stop-color:#000000"/>
</linearGradient>
<rect x="-103" y="493" fill="url(#SVGID_1_)" width="55" height="54"/>
<path fill="none" stroke="#4D6DF4" stroke-width="6" stroke-miterlimit="10" d="M520.257,569.642c0,0,28.111-7.569,31.031-10.165
	c0,0,36.979-13.947,49.304,25.95c0,0,4.542,15.571,9.408,24.652c0,0-49.629,22.058-76.229-15.569
	C533.771,594.51,527.716,581.103,520.257,569.642z"/>
<circle fill="none" stroke="#4D6DF4" stroke-width="6" stroke-miterlimit="10" cx="568.833" cy="587.168" r="18.167"/>
<path fill="#4D6DF4" d="M567.667,570.001c0,0-14.332,18,0.334,36.333C568.001,606.334,587.333,591.668,567.667,570.001z"/>
<path fill="none" stroke="#4D6DF4" stroke-width="6" stroke-miterlimit="10" d="M610,610.079c0,0,14-40.079-14-97.079"/>
<path fill="none" d="M-1184.292-146.583c0,0,5.437,12.167,22.021,13.001c0,0,10.51,2.124,23.76-9.543c0,0,4.463-2.895,12.963-3.812
	c0,0,4.547,0.104,5.547-5.979V-163c0,0,2.915-6.832-19.918-9.999c0,0-30.166-3.248-39.749,7.585c0,0-3.5,2.916-4.583,5
	l-0.083,14.084"/>
<path fill="none" d="M-1181.083-157.416c0,0,1-8.833,14.333-11.333c0,0,22-2.834,40,3.333c0,0,8.333,2.668,0.083,5.168
	c0,0-6.167,0.751-9.25,2.584c0,0-11.75,9.002-17.75,10.585c0,0-12,3.584-23.083-4.25
	C-1176.75-151.329-1180.917-153.503-1181.083-157.416z"/>
<ellipse fill="none" cx="-1165.417" cy="-157.329" rx="5.667" ry="3.25"/>
<g id="Zfm4jS.tif">
	
		<image overflow="visible" width="488" height="447" id="Layer_0_1_" xlink:href="3C59C1011EFDBCCC.png"  transform="matrix(1 0 0 1 -931 3654)">
	</image>
</g>
<path fill="#070707" d="M-415.207,4080.957L-618,3963.992v-233.889l201.99-117.736L-211,3730.045v232.466L-415.207,4080.957z
	 M-591,3948.829l176.255,101.8L-237,3947.391v-202.146l-178.407-102.549L-591,3745.187V3948.829z"/>
<polygon fill="#070707" points="-47,3592.991 128.593,3490.598 307,3593.244 307,3795 129.255,3898.629 -47,3796.829 "/>
<path fill="#FCFCFC" d="M-1265.167,510.503c0,0,6.667-10,26.333-11.167c0,0,29.5-1.834,37.167,6.833c0,0,1.167,8.166,0.333,14.5
	c0,0-2.833,4.5-9.5,4c0,0-4.5-1-8.833,4c0,0-11,9.834-20.167,9.667c0,0-16.833,0.333-24.833-12.167
	C-1264.667,526.169-1266,523.337-1265.167,510.503z M-1261.333,517.336c4.667,7.667,20.333,8.833,20.333,8.833
	c9.833,0.333,19.833-9.5,19.833-9.5c2.167-2.667,14.5-5.666,14.5-5.666c4.5-0.833,0.833-4.5,0.833-4.5
	c-8.833-6.666-35-4.834-35-4.834c-16.833,1.666-20.667,9.834-20.667,9.834C-1262.333,513.67-1261.333,517.336-1261.333,517.336z"/>
<ellipse fill="#FCFCFC" cx="-1246.75" cy="514.336" rx="5.917" ry="2.833"/>
<path fill="#00C5DD" d="M250.793,483.957L48,366.992V133.104L249.99,15.367L455,133.045v232.466L250.793,483.957z M75,351.829
	l176.255,101.8L429,350.391V148.244L250.593,45.695L75,148.187V351.829z"/>
<polygon fill="#000C2F" stroke="#1E2749" stroke-width="2" stroke-miterlimit="10" points="91,158 91,341 250.5,431 412.75,340 
	411.875,162 250.438,69 "/>
<ellipse fill="#F1304E" cx="-346.131" cy="112.098" rx="62.247" ry="55.498"/>
<ellipse fill="#00C5DD" cx="-343.131" cy="232.098" rx="62.247" ry="55.498"/>
<g>
	<g>
		<path fill="#30BAD5" d="M297.824,245.123H290.8v-23.897c0-12.181-4.688-22.957-12.184-30.921
			c-7.497-7.965-18.274-13.122-29.986-13.122c-11.715,0-22.491,5.157-29.988,13.122c-7.496,7.964-12.18,19.209-12.18,30.921v23.897
			h-7.028c-2.812,0-5.623,2.345-5.623,5.625v63.719c0,2.812,2.343,5.62,5.623,5.62h98.863c2.808,0,5.62-2.34,5.62-5.62v-64.191
			C302.98,247.468,300.637,245.123,297.824,245.123L297.824,245.123z M226.139,220.763c0-7.033,2.812-13.122,6.56-17.337
			c4.217-4.216,9.371-7.033,15.464-7.033s11.244,2.345,15.461,7.033c4.216,4.216,6.561,10.304,6.561,17.337v23.893h-44.045V220.763z
			"/>
	</g>
</g>
</svg>
