<?xml version="1.0" encoding="utf-8"?>
<!-- Generator: Adobe Illustrator 19.2.1, SVG Export Plug-In . SVG Version: 6.00 Build 0)  -->
<svg version="1.1" id="Calque_1" xmlns="http://www.w3.org/2000/svg" xmlns:xlink="http://www.w3.org/1999/xlink" x="0px" y="0px"
	 viewBox="0 0 159.455 124.485" enable-background="new 0 0 159.455 124.485" xml:space="preserve">
<g>
	<path fill="#FFFFFF" stroke="#FFFFFF" stroke-width="4" stroke-miterlimit="10" d="M79.197,15.937
		c-25.714,0-46.633,20.92-46.633,46.634s20.92,46.634,46.633,46.634c25.714,0,46.634-20.92,46.634-46.634
		S104.911,15.937,79.197,15.937z M79.197,105.92c-23.903,0-43.348-19.446-43.348-43.349s19.446-43.349,43.348-43.349
		s43.349,19.446,43.349,43.349S103.1,105.92,79.197,105.92z"/>
	<path fill="#FFFFFF" d="M52.369,63.995c-1.625-1.497-1.625-3.923,0-5.421c1.625-1.497,4.258-1.497,5.883,0l16.5,15.203
		l24.621-22.686c1.625-1.497,4.258-1.497,5.883,0c1.625,1.497,1.625,3.923,0,5.421L80.634,79.199l-3.614,3.184
		c-0.636,0.499-1.375,0.854-2.271,0.854c-0.991,0-1.891-0.371-2.549-0.968L52.369,63.995z"/>
</g>
</svg>
