<svg id="Calque_1" data-name="Calque 1" xmlns="http://www.w3.org/2000/svg" viewBox="0 0 91.63 92.31"><defs><style>.cls-1{fill:#FFF;}</style></defs><title>Ventilation</title><path class="cls-1" d="M105.32,31.56C94.09,19.34,81,26.34,81,26.34s-7.1,2.46-12.32,21.6c0,0-3.64,2.06-6.24,0-4.17-3.32-.93-13,1.89-17.25,0,0,6.22-11.93-7.83-16.22C40.79,9.68,15.89,32,34.27,50.41c0,0,3.19,4.71,18.05,6.89,0,0,3.21,4.57-1,8.28-3.19,2.83-15.16-2.12-15.16-2.12s-15.41-4.51-15.77,9.35c-0.52,19.91,9.92,23.89,19,24.85C49.62,98.75,60.87,91,61.31,75.2a13.4,13.4,0,0,1,.38-1.3c0.74-2,6.12-1.89,7.76-.71a1.46,1.46,0,0,1,1,1.51,29.35,29.35,0,0,1-2.32,15S60.94,103.3,75.3,105.8C92,108.7,106,91.28,102,81.52c-5-12.38-11.71-14.76-24.77-17-0.25,0-1.2,0-.61-1,0,0,1.14-3.53.31-5.44a1,1,0,0,1,0-1.1c1.94-1.8,8.06-4.65,21.11,3,0,0,11.89,3.79,13.2-8C111.26,52,115.18,42.29,105.32,31.56ZM68.77,64.84c-5,3.25-10.29-2.07-7-7A2.61,2.61,0,0,1,62.48,57c5-3.25,10.29,2.07,7,7A2.61,2.61,0,0,1,68.77,64.84Z" transform="translate(-20.4 -13.81)"/></svg>