<?xml version="1.0" encoding="utf-8"?>
<!-- Generator: Adobe Illustrator 19.2.1, SVG Export Plug-In . SVG Version: 6.00 Build 0)  -->
<svg version="1.1" id="Calque_1" xmlns="http://www.w3.org/2000/svg" xmlns:xlink="http://www.w3.org/1999/xlink" x="0px" y="0px"
	 viewBox="0 0 159.455 124.485" enable-background="new 0 0 159.455 124.485" xml:space="preserve">
<path fill="#FFFFFF" d="M121.245,33.838c-11.228-12.219-24.36-5.22-24.36-5.22S89.78,31.083,84.56,50.223c0,0-3.643,2.06-6.235,0
	c-4.172-3.315-0.926-13.045,1.885-17.255c0,0,6.218-11.933-7.83-16.225c-15.66-4.785-40.56,17.532-22.185,35.945
	c0,0,3.19,4.712,18.052,6.887c0,0,3.212,4.571-0.971,8.279c-3.19,2.827-15.16-2.117-15.16-2.117S36.71,61.225,36.347,75.09
	c-0.52,19.906,9.924,23.886,18.977,24.849c10.222,1.087,21.478-6.652,21.913-22.457c0,0,0.173-0.741,0.381-1.305
	c0.745-2.028,6.121-1.894,7.762-0.712c0.257,0.185,0.844,0.124,1.026,1.505c1.054,8.016-2.317,14.976-2.317,14.976
	s-7.223,13.633,7.141,16.131c16.675,2.9,30.653-14.52,26.728-24.277c-4.981-12.38-11.71-14.761-24.773-17.038
	c-0.248-0.043-1.201-0.048-0.613-0.993c0,0,1.141-3.528,0.313-5.442c0,0-0.41-0.719,0.005-1.102
	c1.945-1.797,8.056-4.654,21.106,3.016c0,0,11.89,3.785,13.195-7.96C127.19,54.283,131.105,44.568,121.245,33.838z M84.694,67.118
	c-4.973,3.25-10.29-2.067-7.041-7.041c0.195-0.299,0.455-0.558,0.754-0.754c4.973-3.25,10.29,2.067,7.041,7.041
	C85.253,66.663,84.993,66.923,84.694,67.118z"/>
</svg>
