<?xml version="1.0" encoding="utf-8"?>
<!-- Generator: Adobe Illustrator 19.2.1, SVG Export Plug-In . SVG Version: 6.00 Build 0)  -->
<svg version="1.1" id="Calque_1" xmlns="http://www.w3.org/2000/svg" xmlns:xlink="http://www.w3.org/1999/xlink" x="0px" y="0px"
	 viewBox="0 0 159.5 124.5" style="enable-background:new 0 0 159.5 124.5;" xml:space="preserve">
<style type="text/css">
	.st0{fill:#00DEEF;}
</style>
<g>
	<path class="st0" d="M145.7,38.2c-1.8-1-7.8-1.2-8.4-0.4c-0.6,0.7-1.6,5.8,0.1,8.5c0.1,0.1,0.6,0.5,0.7,0.5
		c1.2,0.1,10.5,0.3,11.7-2C151.1,42.3,147.8,39.4,145.7,38.2z"/>
	<path class="st0" d="M22.5,46.8c0.1,0,0.6-0.4,0.7-0.5c1.7-2.7,0.7-7.7,0.1-8.5c-0.6-0.8-6.6-0.6-8.4,0.4c-2.2,1.2-5.4,4.1-4.1,6.6
		C12.1,47.2,21.4,46.9,22.5,46.8z"/>
	<path class="st0" d="M146.1,62.4c0.1-5-2.8-8.2-2.8-8.2s-7.1-5.5-8.3-6.5c-1.5-1.2-2.7-4.6-2.7-4.6c-4.3-9.7-12.6-18.5-15-20
		c-2.4-1.5-6.4-2.1-6.4-2.1c-28.9-3.4-56.8-0.4-62,0c-5.2,0.4-5.7,2.2-5.7,2.2c-2.8,3-6.3,7-14.1,20.1c-1.8,3-4.8,5.3-4.8,5.3
		l-6.8,5.8c-3.8,2.7-3.1,7.2-3.1,7.2s0,40.3,0,42.6c0,2.3,2.9,2.7,2.9,2.7s8.5-0.1,12.5,0s4.1-2.7,4.1-2.7s0-0.9,0.1-4.3
		c0.1-3.1,3-2.8,3-2.8s82.1,0.4,86.8,0.3c3.7-0.1,3.5,2.7,3.5,2.7c-0.1,1.8-0.2,3.1,0.5,4.1c1.2,1.6,3.8,1.8,3.8,1.8s8.1,0.1,11.8,0
		c3.7-0.1,2.8-4.7,2.8-4.7L146.1,62.4z M35.3,43.4c0,0,9.6-14.8,11.2-16.1c1.6-1.3,3.7-1.4,3.7-1.4c28.8-1.8,59.8,0.2,59.8,0.2
		c3.4,0.4,5.6,2.5,5.6,2.5c6.5,6.1,8.2,9.6,10.5,14.7c1.9,4.2-2.5,3.5-2.5,3.5s-34.5-3.6-86.7,0C33.2,47.1,35.3,43.4,35.3,43.4z
		 M24.9,66.3c-1.3-5.6-0.9-7.7,0.6-7.7C40.6,58.3,48,63.9,48,63.9C56.8,69.1,26,71,24.9,66.3z M111.9,87.1c-1.3,1.7-9.5,2.1-9.5,2.1
		l-43.2-0.1c-0.1,0-7.6,0.8-10.1-2.3c-2.7-3.3-2.7-4.2-2.1-6.3c0.7-2.2,6.7-6.8,6.7-6.8c6-3,49-3.3,52.2-0.5
		c2.2,0.6,6.9,4.8,8.5,7.2C115.7,82.7,113.9,85.4,111.9,87.1z M135.6,66.3c-1.1,4.7-32,2.8-23.1-2.4c0,0,7.4-5.6,22.6-5.3
		C136.5,58.6,137,60.7,135.6,66.3z"/>
</g>
</svg>
