<?xml version="1.0" encoding="utf-8"?>
<!-- Generator: Adobe Illustrator 19.2.1, SVG Export Plug-In . SVG Version: 6.00 Build 0)  -->
<svg version="1.1" id="Calque_1" xmlns="http://www.w3.org/2000/svg" xmlns:xlink="http://www.w3.org/1999/xlink" x="0px" y="0px"
	 viewBox="0 0 159.455 124.485" enable-background="new 0 0 159.455 124.485" xml:space="preserve">
<g>
	<path fill="#FFFFFF" d="M144.663,37.215c-1.799-1.012-7.824-1.165-8.411-0.407c-0.575,0.741-1.56,5.8,0.141,8.491
		c0.054,0.085,0.57,0.526,0.673,0.531c1.167,0.065,10.458,0.331,11.667-1.967C150.09,41.285,146.834,38.436,144.663,37.215z"/>
	<path fill="#FFFFFF" d="M21.529,45.83c0.103-0.006,0.619-0.446,0.673-0.531c1.702-2.691,0.717-7.749,0.141-8.491
		c-0.588-0.758-6.612-0.605-8.411,0.407c-2.171,1.221-5.427,4.07-4.07,6.648C11.071,46.161,20.362,45.895,21.529,45.83z"/>
	<path fill="#FFFFFF" d="M145.071,61.378c0.105-5.033-2.824-8.169-2.824-8.169s-7.081-5.547-8.302-6.542
		c-1.464-1.193-2.713-4.613-2.713-4.613c-4.333-9.688-12.553-18.496-14.995-19.988c-2.442-1.492-6.415-2.08-6.415-2.08
		c-28.897-3.392-56.845-0.407-62.014,0c-5.169,0.407-5.714,2.239-5.714,2.239c-2.755,3.007-6.263,6.987-14.106,20.147
		c-1.807,3.032-4.835,5.291-4.835,5.291l-6.806,5.834c-3.825,2.713-3.147,7.19-3.147,7.19s0,40.293-0.022,42.6
		C13.156,105.592,16.05,106,16.05,106s8.479-0.061,12.549-0.001s4.138-2.713,4.138-2.713s-0.015-0.885,0.136-4.274
		c0.136-3.053,2.959-2.781,2.959-2.781s82.104,0.398,86.828,0.327c3.689-0.056,3.5,2.678,3.5,2.678
		c-0.102,1.832-0.244,3.109,0.461,4.05c1.175,1.569,3.799,1.764,3.799,1.764s8.14,0.136,11.829,0
		c3.689-0.136,2.846-4.748,2.846-4.748L145.071,61.378z M34.274,42.416c0,0,9.587-14.833,11.215-16.099
		c1.628-1.266,3.663-1.379,3.663-1.379c28.762-1.809,59.83,0.204,59.83,0.204c3.358,0.441,5.608,2.532,5.608,2.532
		c6.467,6.06,8.185,9.587,10.492,14.743c1.876,4.194-2.533,3.461-2.533,3.461s-34.46-3.642-86.737-0.004
		C32.203,46.125,34.274,42.416,34.274,42.416z M23.866,65.301c-1.342-5.557-0.898-7.712,0.594-7.702
		c15.127-0.283,22.55,5.331,22.55,5.331C55.834,68.08,24.995,69.974,23.866,65.301z M110.91,86.105
		c-1.343,1.709-9.525,2.064-9.525,2.064l-43.233-0.078c-0.061-0.025-7.574,0.78-10.13-2.261c-2.747-3.269-2.724-4.196-2.08-6.261
		c0.673-2.159,6.693-6.763,6.693-6.763c5.969-2.985,49.021-3.256,52.187-0.452c2.171,0.633,6.858,4.802,8.522,7.248
		C114.749,81.666,112.922,84.364,110.91,86.105z M134.623,65.301c-1.128,4.673-31.968,2.778-23.145-2.371
		c0,0,7.423-5.614,22.55-5.331C135.521,57.589,135.965,59.745,134.623,65.301z"/>
</g>
</svg>
